<ttFont>
          <CharString index="0">
            54 -51 rmoveto
            12 14 11 15 6 -2 5 -4 5 hvcurveto
            -182 220 rlineto
            6 -5 -7 3 -9 hhcurveto
            -8 -8 -4 -7 -4 hvcurveto
            -151 -220 rlineto
            -3 -4 -1 -5 -5 vvcurveto
            -26 callgsubr
            8 8 4 7 5 vhcurveto
            74 109 96 -111 rlineto
            -6 5 7 -3 7 hhcurveto
            endchar
          </CharString>
          <CharString index="1">
            -76 callsubr
            91 callsubr
            vhcurveto
            -11 -19 -17 -17 -29 -11 rrcurveto
            -10 -4 -7 -10 -10 vvcurveto
            return
          </CharString>
          <CharString index="2">
            25 rmoveto
            -137 40 -20 162 147 vvcurveto
            128 14 103 7 39 vhcurveto
            70 hlineto
            -6 -47 -13 -109 -122 vvcurveto
            -114 4 -132 81 -95 vhcurveto
            421 663 32 callsubr
            -214 -17 rlineto
            -13 -2 -45 callsubr
            -13 11 -13 14 vhcurveto
            -90 callgsubr
            82 7 rlineto
            7 -54 15 -137 -127 vvcurveto
            -88 callgsubr
            return
          </CharString>
          <CharString index="3">
            -13 -11 -11 -13 -13 -10 11 13 12 -76 callgsubr
            -12 vhcurveto
            51 hmoveto
            41 -33 33 -42 -55 callgsubr
            -56 callsubr
            42 33 33 42 vhcurveto
            return
          </CharString>
          <CharString index="4">
            371 171 rmoveto
            -72 -41 -73 -79 -93 hhcurveto
            -30 -39 14 37 103 178 32 78 hvcurveto
            6 6 0 6 hhcurveto
            -12 1 -12 1 -11 vhcurveto
            118 -121 rmoveto
            -24 -3 100 callgsubr
            2 22 2 30 36 vvcurveto
            114 -2 144 -116 63 vhcurveto
            69 callsubr
            -22 callgsubr
            171 11 -180 -154 -31 0 -20 -1 -13 hvcurveto
            116 -48 rmoveto
            89 callsubr
            hvcurveto
            return
          </CharString>
          <CharString index="5">
            -162 hmoveto
            41 -34 34 -41 -41 -34 -34 -41 -41 34 -34 41 41 34 34 41 vhcurveto
            213 hmoveto
            41 -33 34 -42 -41 -33 -34 -41 -41 33 -34 41 42 33 90 callsubr
          </CharString>
          <CharString index="6">
            257 rmoveto
            -6 -49 -46 -4 -47 hhcurveto
            -47 -48 4 6 -52 hvcurveto
            37 97 48 98 60 102 33 -48 63 -102 48 -147 rrcurveto
            185 -203 rmoveto
            1 -10 -10 0 -10 -14 -14 -1 -13 hhcurveto
            -7 30 -18 64 -42 130 -56 170 -77 115 -29 39 12 19 13 20 13 20 118 -160 86 -199 58 -248 rrcurveto
            return
          </CharString>
          <CharString index="7">
            -20 hstemhm
            -51 59 hintmask 11110110
            80 -112 rmoveto
            -72 callsubr
            414 573 rmoveto
            -24 -95 -75 -293 -35 -86 -35 -86 -55 -93 -95 -34 42 43 38 69 36 99 45 125 68 274 18 76 rrcurveto
            11 11 0 12 hhcurveto
            12 13 0 1 13 hvcurveto
            113 31 rmoveto
            hintmask 11101110
            -55 callsubr
            vhcurveto
            -1 -1 -51 callgsubr
            hintmask 11110110
            -5 -41 -41 -2 -40 hhcurveto
            hintmask 11101110
            -41 -40 2 5 -40 hvcurveto
            -1 -1 -15 callgsubr
            10 -11 13 -1 hvcurveto
            14 -2 14 -1 13 -1 -16 -65 -39 -160 -37 -125 -115 168 -18 124 -2 47 25 2 25 3 26 4 rrcurveto
            83 callgsubr
            -55 callsubr
            vhcurveto
            hintmask 11110110
            -1 -1 0 -1 -2 hvcurveto
            -6 -40 -39 -3 -38 hhcurveto
            -24 -24 1 3 -23 hvcurveto
            -1 -1 -51 callgsubr
            -13 -13 -12 -14 -13 10 -11 13 -1 hvcurveto
            -3 25 25 -1 25 hhcurveto
            2 -59 22 -146 143 -195 -6 -18 -5 -16 -5 -14 rrcurveto
            -58 -21 -65 -170 -85 hhcurveto
            -23 -20 12 19 -15 hvcurveto
            -3 9 10 -2 11 hhcurveto
            48 39 39 48 48 -39 39 -48 -62 -33 -61 -59 -92 82 -49 88 142 94 126 128 53 hvcurveto
            39 95 82 327 18 73 13 1 12 1 12 2 117 callgsubr
            return
          </CharString>
          <CharString index="8">
            12 14 12 14 12 -9 11 -13 2 hvcurveto
            -33 5 -33 4 -33 3 -63 276 -97 219 -137 174 rrcurveto
            6 -4 -8 3 -8 hhcurveto
            -7 -8 -3 -8 -6 hvcurveto
            -161 -239 -96 -212 -45 -215 -31 -2 -30 -4 -29 -7 14 callsubr
            1 callsubr
            15 vhcurveto
            return
          </CharString>
          <CharString index="9">
            250 52 rmoveto
            -22 -1 -22 0 -21 -1 11 612 rcurveline
            -37 callgsubr
            370 -420 rmoveto
            89 callgsubr
            -56 callgsubr
            -12 124 callgsubr
            vhcurveto
            -36 -204 rlineto
            4 -58 -88 2 -89 -5 -5 0 -4 hhcurveto
            16 609 -23 callgsubr
            rlinecurve
            14 -23 callsubr
            14 -1 callsubr
            vhcurveto
            -1 0 -51 callgsubr
            -4 -39 -39 -1 -40 hhcurveto
            return
          </CharString>
          <CharString index="10">
            286 649 rmoveto
            -3 -2 -2 -2 -2 -2 rrcurveto
            -51 -44 -61 -85 -159 vvcurveto
            -128 27 -98 55 -64 vhcurveto
            -91 56 -61 105 121 vvcurveto
            136 78 117 111 49 vhcurveto
            416 -302 rmoveto
            -145 -117 -174 -139 -175 -53 169 158 145 74 161 171 128 111 -180 -134 vhcurveto
            51 hmoveto
            191 -149 186 -205 -194 -159 -169 -208 -208 159 -169 194 192 162 173 204 vhcurveto
            return
          </CharString>
          <CharString index="11">
            93 -21 52 629 51 hstemhm
            37 152 -51 51 69 52 344 51 hintmask 11101100
            258 31 rmoveto
            -25 1 -23 2 -21 2 rrcurveto
            615 vlineto
            21 3 24 3 24 2 rrcurveto
            396 -312 rmoveto
            -186 -155 -135 -189 5 vhcurveto
            261 vlineto
            36 2 33 5 31 7 rrcurveto
            12 3 8 10 12 vvcurveto
            -11 callgsubr
            -2 -2 -1 -2 hhcurveto
            -27 -6 -30 -4 -32 -3 rrcurveto
            317 vlineto
            196 12 148 -118 -207 vvcurveto
            51 hmoveto
            242 -171 122 -229 -139 -106 -36 -2 -6 vhcurveto
            -11 -3 -11 -17 6 -12 rrcurveto
            -11 4 10 -7 11 hhcurveto
            2 3 1 1 3 hvcurveto
            hintmask 11011100
            1 25 9 8 41 hvcurveto
            -295 vlineto
            4 -42 -28 5 -1 -1 -2 1 -1 hhcurveto
            hintmask 11101100
            -10 -16 -9 -17 -12 9 -11 12 -2 hvcurveto
            hintmask 11011100
            1 31 -6 -5 48 hvcurveto
            -251 vlineto
            8 -36 -20 7 -1 hhcurveto
            1 -3 -3 1 -3 hhcurveto
            -12 -13 -10 -16 -10 6 -10 10 -4 hvcurveto
            -1 5 83 -31 128 hhcurveto
            228 198 126 242 hvcurveto
            endchar
          </CharString>
          <CharString index="12">
            -42 9 -41 5 -40 1 11 51 14 51 17 51 rrcurveto
            -8 59 54 -4 52 hhcurveto
            52 51 4 8 55 hvcurveto
            27 -85 13 -47 6 -25 -28 -3 -27 -3 -26 -5 -12 callgsubr
            return
          </CharString>
          <CharString index="13">
            -13 11 -86 callsubr
            return
          </CharString>
          <CharString index="14">
            120 167 rmoveto
            -21 0 -36 -47 vvcurveto
            -79 -1 -108 -7 -108 vhcurveto
            -5 -78 -31 -94 -73 -44 rrcurveto
            56 115 -7 157 142 30 -4 94 78 vvcurveto
            17 23 -1 24 2 3 0 3 hhcurveto
            113 31 rmoveto
            -52 callsubr
            -1 51 callsubr
            -4 -22 -35 -1 -33 -46 -44 3 -1 hhcurveto
            0 -1 0 0 -13 -13 -12 -14 -1 0 0 0 vhcurveto
            1 -5 rlineto
            return
          </CharString>
          <CharString index="15">
            -60 -28 -98 -75 -81 -8 94 68 61 19 89 80 67 26 -98 -56 vhcurveto
            51 hmoveto
            105 -60 109 -121 -112 -79 -88 -126 -125 79 -88 112 116 65 101 112 vhcurveto
            return
          </CharString>
          <CharString index="16">
            rmoveto
            2 1 3 2 vvcurveto
            11 -11 14 -15 -8 -7 -3 -6 -5 vhcurveto
            -10 -8 -27 -27 -26 hhcurveto
            -35 -24 46 33 return
          </CharString>
          <CharString index="17">
            vlineto
            -78 callsubr
            23 23 1 return
          </CharString>
          <CharString index="18">
            9 -11 13 -2 hvcurveto
            return
          </CharString>
          <CharString index="19">
            254 51 rmoveto
            -23 -1 -24 0 -23 -1 rrcurveto
            593 vlineto
            24 23 1 1 23 hvcurveto
            369 -476 rmoveto
            2 85 callsubr
            -45 callgsubr
            -13 -2 vhcurveto
            return
          </CharString>
          <CharString index="20">
            -27 -1 -14 -116 -46 hhcurveto
            -49 -13 90 38 8 0 4 0 hvcurveto
            71 callsubr
            vvcurveto
            return
          </CharString>
          <CharString index="21">
            -13 15 -73 callsubr
            return
          </CharString>
          <CharString index="22">
            6 5 6 8 9 vvcurveto
            8 -4 8 -7 4 vhcurveto
            -82 62 -86 106 -44 57 rrcurveto
            34 callsubr
            -13 -12 -12 -14 -6 1 -5 4 -5 hvcurveto
            21 -27 29 -37 35 -39 rrcurveto
            -204 vlineto
            -34 -33 -30 -33 -20 -23 rrcurveto
            -4 -5 -2 -6 -6 vvcurveto
            -12 11 -14 14 7 8 3 6 5 vhcurveto
            43 50 85 92 84 52 rrcurveto
            return
          </CharString>
          <CharString index="23">
            rmoveto
            43 241 -43 vlineto
            51 68 rmoveto
            15 -11 11 -14 vhcurveto
            -293 hlineto
            -14 -11 -11 -15 hvcurveto
            -94 vlineto
            1 callsubr
            14 vhcurveto
            293 hlineto
            89 callsubr
            hvcurveto
            endchar
          </CharString>
          <CharString index="24">
            -116 -133 5 9 -68 hvcurveto
            98 callsubr
            -12 -10 -8 -12 -3 hvcurveto
            -1 -23 -108 -19 -69 vhcurveto
            -1 -2 126 callgsubr
            -26 callgsubr
            11 10 8 11 3 vhcurveto
            15 52 15 71 8 35 38 -3 50 -3 55 -2 -11 -606 27 callgsubr
            return
          </CharString>
          <CharString index="25">
            264 52 rmoveto
            -11 -10 0 -11 -11 -11 0 -10 hhcurveto
            -17 599 rlineto
            23 24 0 1 23 hvcurveto
            332 -605 rmoveto
            -16 55 -50 145 -123 126 14 12 14 13 15 15 34 -30 123 -119 51 -208 rrcurveto
            189 -3 rmoveto
            13 callsubr
            -109 -16 -53 223 -128 127 -43 37 rlinecurve
            54 59 50 59 40 90 rrcurveto
            93 hlineto
            14 12 11 14 15 -12 11 -14 hvcurveto
            -219 hlineto
            -14 -12 -11 -15 -14 12 -11 14 hvcurveto
            69 hlineto
            -74 -151 -115 -91 -62 -48 -5 288 rcurveline
            28 2 28 3 29 4 rrcurveto
            83 callgsubr
            return
          </CharString>
          <CharString index="26">
            41 -34 -116 40 -83 hhcurveto
            -135 -133 -80 -157 -160 139 -43 139 -30 hvcurveto
            58 -12 148 -36 -85 vvcurveto
            -79 -95 -21 -67 -116 -95 53 93 -72 vhcurveto
            3 31 4 18 6 30 rrcurveto
            1 98 callgsubr
            12 -11 14 -15 -12 -10 -9 -12 -3 vhcurveto
            return
          </CharString>
          <CharString index="27">
            vlineto
            -22 -3 -23 -3 -23 56 callgsubr
            return
          </CharString>
          <CharString index="28">
            -36 callsubr
            1 return
          </CharString>
          <CharString index="29">
            -42 callgsubr
            1 hhcurveto
            return
          </CharString>
          <CharString index="30">
            rmoveto
            -2 -11 -11 -2 -11 hhcurveto
            -89 -47 105 74 -22 hvcurveto
            21 9 20 8 22 13 27 -76 45 -99 56 -30 rrcurveto
            -33 -55 rmoveto
            103 43 74 95 46 -9 38 -1 4 hvcurveto
            12 -2 -11 8 -12 hhcurveto
            -13 -12 -12 -14 hvcurveto
            -2 0 -2 -2 vvcurveto
            1 7 -37 -41 hvcurveto
            return
          </CharString>
          <CharString index="31">
            55 -23 rmoveto
            52 -25 45 -53 return
          </CharString>
          <CharString index="32">
            -42 -39 43 45 21 7 19 13 20 hvcurveto
            -3 vlineto
            -60 44 -66 65 -4 vhcurveto
            return
          </CharString>
          <CharString index="33">
            rmoveto
            1 84 callgsubr
            -12 -12 0 -1 -12 hvcurveto
            return
          </CharString>
          <CharString index="34">
            3 3 1 1 3 vhcurveto
            return
          </CharString>
          <CharString index="35">
            -20 -16 -16 -20 96 callgsubr
            20 16 -16 -20 vhcurveto
            return
          </CharString>
          <CharString index="36">
            -62 callgsubr
            -11 13 -1 hvcurveto
            return
          </CharString>
          <CharString index="37">
            14 -11 12 -14 -15 -11 -12 -14 vhcurveto
            0 0 0 -1 vvcurveto
            -102 83 -77 110 160 106 140 159 10 vhcurveto
            7 109 2 109 80 48 -1 37 20 vvcurveto
            15 1 14 2 12 2 rrcurveto
            12 2 9 11 12 vvcurveto
            return
          </CharString>
          <CharString index="38">
            -12 -14 -10 -14 hvcurveto
            -6 -196 rlineto
            -155 -25 -64 -95 -80 hhcurveto
            -88 -24 93 81 55 25 162 37 37 hvcurveto
            return
          </CharString>
          <CharString index="39">
            10 -9 15 -17 -11 -11 -8 -12 -3 vhcurveto
            -9 -41 -6 -42 -1 -46 rrcurveto
            2 -45 -44 0 -45 hhcurveto
            -33 -33 0 -1 -32 hvcurveto
            287 423 rlineto
            3 4 1 5 5 vvcurveto
            -11 callgsubr
            -1 0 -51 callgsubr
            return
          </CharString>
          <CharString index="40">
            rmoveto
            1 -14 -16 0 -15 -9 -8 0 -9 hhcurveto
            367 -90 callsubr
            3 21 hvcurveto
            426 -399 rmoveto
            13 -8 14 -15 1 vhcurveto
            -27 3 -27 1 -25 1 rrcurveto
            12 48 14 97 65 vvcurveto
            return
          </CharString>
          <CharString index="41">
            0 -14 -1 -2 vhcurveto
            211 vlineto
            -55 callsubr
            -4 -5 -1 -2 -4 vhcurveto
            -35 -20 -35 -6 0 vvcurveto
            -12 -2 -10 -7 -14 0 0 -2 -189 vvcurveto
            -2 -3 0 -2 hhcurveto
            -36 -36 1 3 -36 hvcurveto
            42 60 10 57 40 35 -8 22 2 vvcurveto
            11 -4 -10 7 -11 hhcurveto
            -13 -12 -12 -14 -2 0 -3 1 -3 hvcurveto
            0 5 -16 -26 vvcurveto
            -39 -11 -60 -57 -64 vhcurveto
            -5 -5 -2 -6 -6 vvcurveto
            -12 10 -13 13 -1 vhcurveto
            return
          </CharString>
          <CharString index="42">
            12 -10 13 -16 -13 -11 -10 109 callsubr
            -3 -4 -49 -48 vvcurveto
            -14 0 -13 1 -13 vhcurveto
            48 callsubr
            10 12 13 hvcurveto
            return
          </CharString>
          <CharString index="43">
            rmoveto
            34 -6 22 -24 -37 vvcurveto
            -39 -28 -25 -47 -4 vhcurveto
            19 15 15 29 34 vvcurveto
            20 -5 20 -10 17 vhcurveto
            return
          </CharString>
          <CharString index="44">
            rmoveto
            -97 112 27 40 126 -152 rlineto
            return
          </CharString>
          <CharString index="45">
            -18 -131 rlineto
            5 -79 -79 2 -77 -4 -5 0 -5 hhcurveto
            222 vlineto
            31 1 83 4 60 11 rrcurveto
            return
          </CharString>
          <CharString index="46">
            195 51 rmoveto
            -1 -1 -1 -1 vvcurveto
            -29 -1 -30 -2 -29 -2 358 611 rcurveline
            26 1 26 1 26 1 rrcurveto
            80 -427 rmoveto
            -42 callgsubr
            1 2 -56 callgsubr
            -12 -11 -9 -12 -2 vhcurveto
            -12 -61 -5 -62 -1 -67 rrcurveto
            2 -52 -52 1 -52 hhcurveto
            -48 -48 0 -2 -48 hvcurveto
            356 621 rlineto
            3 4 1 5 4 vvcurveto
            14 -11 11 -15 1 vhcurveto
            0 -1 0 0 vhcurveto
            return
          </CharString>
          <CharString index="47">
            -228 325 52 14 57 callgsubr
            367 11 callgsubr
            -40 -13 -40 -2 -36 1 rrcurveto
            hintmask 01000000
            -55 1 -47 10 -24 3 rrcurveto
            hintmask 00100000
            -62 callgsubr
            -9 13 -3 hvcurveto
            hintmask 10000000
            -11 44 39 -5 45 hhcurveto
            43 50 6 10 35 hvcurveto
            13 4 9 8 13 vvcurveto
            endchar
          </CharString>
          <CharString index="48">
            -54 callsubr
            15 566 rcurveline
            78 -137 192 -337 54 -133 rrcurveto
            -10 4 9 -6 10 hhcurveto
            12 10 8 14 4 hvcurveto
            14 115 12 120 128 vvcurveto
            94 -6 98 -17 102 vhcurveto
            23 3 22 5 22 6 rrcurveto
            11 3 7 11 11 vvcurveto
            return
          </CharString>
          <CharString index="49">
            -11 2 -12 2 -11 1 rrcurveto
            335 vlineto
            -7 callsubr
            -7 -6 -3 -4 -5 vhcurveto
            -53 -53 -85 -61 -1 hhcurveto
            -7 -5 -4 -8 -8 vvcurveto
            -26 callgsubr
            5 5 2 3 5 vhcurveto
            return
          </CharString>
          <CharString index="50">
            13 -76 callgsubr
            -13 return
          </CharString>
          <CharString index="51">
            -42 34 -33 41 return
          </CharString>
          <CharString index="52">
            13 -3 callgsubr
            return
          </CharString>
          <CharString index="53">
            23 callsubr
            12 14 10 15 -27 callsubr
            -26 2 -26 2 -25 2 return
          </CharString>
          <CharString index="54">
            vlineto
            -150 89 -32 75 81 58 50 86 19 vhcurveto
            98 callgsubr
            12 -10 14 -15 -12 -11 -8 -12 -2 vhcurveto
            return
          </CharString>
          <CharString index="55">
            13 -12 13 -14 return
          </CharString>
          <CharString index="56">
            271 rmoveto
            -113 -45 -116 -104 -84 -69 81 114 148 106 46 104 26 25 -4 -7 23 vhcurveto
            11 -49 7 -36 -64 vvcurveto
            117 -23 rmoveto
            -7 -91 -47 -79 -93 -35 rrcurveto
            52 51 29 74 103 vvcurveto
            190 -56 104 -50 73 vhcurveto
            11 -7 11 -9 12 -10 rrcurveto
            90 -79 48 -112 -172 0 0 0 -1 vvcurveto
            return
          </CharString>
          <CharString index="57">
            264 28 rmoveto
            -50 2 -53 19 109 vvcurveto
            482 vlineto
            70 20 rlineto
            -560 vlineto
            -28 12 -26 21 -18 vhcurveto
            return
          </CharString>
          <CharString index="58">
            vvcurveto
            -68 59 -71 74 70 65 55 76 21 vhcurveto
            return
          </CharString>
          <CharString index="59">
            -2 -24 -59 callgsubr
            return
          </CharString>
          <CharString index="60">
            79 51 -75 -82 1 hvcurveto
            -1 111 callgsubr
            84 89 59 75 45 hvcurveto
            148 334 rmoveto
            -40 -51 -20 -58 -104 vvcurveto
            -72 14 -57 28 -42 vhcurveto
            -68 36 -42 71 82 vvcurveto
            91 -22 71 -76 43 vhcurveto
            -1 hlineto
            2 1 1 1 hhcurveto
            69 35 -43 -40 24 hvcurveto
            21 31 34 26 40 15 rrcurveto
            return
          </CharString>
          <CharString index="61">
            21 20 0 -1 21 hvcurveto
            -595 vlineto
            -21 -1 -21 -1 -21 -2 rrcurveto
            return
          </CharString>
          <CharString index="62">
            -42 callsubr
            vvcurveto
            return
          </CharString>
          <CharString index="63">
            13 callsubr
            -10 -68 -68 -4 -66 hhcurveto
            -40 -39 1 4 -39 hvcurveto
            -2 callgsubr
            -12 -14 -10 -16 -13 10 -11 13 -1 hvcurveto
            25 -2 24 -2 25 -1 16 -601 rcurveline
            -25 -2 -26 -2 -26 -59 callgsubr
            -13 10 -12 15 vhcurveto
            -90 callgsubr
            return
          </CharString>
          <CharString index="64">
            -50 -31 51 -21 -21 22 -21 24 51 152 37 callsubr
            return
          </CharString>
          <CharString index="65">
            -10 -11 -13 return
          </CharString>
          <CharString index="66" raw="1">
            471d1e0b   
          </CharString>
          <CharString index="67">
            2 1 -1 2 hhcurveto
            12 14 11 15 12 -8 11 -12 2 hvcurveto
            return
          </CharString>
          <CharString index="68">
            -42 callgsubr
            1 1 hvcurveto
            9 54 56 4 56 hhcurveto
            57 58 -4 -9 59 hvcurveto
            return
          </CharString>
          <CharString index="69">
            14 -11 12 -14 vhcurveto
            -7 callgsubr
            return
          </CharString>
          <CharString index="70">
            -13 11 -13 14 13 11 10 12 2 vhcurveto
            6 46 17 46 25 44 rrcurveto
            3 4 1 4 5 vvcurveto
            return
          </CharString>
          <CharString index="71">
            1 1 0 return
          </CharString>
          <CharString index="72">
            7 97 98 3 99 hhcurveto
            53 54 -1 -2 53 hvcurveto
            0 0 0 1 14 10 11 15 1 vhcurveto
            3 0 3 3 vvcurveto
            48 5 44 10 43 vhcurveto
            return
          </CharString>
          <CharString index="73">
            345 444 rmoveto
            -37 -15 -25 -20 -17 vhcurveto
            7 18 4 20 21 vvcurveto
            69 -49 46 -68 17 vhcurveto
            5 4 rlineto
            31 -4 105 -21 -91 vvcurveto
            51 hmoveto
            90 -68 46 -63 20 vhcurveto
            76 54 rlineto
            7 5 4 8 8 vvcurveto
            14 -1 callsubr
            vhcurveto
            -241 hlineto
            61 callsubr
            hvcurveto
            return
          </CharString>
          <CharString index="74">
            186 56 rmoveto
            -29 -1 -28 -1 -28 -2 279 413 rcurveline
            28 1 28 1 29 1 rrcurveto
            82 -293 rmoveto
            1 117 callsubr
            return
          </CharString>
          <CharString index="75">
            408 265 rmoveto
            -26 4 -43 -205 -130 hhcurveto
            -95 -51 89 95 -1 hvcurveto
            101 45 135 132 58 61 -27 -59 20 vhcurveto
            return
          </CharString>
          <CharString index="76">
            -18 -131 rlineto
            5 -79 -79 2 -77 hhcurveto
            -14 222 hlineto
            31 1 83 4 60 11 rrcurveto
            return
          </CharString>
          <CharString index="77">
            243 63 rmoveto
            84 callgsubr
            -12 -12 0 -1 -12 hvcurveto
            121 callsubr
            0 3 21 hvcurveto
            276 -95 rmoveto
            -19 -16 -17 -20 -20 -16 17 19 20 16 75 callgsubr
            -16 -20 vhcurveto
            -36 -87 rmoveto
            55 35 50 53 hvcurveto
            return
          </CharString>
          <CharString index="78">
            -28 3 -28 2 -29 1 rrcurveto
            257 vlineto
            24 28 77 106 59 208 32 1 32 3 32 5 rrcurveto
            12 2 10 11 12 vvcurveto
            return
          </CharString>
          <CharString index="79">
            hvcurveto
            -90 callgsubr
            11 15 9 16 -27 callsubr
            return
          </CharString>
          <CharString index="80">
            110 callsubr
            2 hvcurveto
            return
          </CharString>
          <CharString index="81">
            47 47 61 callgsubr
            2 2 0 1 hhcurveto
            12 14 11 14 12 -9 11 -12 3 hvcurveto
            -24 4 -23 4 -23 2 1 217 rcurveline
            7 17 154 112 29 22 -7 -13 17 vhcurveto
            -3 -3 1 -3 hhcurveto
            -48 -39 -40 -48 -48 39 -39 48 hvcurveto
            return
          </CharString>
          <CharString index="82">
            -77 19 -147 18 -9 108 rrcurveto
            84 2 73 33 79 hhcurveto
            79 130 -49 -36 12 hvcurveto
            -10 -34 -7 -34 -4 -34 rrcurveto
            -1 0 -1 -1 vvcurveto
            -11 11 -14 15 -4 callgsubr
            1 vhcurveto
            9 72 22 71 34 70 rrcurveto
            2 4 1 3 4 vvcurveto
            return
          </CharString>
          <CharString index="83">
            rmoveto
            0 43 -296 -108 vvcurveto
            -104 -66 -58 -40 -26 vhcurveto
            30 39 15 53 63 vvcurveto
            130 -48 225 -3 73 vhcurveto
            23 2 23 3 23 4 rrcurveto
            152 54 rmoveto
            13 -10 12 -15 -2 -3 88 callsubr
            -101 -27 -106 -15 -107 -1 rrcurveto
            return
          </CharString>
          <CharString index="84">
            1 10 11 13 vvcurveto
            return
          </CharString>
          <CharString index="85">
            -31 -31 11 -36 -3 -2 0 -2 hhcurveto
            12 8 13 7 14 7 rrcurveto
            75 41 84 52 99 vvcurveto
            86 -85 53 -84 -68 -93 -39 -82 -58 36 -28 21 -8 vhcurveto
            -1 3 3 -1 3 hhcurveto
            12 13 10 16 10 -6 10 -10 4 hvcurveto
            return
          </CharString>
          <CharString index="86">
            -2 29 28 -1 28 hhcurveto
            -375 vlineto
            -26 -2 -25 -4 -25 -5 rrcurveto
            -13 -2 -8 -11 116 callgsubr
            return
          </CharString>
          <CharString index="87">
            -274 -21 96 0 callgsubr
            return
          </CharString>
          <CharString index="88">
            786 258 rmoveto
            -19 -42 -49 -11 -55 hhcurveto
            -52 -44 11 6 -21 hvcurveto
            3 76 18 117 103 12 rrcurveto
            99 -14 40 -72 -98 -3 126 callgsubr
            -423 -102 rmoveto
            -72 -41 -65 -64 -93 hhcurveto
            -30 -39 14 37 hvcurveto
            return
          </CharString>
          <CharString index="89">
            127 153 66 156 54 -19 40 -24 28 hvcurveto
            29 -1 30 -2 34 -6 rrcurveto
            -1 70 callgsubr
            return
          </CharString>
          <CharString index="90">
            355 rmoveto
            -5 -5 0 -5 -4 -5 0 -4 hhcurveto
            250 vlineto
            9 7 10 8 9 8 rrcurveto
            81 -332 rmoveto
            return
          </CharString>
          <CharString index="91">
            -13 -13 -11 -14 -13 10 -11 13 -2 hvcurveto
            return
          </CharString>
          <CharString index="92">
            13 1 9 11 13 vvcurveto
            return
          </CharString>
          <CharString index="93">
            -25 -7 -10 -43 -35 hhcurveto
            -23 -24 19 26 hvcurveto
            return
          </CharString>
          <CharString index="94">
            15 -47 callgsubr
            return
          </CharString>
          <CharString index="95">
            -4 callgsubr
            2 return
          </CharString>
          <CharString index="96">
            -91 callgsubr
            116 -438 rmoveto
            12 14 11 -13 callsubr
            return
          </CharString>
          <CharString index="97">
            rmoveto
            -26 -14 -35 -33 -30 -12 30 28 23 10 37 30 28 21 -29 -28 vhcurveto
            83 -3 rmoveto
            -52 -33 -18 -26 -6 vhcurveto
            17 20 10 27 32 vvcurveto
            27 -10 27 -17 20 vhcurveto
            31 -8 28 -23 -46 vvcurveto
            return
          </CharString>
          <CharString index="98">
            14 -11 10 -14 2 vhcurveto
            -129 3 return
          </CharString>
          <CharString index="99">
            -13 10 -12 118 callgsubr
            0 return
          </CharString>
          <CharString index="100">
            13 -10 13 -15 return
          </CharString>
          <CharString index="101">
            27 -21 51 -37 47 -30 -21 459 49 -49 62 return
          </CharString>
          <CharString index="102">
            -12 callsubr
            hvcurveto
            return
          </CharString>
          <CharString index="103">
            13 13 12 14 return
          </CharString>
          <CharString index="104">
            -79 callgsubr
            -13 return
          </CharString>
          <CharString index="105">
            rmoveto
            442 66 -442 vlineto
            52 468 rmoveto
            14 -12 11 -14 vhcurveto
            -117 hlineto
            -15 -11 -11 -14 hvcurveto
            -494 2 callsubr
            return
          </CharString>
          <CharString index="106">
            -11 12 -15 return
          </CharString>
          <CharString index="107">
            -78 -75 3 5 -74 97 callgsubr
            -10 -13 -2 hvcurveto
            -5 -60 -11 -61 -18 -59 rrcurveto
            -3 -1 -2 -3 vvcurveto
            -12 11 -13 15 11 10 7 11 4 vhcurveto
            return
          </CharString>
          <CharString index="108">
            -14 11 -12 return
          </CharString>
          <CharString index="109">
            vlineto
            1 callsubr
            15 vhcurveto
            117 hlineto
            14 12 12 14 hvcurveto
            return
          </CharString>
          <CharString index="110">
            rmoveto
            -38 callsubr
            return
          </CharString>
          <CharString index="111">
            -24 5 -23 3 -23 3 return
          </CharString>
          <CharString index="112">
            -2 -1 -1 hhcurveto
            return
          </CharString>
          <CharString index="113">
            -13 10 -13 -13 callgsubr
            0 2 0 4 55 74 -19 -69 -56 -44 -34 -57 -36 -42 21 43 7 1 7 2 7 vhcurveto
            98 callgsubr
            return
          </CharString>
          <CharString index="114">
            -45 46 -109 5 -12 vhcurveto
            -10 4 9 -6 10 hhcurveto
            11 9 6 10 4 hvcurveto
            return
          </CharString>
          <CharString index="115">
            45 -7 42 -4 40 -2 rrcurveto
            -171 vlineto
            -14 72 callgsubr
            117 hlineto
            15 11 12 14 hvcurveto
            171 vlineto
            41 2 42 4 44 7 rrcurveto
            return
          </CharString>
          <CharString index="116">
            rmoveto
            48 -39 39 -48 -48 -39 -39 -48 -48 39 -39 48 48 39 39 48 vhcurveto
            return
          </CharString>
          <CharString index="117">
            rmoveto
            -40 -40 -21 -68 -96 vvcurveto
            -425 vlineto
            1 -11 -11 0 -11 hhcurveto
            -12 -12 0 -1 -12 hvcurveto
            440 vlineto
            86 38 81 92 22 vhcurveto
            return
          </CharString>
          <CharString index="118">
            -1 -98 callgsubr
            3 return
          </CharString>
          <CharString index="119">
            -55 callsubr
            -9 -9 -5 -9 -5 vhcurveto
            -12 -25 -11 -24 -9 -25 rrcurveto
            return
          </CharString>
          <CharString index="120">
            14 -1 callsubr
            vhcurveto
            -1 -1 -51 callgsubr
            return
          </CharString>
          <CharString index="121">
            rrcurveto
            -12 -3 -8 -10 -12 vvcurveto
            return
          </CharString>
          <CharString index="122">
            9 50 45 4 40 hhcurveto
            45 40 -5 -4 39 hvcurveto
            return
          </CharString>
          <CharString index="123">
            12 14 10 16 13 -10 88 callgsubr
            2 -17 -17 0 -17 hhcurveto
            return
          </CharString>
          <CharString index="124">
            15 55 12 55 6 55 rrcurveto
            -4 67 69 -2 70 20 21 0 20 hhcurveto
            -366 -626 rlineto
            -2 -4 -2 -4 -5 vvcurveto
            return
          </CharString>
          <CharString index="125">
            vlineto
            42 1 42 3 42 3 rrcurveto
            return
          </CharString>
          <CharString index="126">
            rrcurveto
            4 -19 -19 2 -20 hhcurveto
            -142 -119 -101 -145 -161 102 -94 159 156 105 135 154 return
          </CharString>
          <CharString index="127">
            61 61 -1 -3 60 hvcurveto
            71 callsubr
            hhcurveto
            13 12 12 14 hvcurveto
            4 0 4 4 vvcurveto
            69 6 64 11 61 vhcurveto
            return
          </CharString>
          <CharString index="128">
            -194 -159 -143 -177 -176 159 -143 194 168 186 125 194 vhcurveto
            endchar
          </CharString>
          <CharString index="129">
            2 1 -1 2 hhcurveto
            11 14 9 17 12 -8 11 -12 2 hvcurveto
            return
          </CharString>
          <CharString index="130">
            52 52 -3 -5 52 hvcurveto
            -36 callsubr
            0 hvcurveto
            return
          </CharString>
          <CharString index="131">
            hhcurveto
            -5 callsubr
            return
          </CharString>
          <CharString index="132">
            6 79 82 3 84 hhcurveto
            return
          </CharString>
          <CharString index="133">
            -61 callgsubr
            2 1 10 16 vvcurveto
            142 -67 88 -154 6 vhcurveto
            return
          </CharString>
          <CharString index="134">
            51 -38 -21 669 56 18 58 callsubr
            51 return
          </CharString>
          <CharString index="135">
            65 -51 51 -40 -21 25 -21 22 -21 423 52 -35 51 return
          </CharString>
          <CharString index="136">
            42 callgsubr
            -1 -1 -51 callgsubr
            return
          </CharString>
          <CharString index="137">
            85 -61 54 -88 3 vhcurveto
            -59 -42 -29 -39 -28 hvcurveto
            35 vlineto
            69 callgsubr
            51 callsubr
            return
          </CharString>
          <CharString index="138">
            52 -36 186 131 192 -51 51 return
          </CharString>
          <CharString index="139">
            rmoveto
            -54 callgsubr
            return
          </CharString>
          <CharString index="140">
            51 70 51 -51 246 return
          </CharString>
          <CharString index="141">
            7 -5 -8 4 -8 hhcurveto
            return
          </CharString>
          <CharString index="142">
            -51 59 75 -24 82 hhcurveto
            91 126 57 111 hvcurveto
            return
          </CharString>
          <CharString index="143">
            -58 -286 61 26 51 72 51 485 51 7 -20 return
          </CharString>
          <CharString index="144">
            51 -5 247 -85 85 -51 51 return
          </CharString>
          <CharString index="145">
            rrcurveto
            -1 -3 -1 -3 -3 vvcurveto
            return
          </CharString>
          <CharString index="146">
            88 28 61 75 95 vvcurveto
            180 -164 28 -191 9 vhcurveto
            -199 -97 -31 -2 -4 hvcurveto
            return
          </CharString>
          <CharString index="147">
            vlineto
            -12 12 -14 14 4 4 1 3 4 vhcurveto
            118 64 rlineto
            8 4 5 9 9 vvcurveto
            return
          </CharString>
          <CharString index="148">
            78 callsubr
            13 hvcurveto
            return
          </CharString>
          <CharString index="149">
            51 -51 150 64 51 -51 149 return
          </CharString>
          <CharString index="150">
            0 1 0 1 vhcurveto
            return
          </CharString>
          <CharString index="151">
            -4 1 -4 -7 vvcurveto
            -37 -15 -81 -52 -61 -3 159 40 16 1 16 1 15 vhcurveto
            return
          </CharString>
          <CharString index="152">
            32 32 -11 35 hhcurveto
            47 31 25 1 1 hvcurveto
            6 6 3 7 7 vvcurveto
            endchar
          </CharString>
          <CharString index="153">
            1 2 1 1 hhcurveto
            6 36 37 4 41 hhcurveto
            return
          </CharString>
          <CharString index="154">
            1 67 19 83 hhcurveto
            15 16 -1 -1 16 hvcurveto
            return
          </CharString>
          <CharString index="155">
            -13 80 callsubr
            return
          </CharString>
          <CharString index="156">
            63 -63 231 hstemhm
            return
          </CharString>
          <CharString index="157">
            2 2 -1 1 hhcurveto
            return
          </CharString>
          <CharString index="158">
            90 callgsubr
            vhcurveto
            return
          </CharString>
          <CharString index="159">
            60 callsubr
            306 51 219 -20 hstemhm
            -3 164 -52 52 return
          </CharString>
          <CharString index="160">
            rlineto
            1 4 8 5 vvcurveto
            13 -10 13 -16 -9 -7 -3 -8 -4 vhcurveto
            -10 -14 return
          </CharString>
          <CharString index="161">
            1 callsubr
            15 vhcurveto
            -36 callsubr
            return
          </CharString>
          <CharString index="162">
            -13 72 callgsubr
            -42 callgsubr
            return
          </CharString>
          <CharString index="163">
            hstemhm
            21 160 -51 51 69 52 return
          </CharString>
          <CharString index="164">
            2 99 callgsubr
            return
          </CharString>
          <CharString index="165">
            50 callgsubr
            68 return
          </CharString>
          <CharString index="166">
            9 40 39 5 40 hhcurveto
            return
          </CharString>
          <CharString index="167">
            52 -52 79 -79 167 return
          </CharString>
          <CharString index="168">
            -14 -12 -12 -14 return
          </CharString>
          <CharString index="169">
            -22 callgsubr
            9 41 40 5 40 hhcurveto
            41 40 -5 -9 42 hvcurveto
            return
          </CharString>
          <CharString index="170">
            -5 50 52 -2 54 hhcurveto
            53 54 2 5 53 hvcurveto
            -2 -62 -1 -67 -71 return
          </CharString>
          <CharString index="171">
            -13 11 -12 -13 callgsubr
            return
          </CharString>
          <CharString index="172">
            55 callsubr
            2 hhcurveto
            return
          </CharString>
          <CharString index="173">
            11 15 8 17 13 -9 10 -13 2 hvcurveto
            return
          </CharString>
          <CharString index="174">
            -2 -1 0 -2 hhcurveto
            return
          </CharString>
          <CharString index="175">
            5 2 5 6 vvcurveto
            return
          </CharString>
          <CharString index="176">
            0 -1 0 -1 vhcurveto
            return
          </CharString>
          <CharString index="177">
            52 47 51 hstemhm
            return
          </CharString>
          <CharString index="178">
            1 0 0 1 return
          </CharString>
          <CharString index="179">
            210 -26 46 -30 -21 207 52 -22 51 157 89 -55 55 return
          </CharString>
          <CharString index="180">
            -13 -2 -9 -11 -13 vvcurveto
            -13 11 -12 14 vhcurveto
            2 1 0 1 hhcurveto
            return
          </CharString>
          <CharString index="181">
            -42 callgsubr
            2 return
          </CharString>
          <CharString index="182">
            -80 75 99 -43 114 hhcurveto
            122 144 82 142 hvcurveto
            return
          </CharString>
          <CharString index="183">
            95 callgsubr
            13 -14 -1 -1 -1 0 vhcurveto
            return
          </CharString>
          <CharString index="184">
            65 -65 223 452 51 hstemhm
            38 153 -52 52 67 55 return
          </CharString>
          <CharString index="185">
            61 callsubr
            -14 11 -11 return
          </CharString>
          <CharString index="186">
            -20 hstemhm
            139 51 68 52 return
          </CharString>
          <CharString index="187">
            1 12 -10 15 hhcurveto
            13 return
          </CharString>
          <CharString index="188">
            60 67 52 -52 140 return
          </CharString>
          <CharString index="189">
            51 26 52 192 51 return
          </CharString>
          <CharString index="190">
            116 51 71 51 return
          </CharString>
          <CharString index="191">
            -2 -2 -51 callgsubr
            return
          </CharString>
          <CharString index="192">
            0 1 1 vvcurveto
            return
          </CharString>
          <CharString index="193">
            52 17 -20 hstemhm
            36 10 callgsubr
            return
          </CharString>
          <CharString index="194">
            -24 -4 14 callsubr
            -14 9 -12 16 vhcurveto
            return
          </CharString>
          <CharString index="195">
            0 -1 -2 vhcurveto
            return
          </CharString>
          <CharString index="196">
            14 11 12 14 return
          </CharString>
          <CharString index="197">
            34 41 vhcurveto
            endchar
          </CharString>
          <CharString index="198">
            -55 callgsubr
            -56 callsubr
            5 4 0 1 5 return
          </CharString>
          <CharString index="199">
            33 2 33 5 36 7 rrcurveto
            11 3 9 10 18 vvcurveto
            return
          </CharString>
          <CharString index="200">
            rrcurveto
            -5 -54 -54 -2 -54 hhcurveto
            -53 -53 2 6 -48 hvcurveto
            return
          </CharString>
          <CharString index="201">
            -95 28 64 -121 116 hhcurveto
            return
          </CharString>
          <CharString index="202">
            17 11 51 -45 -21 462 51 return
          </CharString>
          <CharString index="203">
            hvcurveto
            -36 callsubr
            0 hvcurveto
            13 12 return
          </CharString>
          <CharString index="204">
            -12 10 -14 15 vhcurveto
            return
          </CharString>
          <CharString index="205">
            -1 -2 -51 callgsubr
            return
          </CharString>
          <CharString index="206">
            -33 59 618 52 return
          </CharString>
          <CharString index="207">
            -11 -47 -43 -5 -41 hhcurveto
            -27 -26 2 5 -26 hvcurveto
            return
          </CharString>
          <CharString index="208">
            -203 rmoveto
            -10 -11 1 -11 -13 -13 -1 -13 hhcurveto
            return
          </CharString>
          <CharString index="209">
            rmoveto
            76 -15 148 -26 -108 vvcurveto
            -12 -2 -12 return
          </CharString>
          <CharString index="210">
            -13 11 -12 14 vhcurveto
            2 1 0 1 hhcurveto
            7 45 return
          </CharString>
          <CharString index="211">
            52 70 51 -51 200 return
          </CharString>
          <CharString index="212">
            51 185 51 76 44 return
          </CharString>
          <CharString index="213">
            6 50 50 2 52 hhcurveto
            return
          </CharString>
          <CharString index="214">
            -21 96 0 callgsubr
            hstem
            return
          </CharString>
          <CharString index="215">
            13 65 66 7 67 hhcurveto
            return
          </CharString>
          <CharString index="216">
            -13 -1 vhcurveto
            -1 return
          </CharString>
          <CharString index="217">
            13 -10 11 -13 return
          </CharString>
          <CharString index="218">
            -20 181 -150 -21 29 -21 112 51 return
          </CharString>
          <CharString index="219">
            175 -5 51 -38 -21 26 -21 292 51 return
          </CharString>
          <CharString index="220">
            58 callsubr
            52 return
          </CharString>
          <CharString index="221">
            -20 81 callgsubr
            return
          </CharString>
          <CharString index="222">
            3 vhcurveto
            78 227 rlineto
            1 return
          </CharString>
          <CharString index="223">
            -52 104 callsubr
            return
          </CharString>
          <CharString index="224">
            2 0 2 2 vvcurveto
            return
          </CharString>
          <CharString index="225">
            vlineto
            41 -3 42 -4 41 -6 rrcurveto
            4 hlineto
            return
          </CharString>
          <CharString index="226">
            34 callgsubr
            70 51 72 51 return
          </CharString>
          <CharString index="227">
            -20 hstemhm
            133 33 callsubr
            return
          </CharString>
          <CharString index="228">
            359 vlineto
            -78 callsubr
            23 23 return
          </CharString>
          <CharString index="229">
            rrcurveto
            1 1 1 1 vvcurveto
            15 -12 11 -14 return
          </CharString>
          <CharString index="230">
            -14 -11 -12 -14 -14 12 -12 14 1 hvcurveto
            return
          </CharString>
          <CharString index="231">
            49 8 -20 hstemhm
            return
          </CharString>
          <CharString index="232">
            8 -4 8 hhcurveto
            return
          </CharString>
        <CharString name=".notdef">
          -362 endchar
        </CharString>
        <CharString name="A">
          4 19 callgsubr
          483 -20 hstemhm
          hintmask 10011000
          489 -101 callsubr
          hintmask 01011000
          148 -65 rmoveto
          -99 callsubr
          hintmask 00111000
          -22 callgsubr
          hintmask 10011000
          59 callsubr
          hintmask 00111000
          58 callgsubr
          hintmask 01011000
          -40 callsubr
          hintmask 10011000
          -95 callsubr
          hintmask 01011000
          71 callgsubr
          vhcurveto
          hintmask 00111000
          -39 callsubr
          hintmask 01011000
          -1 -78 callsubr
          endchar
        </CharString>
        <CharString name="AE">
          44 callgsubr
          20 -20 hstemhm
          495 33 callsubr
          hintmask 0000111010100000
          432 42 rmoveto
          -14 5 callgsubr
          -15 11 -10 15 -1 vhcurveto
          2 hlineto
          hintmask 0100001010100000
          25 callsubr
          hintmask 0000111010100000
          84 85 -3 -6 87 hvcurveto
          1 hlineto
          -5 callsubr
          21 155 rlineto
          4 vlineto
          hintmask 0100001010100000
          -45 callgsubr
          -13 -2 vhcurveto
          hintmask 1000011011000000
          -31 callsubr
          hintmask 1000011010100000
          -49 callgsubr
          -5 hlineto
          hintmask 1000011011000000
          6 callgsubr
          hintmask 0010010110100000
          -21 callgsubr
          hintmask 0001011010100000
          62 callsubr
          hintmask 0010011010100000
          -69 callgsubr
          endchar
        </CharString>
        <CharString name="AEacute">
          44 callgsubr
          313 -20 hstemhm
          495 33 callsubr
          hintmask 0000111110100000
          432 42 rmoveto
          -14 5 callgsubr
          -15 11 -10 15 -1 vhcurveto
          2 hlineto
          hintmask 0100001110100000
          25 callsubr
          hintmask 0000111110100000
          84 85 -3 -6 87 hvcurveto
          1 hlineto
          -5 callsubr
          21 155 rlineto
          4 vlineto
          hintmask 0100001110100000
          -45 callgsubr
          -13 -2 vhcurveto
          hintmask 1000011111000000
          -31 callsubr
          hintmask 1000011110100000
          -49 callgsubr
          -5 hlineto
          hintmask 0010011111000000
          6 callgsubr
          -21 callgsubr
          hintmask 0001011110100000
          62 callsubr
          hintmask 0010011110100000
          -69 callgsubr
          74 221 rmoveto
          48 90 rlineto
          52 hlineto
          93 26 rmoveto
          13 -1 callsubr
          vhcurveto
          -134 hlineto
          -10 -8 -5 -8 -5 hvcurveto
          -124 -232 rlineto
          -2 -3 -1 -5 -4 vvcurveto
          -13 11 -12 15 6 6 2 4 5 vhcurveto
          258 231 rlineto
          6 5 3 7 8 vvcurveto
          endchar
        </CharString>
        <CharString name="Aacute">
          405 196 65 194 endchar
        </CharString>
        <CharString name="Abreve">
          4 19 callgsubr
          512 49 callsubr
          243 51 hintmask 10011010
          489 -101 callsubr
          hintmask 01011010
          148 -65 rmoveto
          -99 callsubr
          hintmask 00111010
          -22 callgsubr
          hintmask 10011010
          59 callsubr
          hintmask 00111010
          58 callgsubr
          hintmask 01011010
          -40 callsubr
          hintmask 10011010
          -95 callsubr
          hintmask 01011010
          71 callgsubr
          vhcurveto
          hintmask 00111010
          -39 callsubr
          hintmask 01010110
          -1 -78 callsubr
          -299 949 -100 callgsubr
          hintmask 10011010
          -87 callsubr
          hintmask 10010110
          -94 callgsubr
        </CharString>
        <CharString name="Acircumflex">
          231 168 65 195 endchar
        </CharString>
        <CharString name="Adieresis">
          160 4 19 callgsubr
          466 70 callsubr
          231 52 -52 150 64 51 -51 149 hintmask 1001111010000000
          489 -101 callsubr
          hintmask 0101111010000000
          148 -65 rmoveto
          -99 callsubr
          hintmask 0011111010000000
          -22 callgsubr
          hintmask 1001111010000000
          59 callsubr
          hintmask 0011111010000000
          58 callgsubr
          hintmask 0101111010000000
          -40 callsubr
          hintmask 1001111010000000
          -95 callsubr
          hintmask 0101111010000000
          71 callgsubr
          vhcurveto
          hintmask 0011111010000000
          -39 callsubr
          hintmask 0101110110000000
          -1 -78 callsubr
          -493 799 rmoveto
          -13 -10 -10 -13 -13 -11 10 13 13 11 11 13 13 10 -11 -13 vhcurveto
          214 hmoveto
          -13 -11 -10 -13 -13 -10 10 13 -57 callsubr
          vhcurveto
          -162 hmoveto
          41 -34 34 -41 -41 -34 -34 -41 -41 34 -34 41 41 34 34 41 vhcurveto
          hintmask 1001111001000000
          213 hmoveto
          41 -33 34 -42 -41 -33 -34 -41 -41 33 -34 41 42 33 90 callsubr
        </CharString>
        <CharString name="Agrave">
          97 199 65 193 endchar
        </CharString>
        <CharString name="Amacron">
          239 134 65 197 endchar
        </CharString>
        <CharString name="Aogonek">
          -283 51 15 51 170 19 callgsubr
          483 -20 hstemhm
          480 52 20 52 hintmask 1100111110000000
          769 -152 -91 callsubr
          40 21 26 36 23 hvcurveto
          0 1 0 1 vvcurveto
          51 -1 52 -4 53 -8 rrcurveto
          hintmask 1101011110000000
          -1 -78 callsubr
          -99 callsubr
          hintmask 1100111110000000
          -22 callgsubr
          hintmask 1110011110000000
          59 callsubr
          hintmask 1100111110000000
          58 callgsubr
          hintmask 1101011110000000
          -40 callsubr
          hintmask 1110011110000000
          -95 callsubr
          hintmask 1101011110000000
          71 callgsubr
          vhcurveto
          hintmask 1100111110000000
          -42 callgsubr
          1 1 hvcurveto
          27 5 28 3 29 2 rrcurveto
          -45 -36 -37 -49 -59 -49 callsubr
          -280 409 rmoveto
          -6 -49 -46 -4 -47 hhcurveto
          -47 -48 4 6 -52 hvcurveto
          37 97 48 98 60 102 33 -48 63 -102 48 -147 rrcurveto
          185 -203 rmoveto
          hintmask 1110011110000000
          1 -10 -10 0 -10 -14 -14 -1 -13 hhcurveto
          -7 30 -18 64 -42 130 -56 170 -77 115 -29 39 38 59 rcurveline
          118 -160 86 -199 58 -248 rrcurveto
          -13 -271 -5 callgsubr
          -75 callsubr
          endchar
        </CharString>
        <CharString name="Aring">
          161 4 19 callgsubr
          625 75 hstemhm
          262 51 106 51 43 52 hintmask 10011111
          490 -101 callsubr
          -256 742 -95 callgsubr
          -61 33 -54 52 -25 vhcurveto
          -136 -212 -82 -193 -41 -195 -31 -2 -30 -4 -29 -7 14 callsubr
          hintmask 01011111
          1 callsubr
          15 vhcurveto
          hintmask 00111111
          -22 callgsubr
          hintmask 10011111
          59 callsubr
          hintmask 00111111
          58 callgsubr
          hintmask 01011111
          -40 callsubr
          hintmask 10011111
          -95 callsubr
          hintmask 01011111
          71 callgsubr
          vhcurveto
          hintmask 00111111
          -39 callsubr
          hintmask 01011111
          -1 -78 callsubr
          12 14 12 14 12 -9 11 -13 2 hvcurveto
          -33 5 -33 4 -33 3 -55 241 -81 197 -111 162 rrcurveto
          52 23 32 51 67 vvcurveto
          endchar
        </CharString>
        <CharString name="Atilde">
          160 4 19 callgsubr
          484 52 34 51 23 51 19 51 hstemhm
          543 59 hintmask 1001111110000000
          489 -101 callsubr
          hintmask 0101111110000000
          148 -65 rmoveto
          -99 callsubr
          hintmask 0011111110000000
          -22 callgsubr
          hintmask 1001111110000000
          59 callsubr
          hintmask 0011111110000000
          58 callgsubr
          hintmask 0101111110000000
          -40 callsubr
          hintmask 1001111110000000
          -95 callsubr
          hintmask 0101111110000000
          71 callgsubr
          vhcurveto
          hintmask 0011111110000000
          -39 callsubr
          hintmask 0101111110000000
          -1 -78 callsubr
          -281 835 -84 callgsubr
        </CharString>
        <CharString name="B">
          55 -28 51 274 52 328 51 hstemhm
          48 129 -52 52 69 51 261 52 18 51 hintmask 11110111
          246 25 rmoveto
          -24 2 -21 2 -18 2 -1 98 -8 375 3 166 21 3 23 2 25 1 rrcurveto
          79 -379 rmoveto
          82 151 -15 -119 -109 -113 -31 -125 hvcurveto
          -2 -2 0 -19 hhcurveto
          273 vlineto
          8 9 1 11 hhcurveto
          303 213 rmoveto
          -170 -226 9 -105 vhcurveto
          328 vlineto
          118 6 213 -34 -139 vvcurveto
          51 hmoveto
          183 -235 35 -154 -89 -80 -11 -16 -55 vhcurveto
          -11 -4 -7 -10 -11 vvcurveto
          -26 callgsubr
          vhcurveto
          2 2 1 3 hhcurveto
          hintmask 11101111
          13 4 15 4 16 3 -1 -164 6 -344 1 -113 -30 7 -15 7 -1 1 rrcurveto
          1 -3 -4 1 -4 hhcurveto
          hintmask 11110111
          -12 -14 -11 -14 -10 5 -9 9 -4 hvcurveto
          4 -2 74 -37 174 1 rrcurveto
          159 7 137 34 150 vvcurveto
          74 -42 57 -65 24 vhcurveto
          101 17 75 71 104 vvcurveto
          endchar
        </CharString>
        <CharString name="C">
          78 -21 51 643 55 hstem
          50 51 73 51 vstem
          -101 callgsubr
          endchar
        </CharString>
        <CharString name="Cacute">
          78 393 199 67 194 endchar
        </CharString>
        <CharString name="Ccaron">
          78 -21 51 643 55 301 -20 hstem
          50 51 73 51 vstem
          -101 callgsubr
          -82 511 rmoveto
          -126 -152 -27 40 97 112 rlineto
          110 51 rmoveto
          -122 hlineto
          -7 -7 -3 -6 -5 hvcurveto
          -96 -111 -74 109 rlineto
          34 callsubr
          -15 -11 -13 -13 -5 1 -5 3 -4 hvcurveto
          151 -220 rlineto
          -7 4 125 callsubr
          9 7 3 6 5 hvcurveto
          182 220 rlineto
          4 68 callsubr
          15 1 callsubr
          vhcurveto
          endchar
        </CharString>
        <CharString name="Ccedilla">
          77 -300 83 101 57 38 51 -29 -21 693 55 hstemhm
          49 51 73 51 151 51 41 51 hintmask 1101111110000000
          518 -180 55 callgsubr
          17 39 rlineto
          hintmask 1110111110000000
          9 9 -1 9 hhcurveto
          89 91 36 74 60 38 callgsubr
          6 vlineto
          13 -11 13 -14 -12 -10 -8 -12 -3 vhcurveto
          -104 -35 -95 -68 -113 hhcurveto
          -144 -38 196 126 146 59 175 178 62 63 -47 -52 32 hvcurveto
          -31 -91 rlineto
          -1 -2 -1 -3 -3 vvcurveto
          -11 11 -14 15 11 10 6 11 115 callsubr
          2 1 3 3 -56 callgsubr
          -10 -10 -7 -11 -4 vhcurveto
          -27 -77 rlineto
          41 -34 -68 54 -114 hhcurveto
          -172 -201 -97 -297 -187 103 -129 174 -31 hvcurveto
          -28 -68 rlineto
          -1 -3 -1 -4 -3 vvcurveto
          85 callgsubr
          vhcurveto
          3 3 1 6 hhcurveto
          26 16 -28 -26 -32 -13 -15 -35 -19 -19 6 3 -9 hvcurveto
          1 -3 -3 1 -3 hhcurveto
          -12 -14 -12 -14 -7 3 -7 6 -5 hvcurveto
          -32 37 48 -17 46 hhcurveto
          72 61 40 80 hvcurveto
          -250 822 rmoveto
          -63 -66 -32 -92 -132 vvcurveto
          -139 28 -87 55 -67 vhcurveto
          -105 56 -51 78 141 vvcurveto
          171 73 90 95 47 vhcurveto
          143 -755 -64 callsubr
          endchar
        </CharString>
        <CharString name="Ccircumflex">
          78 -21 51 643 55 0 30 271 -20 hstemhm
          50 51 73 51 hintmask 11011100
          -101 callgsubr
          -161 342 -63 callsubr
          hintmask 10111100
          -107 callsubr
        </CharString>
        <CharString name="Cdotaccent">
          78 351 133 67 199 endchar
        </CharString>
        <CharString name="D">
          93 -21 52 629 51 hstemhm
          38 152 -51 51 69 51 345 51 hintmask 11101100
          259 31 rmoveto
          -25 1 -23 2 -21 2 rrcurveto
          615 vlineto
          21 3 23 3 25 2 rrcurveto
          396 -312 rmoveto
          -187 -157 -135 -188 6 vhcurveto
          629 vlineto
          196 12 149 -118 -207 vvcurveto
          51 hmoveto
          243 -172 121 -229 -138 -107 -36 -2 -5 vhcurveto
          -11 -3 -6 -10 -11 vvcurveto
          -13 10 -86 callsubr
          hintmask 11011100
          0 25 9 42 8 vhcurveto
          -598 vlineto
          -36 8 -21 7 0 vvcurveto
          1 -3 -3 1 -3 hhcurveto
          -13 -13 -11 -15 -10 7 -10 10 -4 hvcurveto
          -1 4 84 -31 127 hhcurveto
          228 199 126 242 hvcurveto
          endchar
        </CharString>
        <CharString name="Dcaron">
          93 185 170 68 207 endchar
        </CharString>
        <CharString name="Dcroat">
          -96 callsubr
        </CharString>
        <CharString name="E">
          -3 0 14 callgsubr
          27 -20 hstemhm
          46 138 -51 33 callsubr
          hintmask 0101110100000000
          -88 callsubr
          hintmask 1001110100000000
          -62 callsubr
          hintmask 1001110010000000
          -49 callgsubr
          67 callsubr
          hintmask 1001110100000000
          -54 -10 -78 -5 -32 -1 rrcurveto
          322 vlineto
          77 4 76 6 75 10 18 -139 rcurveline
          -13 2 11 -9 12 hhcurveto
          13 13 10 15 hvcurveto
          1 85 callsubr
          -8 callgsubr
          -2 -1 -51 callgsubr
          -18 -135 -137 -9 -138 hhcurveto
          -23 -23 0 1 -24 hvcurveto
          78 callsubr
          14 -1 hvcurveto
          hintmask 1001101100000000
          -46 callsubr
          hintmask 0011110100000000
          -14 5 callgsubr
          -15 11 -10 15 -1 vhcurveto
          43 callsubr
          hintmask 1001110100000000
          25 callsubr
          hintmask 0011110100000000
          -28 callgsubr
          endchar
        </CharString>
        <CharString name="Eacute">
          -3 292 158 69 194 endchar
        </CharString>
        <CharString name="Ebreve">
          -3 0 14 callgsubr
          34 49 callsubr
          46 138 -51 51 -22 51 41 51 -51 242 hintmask 0101101001000000
          -88 callsubr
          hintmask 1001101001000000
          -62 callsubr
          -49 callgsubr
          67 callsubr
          -54 -10 -78 -5 -32 -1 rrcurveto
          322 vlineto
          77 4 76 6 75 10 18 -139 rcurveline
          -13 2 11 -9 12 hhcurveto
          13 13 10 15 hvcurveto
          1 85 callsubr
          -8 callgsubr
          -2 -1 -51 callgsubr
          -18 -135 -137 -9 -138 hhcurveto
          -23 -23 0 1 -24 hvcurveto
          78 callsubr
          14 -1 hvcurveto
          hintmask 1001100101000000
          -46 callsubr
          hintmask 0011101001000000
          -14 5 callgsubr
          -15 11 -10 15 -1 vhcurveto
          43 callsubr
          hintmask 1001101001000000
          25 callsubr
          hintmask 0011011000100000
          -28 callgsubr
          -160 893 -100 callgsubr
          hintmask 1001100011000000
          -87 callsubr
          hintmask 1001010010100000
          -94 callgsubr
        </CharString>
        <CharString name="Ecaron">
          -3 0 14 callgsubr
          33 -20 291 120 callsubr
          hintmask 0101111100000000
          -88 callsubr
          hintmask 1001111100000000
          -62 callsubr
          hintmask 1001111010000000
          -49 callgsubr
          67 callsubr
          hintmask 0011111100000000
          -54 -10 -78 -5 -32 -1 rrcurveto
          322 vlineto
          77 4 76 6 75 10 18 -139 rcurveline
          -13 2 11 -9 12 hhcurveto
          13 13 10 15 hvcurveto
          1 85 callsubr
          -8 callgsubr
          -2 -1 -51 callgsubr
          -18 -135 -137 -9 -138 hhcurveto
          -23 -23 0 1 -24 hvcurveto
          78 callsubr
          14 -1 hvcurveto
          -46 callsubr
          -14 5 callgsubr
          -15 11 -10 15 -1 vhcurveto
          43 callsubr
          hintmask 1001111100000000
          25 callsubr
          hintmask 0011111100000000
          -28 callgsubr
          -161 933 rmoveto
          -126 -152 -27 40 97 112 rlineto
          110 51 rmoveto
          -122 hlineto
          -7 -7 -3 -6 -5 hvcurveto
          -96 -111 -74 109 rlineto
          34 callsubr
          -15 -11 -13 -13 -5 1 -5 3 -4 hvcurveto
          151 -220 rlineto
          -7 4 125 callsubr
          9 7 3 6 5 hvcurveto
          182 220 rlineto
          4 68 callsubr
          15 1 callsubr
          vhcurveto
          endchar
        </CharString>
        <CharString name="Ecircumflex">
          -3 0 44 -32 -21 655 47 0 39 271 120 callsubr
          hintmask 10101110
          -88 callsubr
          -62 callsubr
          hintmask 10101101
          -49 callgsubr
          67 callsubr
          hintmask 01101110
          -54 -10 -78 -5 -32 -1 rrcurveto
          322 vlineto
          77 4 76 6 75 10 18 -139 rcurveline
          -13 2 11 -9 12 hhcurveto
          13 13 10 15 hvcurveto
          1 85 callsubr
          -8 callgsubr
          -2 -1 -51 callgsubr
          -18 -135 -137 -9 -138 hhcurveto
          -23 -23 0 1 -24 hvcurveto
          78 callsubr
          14 -1 hvcurveto
          -46 callsubr
          -14 5 callgsubr
          -15 11 -10 15 -1 vhcurveto
          43 callsubr
          hintmask 10101110
          25 callsubr
          hintmask 01011101
          -28 callgsubr
          -212 770 -63 callsubr
          -107 callsubr
        </CharString>
        <CharString name="Edieresis">
          -3 153 117 69 200 endchar
        </CharString>
        <CharString name="Edotaccent">
          -3 254 104 69 199 endchar
        </CharString>
        <CharString name="Egrave">
          -3 0 14 callgsubr
          311 120 callsubr
          hintmask 01011110
          -88 callsubr
          hintmask 10011110
          -62 callsubr
          hintmask 10011101
          -49 callgsubr
          67 callsubr
          hintmask 00111110
          -54 -10 -78 -5 -32 -1 rrcurveto
          322 vlineto
          77 4 76 6 75 10 18 -139 rcurveline
          -13 2 11 -9 12 hhcurveto
          13 13 10 15 hvcurveto
          1 85 callsubr
          -8 callgsubr
          -2 -1 -51 callgsubr
          -18 -135 -137 -9 -138 hhcurveto
          -23 -23 0 1 -24 hvcurveto
          78 callsubr
          14 -1 hvcurveto
          -46 callsubr
          -14 5 callgsubr
          -15 11 -10 15 -1 vhcurveto
          43 callsubr
          hintmask 10011110
          25 callsubr
          hintmask 00111110
          -28 callgsubr
          -468 940 -107 callgsubr
        </CharString>
        <CharString name="Emacron">
          -3 158 112 69 197 endchar
        </CharString>
        <CharString name="Eng">
          -326 51 -51 191 134 27 callsubr
          -22 52 326 51 hintmask 1010101101000000
          251 101 callgsubr
          610 rlineto
          -37 callgsubr
          511 50 rmoveto
          hintmask 1010011101000000
          65 callgsubr
          hintmask 1001101101000000
          -11 -41 -43 -6 -45 hhcurveto
          -18 -18 1 2 -18 hvcurveto
          -1 -1 -51 callgsubr
          -13 -13 -11 -14 -13 10 -12 13 -1 hvcurveto
          -2 21 20 -1 19 hhcurveto
          9 8 0 1 8 hvcurveto
          16 -101 7 -97 -92 vvcurveto
          -92 -7 -88 -8 -85 vhcurveto
          -102 208 -209 362 -12 17 rrcurveto
          13 -9 -12 -1 -1 -12 -12 0 -12 hhcurveto
          -66 -68 5 9 -68 hvcurveto
          -98 callgsubr
          -39 callgsubr
          -616 -3 callsubr
          72 callgsubr
          71 callsubr
          hhcurveto
          hintmask 1010101101000000
          -14 callgsubr
          hintmask 1001101101000000
          23 callsubr
          13 12 9 14 1 hvcurveto
          14 -8 11 -15 3 vhcurveto
          -26 2 -26 2 -25 2 15 566 rcurveline
          77 -135 187 -330 57 -136 rrcurveto
          -51 -6 -36 -237 -142 hhcurveto
          hintmask 0110101011000000
          -60 -55 53 61 14 -12 12 -14 61 callsubr
          hvcurveto
          -88 2 69 -77 97 hhcurveto
          159 59 201 138 17 hvcurveto
          14 115 12 121 129 vvcurveto
          93 -7 97 -16 102 vhcurveto
          23 3 22 5 22 6 rrcurveto
          11 3 7 11 11 vvcurveto
          endchar
        </CharString>
        <CharString name="Eogonek">
          -3 -290 51 15 51 164 53 -53 206 -176 -21 646 47 27 -20 hstemhm
          46 138 -51 33 callsubr
          -167 52 20 52 hintmask 1110011101011000
          622 -159 -91 callsubr
          40 21 26 36 23 hvcurveto
          20 -1 20 -1 21 -2 rrcurveto
          1 hlineto
          -5 callsubr
          21 155 rlineto
          4 vlineto
          hintmask 1101011101011000
          -45 callgsubr
          -13 -2 vhcurveto
          hintmask 1110011101011000
          -31 callsubr
          hintmask 1110011100100000
          -49 callgsubr
          -5 hlineto
          hintmask 1110011101011000
          -43 callgsubr
          hintmask 1110011011011000
          -46 callsubr
          hintmask 1110011101011000
          -14 5 callgsubr
          -15 11 -10 15 -1 vhcurveto
          2 hlineto
          hintmask 1100111101011000
          25 callsubr
          34 34 0 -1 35 hvcurveto
          -48 -37 -41 -51 -62 -49 callsubr
          -368 210 rmoveto
          -70 -2 rlineto
          593 vlineto
          24 23 1 1 23 hvcurveto
          260 -868 -5 callgsubr
          -75 callsubr
          endchar
        </CharString>
        <CharString name="Eth">
          -96 callsubr
        </CharString>
        <CharString name="Euro">
          206 -18 51 -51 243 13 53 85 53 243 54 hstemhm
          35 178 -51 51 73 51 -51 216 hintmask 1011110010000000
          381 641 rmoveto
          -63 -66 -32 -91 -132 vvcurveto
          -139 28 -84 55 -67 vhcurveto
          -104 46 -52 108 118 vvcurveto
          171 74 89 94 47 vhcurveto
          446 51 rmoveto
          1 3 0 3 2 vvcurveto
          12 -10 14 -16 -10 -10 -7 -10 -4 vhcurveto
          -26 -77 rlineto
          41 -35 -68 53 -114 hhcurveto
          -152 -175 -72 -225 -38 hvcurveto
          -35 2 -36 4 -35 5 rrcurveto
          -98 callgsubr
          35 -5 36 -3 36 -3 rrcurveto
          hintmask 1011101100000000
          -1 -14 -1 -15 -15 vvcurveto
          -15 1 -14 1 -14 vhcurveto
          -33 2 -34 4 -33 4 rrcurveto
          1 -1 -1 -51 callgsubr
          hintmask 0111110100000000
          -11 -15 -9 -17 -12 -89 callsubr
          37 -6 38 -4 38 -2 rrcurveto
          -153 29 143 -104 168 hhcurveto
          124 80 52 58 45 38 callgsubr
          117 callsubr
          -7 callsubr
          -12 -10 -8 -12 -3 vhcurveto
          hintmask 1011110010000000
          0 -54 -176 -189 4 vhcurveto
          -100 8 -57 103 -17 94 45 2 45 4 45 7 rrcurveto
          83 callgsubr
          -7 callsubr
          -1 51 callsubr
          -44 -6 -45 -4 -45 -2 rrcurveto
          hintmask 1011110100000000
          -1 20 -1 21 22 8 0 8 8 vvcurveto
          48 2 48 5 47 6 rrcurveto
          hintmask 1011110010000000
          13 2 9 11 13 vvcurveto
          13 -11 12 -14 vhcurveto
          98 callsubr
          -44 -6 -44 -4 -44 -3 rrcurveto
          121 15 79 124 139 hhcurveto
          61 64 -48 -51 32 hvcurveto
          -31 -91 rlineto
          -1 -3 126 callgsubr
          -12 9 -14 16 11 10 7 10 3 vhcurveto
          endchar
        </CharString>
        <CharString name="F">
          -9 1 57 -51 51 -46 -21 298 51 125 237 -51 51 22 50 callgsubr
          69 54 hintmask 0101011110000000
          257 58 rmoveto
          -23 -23 -1 -1 -23 hvcurveto
          7 595 rlineto
          14 14 0 14 9 9 0 9 hhcurveto
          371 45 rmoveto
          1 85 callsubr
          13 -10 12 -15 vhcurveto
          -1 -1 -51 callgsubr
          -13 -106 -108 -9 -156 hhcurveto
          -54 -55 1 3 -54 hvcurveto
          0 -1 0 0 -14 -12 -11 -14 -14 11 -11 13 -1 vhcurveto
          25 -1 24 -1 24 -1 -7 -601 rcurveline
          -24 -2 -26 -3 -27 -4 -12 callgsubr
          hintmask 0011101110000000
          54 callsubr
          1 hhcurveto
          hintmask 0101101110000000
          11 76 59 5 63 hhcurveto
          hintmask 1001101110000000
          40 42 -2 -4 50 hvcurveto
          0 1 0 1 13 11 10 13 1 vhcurveto
          13 -8 14 -15 1 vhcurveto
          -33 3 -31 1 -28 1 2 232 rcurveline
          48 48 4 11 59 hvcurveto
          12 2 9 11 17 vvcurveto
          12 -2 -11 9 -12 hhcurveto
          -2 -1 0 -1 -2 hvcurveto
          -8 -45 -47 -6 -53 hhcurveto
          4 312 88 2 89 6 88 9 rlinecurve
          -17 -176 rlineto
          -1 0 -1 0 vhcurveto
          -12 10 -14 16 13 11 10 13 1 vhcurveto
          endchar
        </CharString>
        <CharString name="G">
          122 -28 52 648 54 hstemhm
          50 51 68 52 411 52 -52 132 hintmask 11110100
          -103 callgsubr
          hintmask 11111000
          -18 callsubr
          endchar
        </CharString>
        <CharString name="Gbreve">
          122 -28 52 648 54 29 49 callsubr
          50 51 68 52 31 51 115 168 46 52 -52 132 hintmask 1110111101000000
          -103 callgsubr
          hintmask 1101111110000000
          -18 callsubr
          -207 628 -100 callgsubr
          hintmask 1110111110000000
          -87 callsubr
          hintmask 1101111110000000
          -94 callgsubr
        </CharString>
        <CharString name="Gcircumflex">
          122 200 185 71 195 endchar
        </CharString>
        <CharString name="Gcommaaccent">
          122 -20 callsubr
          22 52 648 54 hstemhm
          50 51 68 52 94 153 -50 50 164 52 -52 132 hintmask 1111111010100000
          -103 callgsubr
          hintmask 1111111101000000
          -18 callsubr
          -326 -430 rmoveto
          -13 -10 -11 -13 -13 -11 11 13 12 11 11 13 13 10 -11 -12 vhcurveto
          -106 callsubr
          -102 callgsubr
          endchar
        </CharString>
        <CharString name="Gdotaccent">
          122 337 131 71 199 endchar
        </CharString>
        <CharString name="H">
          112 callsubr
          321 48 -48 64 110 callgsubr
          68 56 312 46 hintmask 1001011110000000
          251 46 rmoveto
          -10 -11 0 -11 -11 -11 0 -11 hhcurveto
          11 610 rlineto
          -37 callgsubr
          554 45 rmoveto
          12 -3 -10 8 -12 -2 -2 0 -2 hhcurveto
          hintmask 1001101110000000
          100 callsubr
          -1 -1 0 -2 hhcurveto
          -11 -14 -10 -16 -12 9 -11 12 -2 hvcurveto
          25 -4 25 -2 26 -1 -5 -45 -11 -113 -6 -153 93 callsubr
          8 312 -23 callgsubr
          rlinecurve
          13 1 11 11 16 vvcurveto
          13 -1 -12 10 -13 -1 0 -51 callgsubr
          -4 -39 -39 -1 -40 hhcurveto
          hintmask 0101011110000000
          3 callgsubr
          -11 -15 -9 -17 -12 -89 callsubr
          -39 callgsubr
          -616 -3 callsubr
          11 -12 15 vhcurveto
          71 callsubr
          hhcurveto
          hintmask 1001101110000000
          -14 callgsubr
          hintmask 0101101110000000
          -54 callsubr
          6 247 rcurveline
          63 callsubr
          -16 0 -16 -16 vvcurveto
          -25 -1 -24 -48 callsubr
          -13 11 -12 15 vhcurveto
          -90 callgsubr
          hintmask 0011101110000000
          3 33 35 2 35 hhcurveto
          hintmask 0101101110000000
          35 36 -2 -3 37 96 callsubr
          9 14 1 hvcurveto
          14 -8 11 -15 3 vhcurveto
          3 -34 -32 2 -32 hhcurveto
          16 0 16 16 vvcurveto
          286 21 219 6 59 vhcurveto
          92 callsubr
          endchar
        </CharString>
        <CharString name="Hbar">
          112 callsubr
          93 47 181 48 -48 64 hstemhm
          39 152 -53 53 68 47 328 39 -39 51 -51 160 hintmask 1001101011001000
          251 46 rmoveto
          -10 -11 0 -11 -11 -11 0 -11 hhcurveto
          11 610 rlineto
          -37 callgsubr
          554 45 rmoveto
          12 -3 -10 8 -12 hhcurveto
          -6 hlineto
          hintmask 1001110011001000
          100 callsubr
          -4 hlineto
          -11 -14 -10 -16 -12 9 -11 12 -2 hvcurveto
          25 -4 25 -2 26 -1 -4 -31 -6 -62 -5 -85 rrcurveto
          -5 -84 -91 -2 -39 hhcurveto
          -22 -39 0 2 -45 hvcurveto
          5 185 -23 callgsubr
          rlinecurve
          13 1 11 11 16 vvcurveto
          13 -1 -12 10 -13 hhcurveto
          -2 hlineto
          -4 -39 -39 -1 -40 hhcurveto
          hintmask 1001101011001000
          -66 -68 4 10 -68 hvcurveto
          -3 hlineto
          hintmask 0101110101001000
          -11 -15 -9 -17 -12 -89 callsubr
          29 -4 28 -3 28 -2 -3 -182 rcurveline
          -26 2 -23 2 -18 3 rrcurveto
          -71 callsubr
          17 -3 26 -2 30 -2 -7 -384 62 callgsubr
          hintmask 1001110011001000
          -14 callgsubr
          hintmask 0101110011001000
          52 52 -3 -5 52 hvcurveto
          2 hlineto
          12 14 10 15 -27 callsubr
          -77 6 6 247 rlineto
          63 callsubr
          vvcurveto
          -48 vlineto
          -25 -1 -24 -48 callsubr
          -13 11 -12 15 vhcurveto
          3 hlineto
          hintmask 0011110011001000
          3 33 35 2 35 hhcurveto
          hintmask 0101110011001000
          35 36 -2 -3 37 hvcurveto
          2 hlineto
          13 12 9 14 1 hvcurveto
          14 -8 11 -15 3 vhcurveto
          hintmask 1001110011100000
          3 -34 -32 2 -32 hhcurveto
          48 vlineto
          128 4 115 5 93 vhcurveto
          37 2 32 3 21 3 rrcurveto
          hintmask 1001110011001000
          -15 callsubr
          -38 callsubr
          hintmask 1001110011010000
          -20 -3 -28 -3 -32 -2 6 88 6 62 3 28 92 callsubr
          -404 -280 rmoveto
          41 90 1 4 82 hvcurveto
          -2 -26 -1 -28 -1 -29 93 callsubr
          2 78 rlineto
          -1 43 39 0 23 hhcurveto
          endchar
        </CharString>
        <CharString name="Hcircumflex">
          175 269 174 72 195 endchar
        </CharString>
        <CharString name="I">
          24 callgsubr
          14 113 callsubr
          hintmask 10101100
          251 52 rmoveto
          -10 -11 0 -11 -11 -11 0 -11 hhcurveto
          11 601 rlineto
          -37 callgsubr
          148 30 rmoveto
          14 -1 callsubr
          vhcurveto
          -1 0 -51 callgsubr
          -4 -39 -39 -1 -40 hhcurveto
          hintmask 01011100
          3 callgsubr
          -11 -15 -9 -17 -12 -89 callsubr
          -39 callgsubr
          -607 -3 callsubr
          11 -12 15 vhcurveto
          71 callsubr
          hhcurveto
          hintmask 10101100
          -14 callgsubr
          hintmask 01101100
          -96 callgsubr
          endchar
        </CharString>
        <CharString name="IJ">
          438 -23 66 -42 42 -29 -21 660 50 38 113 callsubr
          161 112 callgsubr
          hintmask 0011111110010000
          251 52 rmoveto
          -10 -11 0 -11 -11 -11 0 -11 hhcurveto
          11 601 rlineto
          -37 callgsubr
          148 30 rmoveto
          14 -1 callsubr
          vhcurveto
          -1 0 -51 callgsubr
          -4 -39 -39 -1 -40 hhcurveto
          3 callgsubr
          -11 -15 -9 -17 -12 -89 callsubr
          -39 callgsubr
          -607 -3 callsubr
          11 -12 15 vhcurveto
          71 callsubr
          hhcurveto
          hintmask 0101111110010000
          -14 callgsubr
          hintmask 0011111100110000
          -96 callgsubr
          498 -20 -24 callsubr
          hintmask 1001111110010000
          123 callsubr
          hintmask 1001111101010000
          -60 callgsubr
        </CharString>
        <CharString name="Iacute">
          -210 216 171 73 194 endchar
        </CharString>
        <CharString name="Ibreve">
          -210 79 160 73 198 endchar
        </CharString>
        <CharString name="Icircumflex">
          24 callgsubr
          0 47 271 113 callsubr
          hintmask 10101110
          251 52 rmoveto
          -10 -11 0 -11 -11 -11 0 -11 hhcurveto
          11 601 rlineto
          -37 callgsubr
          148 30 rmoveto
          14 -1 callsubr
          vhcurveto
          -1 0 -51 callgsubr
          -4 -39 -39 -1 -40 hhcurveto
          3 callgsubr
          -11 -15 -9 -17 -12 -89 callsubr
          -39 callgsubr
          -607 -79 callgsubr
          hintmask 01101110
          64 callsubr
          hintmask 10101110
          -14 callgsubr
          hintmask 01011110
          -96 callgsubr
          -132 119 -63 callsubr
          -107 callsubr
        </CharString>
        <CharString name="Idieresis">
          -210 46 120 73 200 endchar
        </CharString>
        <CharString name="Idotaccent">
          24 callgsubr
          39 52 47 51 110 callgsubr
          -28 51 45 52 hintmask 10111101
          251 52 rmoveto
          -10 -11 0 -11 -11 -11 0 -11 hhcurveto
          11 601 rlineto
          -37 callgsubr
          148 30 rmoveto
          14 -1 callsubr
          vhcurveto
          -1 0 -51 callgsubr
          -4 -39 -39 -1 -40 hhcurveto
          3 callgsubr
          -11 -15 -9 -17 -12 -89 callsubr
          -39 callgsubr
          -607 -79 callgsubr
          hintmask 01111101
          64 callsubr
          hintmask 10111101
          -14 callgsubr
          hintmask 01111101
          -96 callgsubr
          -155 135 rmoveto
          -13 -10 -10 -13 vhcurveto
          hintmask 10111011
          -13 -11 10 13 13 11 11 13 13 10 -11 -13 hvcurveto
          -24 callgsubr
        </CharString>
        <CharString name="Igrave">
          24 callgsubr
          308 113 callsubr
          hintmask 10111100
          251 52 rmoveto
          -10 -11 0 -11 -11 -11 0 -11 hhcurveto
          11 601 rlineto
          -37 callgsubr
          148 30 rmoveto
          14 -1 callsubr
          vhcurveto
          -1 0 -51 callgsubr
          -4 -39 -39 -1 -40 hhcurveto
          3 callgsubr
          -11 -15 -9 -17 -12 -89 callsubr
          -39 callgsubr
          -607 -79 callgsubr
          hintmask 01111100
          64 callsubr
          hintmask 10111100
          -14 callgsubr
          hintmask 01111100
          -96 callgsubr
          -387 278 -107 callgsubr
        </CharString>
        <CharString name="Imacron">
          24 callgsubr
          41 52 43 51 110 callgsubr
          68 52 hintmask 10111110
          251 52 rmoveto
          -10 -11 0 -11 -11 -11 0 -11 hhcurveto
          11 601 rlineto
          -37 callgsubr
          148 30 rmoveto
          14 -1 callsubr
          vhcurveto
          -1 0 -51 callgsubr
          -4 -39 -39 -1 -40 hhcurveto
          3 callgsubr
          -11 -15 -9 -17 -12 -89 callsubr
          -39 callgsubr
          -607 -79 callgsubr
          hintmask 01111110
          64 callsubr
          hintmask 10111110
          -14 callgsubr
          hintmask 01111110
          -96 callgsubr
          -311 114 -84 callsubr
        </CharString>
        <CharString name="Iogonek">
          -210 -288 51 15 51 172 46 -33 -21 659 51 14 -20 hstemhm
          39 152 -131 52 28 51 68 52 hintmask 1110100111000000
          349 -157 -91 callsubr
          40 21 26 36 23 hvcurveto
          4 4 rlineto
          hintmask 1101100111000000
          43 -1 44 -3 43 -4 rrcurveto
          2 hlineto
          13 12 9 14 1 hvcurveto
          14 -8 11 -15 3 vhcurveto
          -77 6 16 602 -23 callgsubr
          rlinecurve
          14 -23 callsubr
          14 -1 callsubr
          vhcurveto
          -2 hlineto
          -4 -39 -39 -1 -40 hhcurveto
          hintmask 1110010111000000
          -66 -68 4 10 -68 hvcurveto
          -3 hlineto
          hintmask 1101101001000000
          -11 -15 -9 -17 -12 -89 callsubr
          -39 callgsubr
          -607 62 callgsubr
          26 3 27 2 27 2 rrcurveto
          hintmask 1110100111000000
          -48 -37 -39 -51 -61 -49 callsubr
          -98 209 rmoveto
          -65 hlineto
          11 601 rlineto
          -37 callgsubr
          -27 -874 -5 callgsubr
          -75 callsubr
          endchar
        </CharString>
        <CharString name="Itilde">
          -210 36 180 73 196 endchar
        </CharString>
        <CharString name="J">
          -14 -23 66 603 51 44 -20 hstemhm
          20 112 callgsubr
          hintmask 11110011
          462 662 -24 callsubr
          hintmask 11111001
          123 callsubr
          hintmask 11110101
          -60 callgsubr
        </CharString>
        <CharString name="Jcircumflex">
          -14 235 197 74 195 endchar
        </CharString>
        <CharString name="K">
          158 1 51 -38 -21 665 51 7 50 callgsubr
          67 49 hintmask 10101100
          -82 callsubr
          hintmask 01011100
          -44 callsubr
          hintmask 10101100
          5 52 52 3 52 hhcurveto
          hintmask 01101100
          -40 callgsubr
          endchar
        </CharString>
        <CharString name="Kcommaaccent">
          158 -20 callsubr
          51 51 -38 -21 665 51 7 50 callgsubr
          67 49 26 153 hintmask 1111010111000000
          -82 callsubr
          hintmask 1110101111000000
          -44 callsubr
          hintmask 1111010111000000
          5 52 52 3 52 hhcurveto
          hintmask 1110110111000000
          -40 callgsubr
          -405 -177 rmoveto
          -13 -10 -11 -13 -13 -11 11 13 12 11 11 13 13 10 -11 -12 vhcurveto
          -106 callsubr
          -102 callgsubr
          endchar
        </CharString>
        <CharString name="L">
          -7 1 45 -32 -21 669 50 14 79 callsubr
          hintmask 10101100
          -98 callsubr
          hintmask 01011100
          3 callgsubr
          -13 -11 -9 -17 -2 hvcurveto
          -12 9 -11 13 -2 vhcurveto
          -39 callgsubr
          -617 rcurveline
          -29 -2 -25 -1 -19 -59 callgsubr
          -16 2 11 -9 13 71 callsubr
          hhcurveto
          hintmask 10101100
          80 callgsubr
          hintmask 01101100
          -52 callgsubr
          endchar
        </CharString>
        <CharString name="Lacute">
          -7 221 192 76 194 endchar
        </CharString>
        <CharString name="Lcaron">
          -7 1 45 -32 -21 585 51 33 50 -36 51 -1 79 callsubr
          151 153 hintmask 1011001110000000
          -98 callsubr
          hintmask 0110011110000000
          3 callgsubr
          -13 -11 -9 -17 -2 hvcurveto
          -12 9 -11 13 -2 vhcurveto
          -39 callgsubr
          -617 rcurveline
          -29 -2 -25 -1 -19 -59 callgsubr
          -16 2 11 -9 13 71 callsubr
          hhcurveto
          hintmask 1011001110000000
          80 callgsubr
          hintmask 0110101110000000
          -52 callgsubr
          -38 639 rmoveto
          -13 -10 -11 -13 -13 -11 11 13 12 11 11 13 13 10 -11 -12 vhcurveto
          -106 callsubr
          -102 callgsubr
          endchar
        </CharString>
        <CharString name="Lcommaaccent">
          -7 -20 callsubr
          51 45 -32 -21 669 50 14 79 callsubr
          -52 146 hintmask 1111010110000000
          -98 callsubr
          hintmask 1110101110000000
          3 callgsubr
          -13 -11 -9 -17 -2 hvcurveto
          -12 9 -11 13 -2 vhcurveto
          -39 callgsubr
          -617 rcurveline
          -29 -2 -25 -1 -19 -59 callgsubr
          -16 2 11 -9 13 71 callsubr
          hhcurveto
          hintmask 1111010110000000
          80 callgsubr
          hintmask 1110110110000000
          -52 callgsubr
          -248 -138 -104 callgsubr
          hintmask 1111010101000000
          -106 callsubr
          -102 callgsubr
          endchar
        </CharString>
        <CharString name="Ldot">
          185 1 45 -32 -21 275 0 callgsubr
          245 50 14 79 callsubr
          334 150 hintmask 1011101110000000
          -98 callsubr
          hintmask 0111011110000000
          3 callgsubr
          -13 -11 -9 -17 -2 hvcurveto
          -12 9 -11 13 -2 vhcurveto
          -39 callgsubr
          -617 rcurveline
          -29 -2 -25 -1 -19 -59 callgsubr
          -16 2 11 -9 13 71 callsubr
          hhcurveto
          hintmask 1011101110000000
          80 callgsubr
          hintmask 0111101110000000
          -52 callgsubr
          146 329 rmoveto
          -104 callsubr
          endchar
        </CharString>
        <CharString name="Lslash">
          -6 -4 45 -32 -21 667 50 14 -20 hstemhm
          39 152 -48 48 68 48 hintmask 10100110
          251 47 rmoveto
          -22 -1 -22 0 -21 -1 11 610 rcurveline
          -37 callgsubr
          370 -418 rmoveto
          89 callgsubr
          -56 callgsubr
          -12 124 callgsubr
          vhcurveto
          -36 -204 rlineto
          4 -58 -88 2 -89 -5 -5 0 -4 hhcurveto
          8 295 133 71 rlineto
          8 5 5 9 9 vvcurveto
          13 -10 12 -15 -4 -5 -1 -2 -3 vhcurveto
          -108 -57 7 253 -23 callgsubr
          rlinecurve
          14 -23 callsubr
          14 -1 callsubr
          vhcurveto
          -1 0 -51 callgsubr
          -4 -39 -39 -1 -40 hhcurveto
          hintmask 10010110
          3 callgsubr
          hintmask 01101010
          -11 -15 -9 -17 -12 -89 callsubr
          29 -4 28 -3 28 -2 -6 -351 rcurveline
          -87 -44 rlineto
          -9 -5 -5 -9 -9 vvcurveto
          -26 callgsubr
          4 4 1 2 3 vhcurveto
          63 32 -4 -206 -29 -2 -25 -1 -19 -2 rlinecurve
          -13 -2 -45 callsubr
          64 callsubr
          hintmask 10100110
          80 callgsubr
          hintmask 01100110
          -52 callgsubr
          endchar
        </CharString>
        <CharString name="M">
          392 10 54 -52 -21 29 -21 728 -20 hstemhm
          109 52 602 51 75 51 -51 158 hintmask 10011110
          490 176 rmoveto
          -12 -37 -11 -33 -9 -25 -236 461 rcurveline
          4 27 3 39 10 30 rrcurveto
          650 -574 rmoveto
          -25 -1 -25 -2 -25 -2 -4 69 -19 271 -57 237 29 1 27 2 24 2 13 -74 49 -303 13 -200 rrcurveto
          132 -50 rmoveto
          hintmask 10011101
          14 12 11 15 14 -11 11 -14 hvcurveto
          1 -17 -18 0 -17 hhcurveto
          hintmask 10011110
          -10 -10 0 -10 hhcurveto
          -12 199 -49 299 -13 81 33 4 23 3 10 2 rrcurveto
          13 2 9 10 13 vvcurveto
          -55 callsubr
          vhcurveto
          -1 -1 -1 -2 hhcurveto
          -22 -3 -84 -4 -117 -11 rrcurveto
          -9 -8 -4 -8 -5 hvcurveto
          -33 -57 -76 -209 -57 -166 -249 458 rcurveline
          8 -5 -8 5 -10 -10 -10 -1 -15 hhcurveto
          -37 -35 5 9 -35 hvcurveto
          1 -3 -2 0 -2 hhcurveto
          -13 -13 -11 -15 -11 8 -10 11 -3 hvcurveto
          35 -10 36 -5 36 -1 -53 -231 -25 -271 -5 -98 -24 -1 -25 -2 -24 -4 49 callgsubr
          54 callsubr
          2 hhcurveto
          5 27 27 2 28 hhcurveto
          hintmask 00111110
          36 37 -4 -7 38 hvcurveto
          39 callgsubr
          10 15 8 17 12 -8 11 -12 2 hvcurveto
          -30 6 -29 4 -28 1 rrcurveto
          5 124 38 283 0 vvcurveto
          237 -463 rlineto
          hintmask 01011110
          -8 4 9 -5 10 hhcurveto
          10 11 6 11 3 hvcurveto
          1 5 133 400 71 171 50 -227 16 -245 4 -59 -26 -3 -25 -4 -24 -5 rrcurveto
          -13 -2 -8 -11 -12 vvcurveto
          -8 callsubr
          2 hhcurveto
          16 88 92 8 93 hhcurveto
          17 17 0 -1 17 hvcurveto
          endchar
        </CharString>
        <CharString name="N">
          -1 27 callsubr
          356 51 hintmask 10101110
          251 101 callgsubr
          610 rlineto
          -37 callgsubr
          511 50 rmoveto
          hintmask 10011110
          65 callgsubr
          hintmask 01101110
          -11 -41 -43 -6 -45 hhcurveto
          -18 -18 1 2 -18 hvcurveto
          -1 -1 -51 callgsubr
          -13 -13 -11 -14 -13 10 -12 13 -1 hvcurveto
          -2 21 20 -1 19 hhcurveto
          9 8 0 1 8 hvcurveto
          16 -101 7 -97 -92 vvcurveto
          -92 -7 -88 -8 -85 vhcurveto
          -102 208 -210 361 -11 18 rrcurveto
          12 -7 -14 0 -1 -12 -12 0 -12 hhcurveto
          -66 -67 5 9 -69 hvcurveto
          -98 callgsubr
          -39 callgsubr
          -616 -3 callsubr
          72 callgsubr
          71 callsubr
          hhcurveto
          hintmask 10101110
          -14 callgsubr
          hintmask 01101110
          -59 callsubr
          endchar
        </CharString>
        <CharString name="Nacute">
          407 148 78 194 endchar
        </CharString>
        <CharString name="Ncaron">
          253 150 78 207 endchar
        </CharString>
        <CharString name="Ncommaaccent">
          -20 callsubr
          49 27 callsubr
          24 153 179 51 hintmask 1111010111100000
          251 101 callgsubr
          610 rlineto
          -37 callgsubr
          511 50 rmoveto
          hintmask 1111001111100000
          65 callgsubr
          hintmask 1110110111100000
          -11 -41 -43 -6 -45 hhcurveto
          -18 -18 1 2 -18 hvcurveto
          -1 -1 -51 callgsubr
          -13 -13 -11 -14 -13 10 -12 13 -1 hvcurveto
          -2 21 20 -1 19 hhcurveto
          9 8 0 1 8 hvcurveto
          16 -101 7 -97 -92 vvcurveto
          -92 -7 -88 -8 -85 vhcurveto
          -102 208 -210 361 -11 18 rrcurveto
          12 -7 -14 0 -1 -12 -12 0 -12 hhcurveto
          -66 -67 5 9 -69 hvcurveto
          -98 callgsubr
          -39 callgsubr
          -616 -3 callsubr
          72 callgsubr
          71 callsubr
          hhcurveto
          hintmask 1111010111100000
          -14 callgsubr
          hintmask 1110110111100000
          -59 callsubr
          -347 -833 rmoveto
          -13 -10 -11 -13 -13 -11 11 13 12 11 11 13 13 10 -11 -12 vhcurveto
          -106 callsubr
          -102 callgsubr
          endchar
        </CharString>
        <CharString name="Ntilde">
          219 165 78 196 endchar
        </CharString>
        <CharString name="O">
          113 callgsubr
          hstem
          79 callgsubr
          vstem
          -97 callsubr
          endchar
        </CharString>
        <CharString name="OE">
          566 -30 58 -28 28 -28 14 callgsubr
          -32 32 -32 63 hstemhm
          46 51 70 51 397 138 -51 33 callsubr
          hintmask 0001010011101000
          1192 168 rmoveto
          4 vlineto
          -45 callgsubr
          -13 -2 vhcurveto
          hintmask 0010010011101000
          -31 callsubr
          hintmask 1000010011100100
          -49 callgsubr
          -5 hlineto
          hintmask 1000010011101000
          -43 callgsubr
          hintmask 1000000111011000
          21 20 0 -1 21 hvcurveto
          -103 vlineto
          107 -61 -109 79 -133 hhcurveto
          -194 -159 -169 -208 -208 159 -169 194 127 113 76 110 63 hvcurveto
          -110 vlineto
          -21 -1 -21 -1 -21 -2 rrcurveto
          hintmask 0000110011101000
          -14 5 callgsubr
          -15 11 -10 15 -1 vhcurveto
          2 hlineto
          hintmask 0100010011101000
          25 callsubr
          hintmask 0000110011011000
          84 85 -3 -6 87 hvcurveto
          1 hlineto
          -5 callsubr
          -469 334 rmoveto
          hintmask 1000001011011000
          -145 -117 -174 -139 -175 -53 169 158 145 74 161 171 128 111 -180 -134 vhcurveto
          121 -296 rmoveto
          -70 -2 rlineto
          593 vlineto
          24 23 1 1 23 hvcurveto
          -544 -1 9 callgsubr
        </CharString>
        <CharString name="Oacute">
          136 410 198 79 194 endchar
        </CharString>
        <CharString name="Obreve">
          113 callgsubr
          30 49 callsubr
          46 51 70 51 30 51 403 51 hintmask 11011111
          -97 callsubr
          -225 586 -100 callgsubr
          hintmask 11101111
          -87 callsubr
          hintmask 11011111
          -94 callgsubr
        </CharString>
        <CharString name="Ocircumflex">
          113 callgsubr
          0 28 271 -20 hstemhm
          79 callgsubr
          hintmask 11011110
          -97 callsubr
          -298 456 -63 callsubr
          hintmask 10111110
          -107 callsubr
        </CharString>
        <CharString name="Odieresis">
          136 218 123 79 200 endchar
        </CharString>
        <CharString name="Ograve">
          136 105 197 79 193 endchar
        </CharString>
        <CharString name="Ohungarumlaut">
          136 260 188 79 205 endchar
        </CharString>
        <CharString name="Omacron">
          136 231 127 79 197 endchar
        </CharString>
        <CharString name="Oslash">
          136 -63 -21 54 58 633 63 18 -20 hstemhm
          79 callgsubr
          hintmask 11011110
          286 649 rmoveto
          -3 -2 -2 -2 -2 -2 rrcurveto
          -51 -44 -61 -85 -159 vvcurveto
          -128 27 -98 55 -64 vhcurveto
          -91 56 -61 105 121 vvcurveto
          136 78 117 111 49 vhcurveto
          -87 -733 rmoveto
          10 13 6 11 hvcurveto
          7 19 11 24 14 27 rrcurveto
          -21 44 49 -12 52 hhcurveto
          192 162 173 204 113 -43 112 -84 72 hvcurveto
          38 58 53 callsubr
          -13 -19 -14 -23 rrcurveto
          hintmask 11101110
          31 -51 -62 18 -73 hhcurveto
          -194 -159 -169 -208 -134 66 -118 99 -67 hvcurveto
          -16 -32 -13 -27 -7 -20 38 callsubr
          -14 14 -10 12 vhcurveto
          503 431 rmoveto
          -145 -117 -174 -139 -65 -48 23 38 -35 vhcurveto
          85 158 129 215 88 140 rrcurveto
          61 -57 41 -93 -105 vvcurveto
          -484 8 rmoveto
          145 74 161 171 33 33 -10 -17 30 vhcurveto
          -82 -131 -124 -210 -87 -160 rrcurveto
          -35 62 -13 81 79 vvcurveto
          endchar
        </CharString>
        <CharString name="Oslashacute">
          136 398 195 233 194 endchar
        </CharString>
        <CharString name="Otilde">
          136 210 179 79 196 endchar
        </CharString>
        <CharString name="P">
          50 -1 51 -38 -21 204 51 420 51 1 -20 hstemhm
          39 152 -51 51 68 54 322 51 hintmask 1011001110000000
          251 101 callgsubr
          611 21 2 24 2 26 1 rlinecurve
          367 -209 rmoveto
          -139 -120 -72 -137 -26 -24 3 5 -20 vhcurveto
          11 412 rlineto
          11 11 0 12 hhcurveto
          130 -5 152 -46 -158 vvcurveto
          -257 -262 rmoveto
          145 163 91 171 182 -162 73 -170 5 hvcurveto
          hintmask 1010101110000000
          1 -15 -16 0 -14 hhcurveto
          -166 -84 -33 -1 -4 hvcurveto
          hintmask 0111010110000000
          -10 -4 -6 -10 -10 vvcurveto
          71 callgsubr
          -73 callsubr
          1 23 10 8 48 hvcurveto
          -11 -606 -24 -2 -25 -2 -24 -2 rlinecurve
          -13 -2 -45 callsubr
          -13 72 callgsubr
          71 callsubr
          hhcurveto
          hintmask 1011001110000000
          -14 callgsubr
          hintmask 0111001110000000
          -54 callsubr
          4 154 rcurveline
          -5 21 24 -2 26 hhcurveto
          endchar
        </CharString>
        <CharString name="Q">
          137 -135 52 53 58 97 51 485 63 hstem
          79 callgsubr
          vstem
          753 347 rmoveto
          191 -149 186 -205 -194 -159 -169 -208 -208 159 -169 194 50 48 12 21 44 vhcurveto
          -77 27 56 -61 75 hhcurveto
          22 22 7 12 19 hvcurveto
          8 5 4 8 9 vvcurveto
          15 -13 10 -13 -4 -5 -1 -3 -4 vhcurveto
          -7 -11 -13 -3 -12 hhcurveto
          -55 -39 51 61 -18 hvcurveto
          99 68 67 118 132 vvcurveto
          -51 hmoveto
          -98 -53 -110 -76 -62 vhcurveto
          62 -24 -46 37 -65 hhcurveto
          -42 -35 -16 -1 -2 hvcurveto
          -9 -4 -6 -10 -9 vvcurveto
          -15 14 -11 12 3 4 1 2 4 vhcurveto
          0 27 12 30 47 28 -27 -49 16 vhcurveto
          -13 -26 -28 -8 -29 hhcurveto
          -175 -53 169 158 145 74 161 171 128 111 -180 -134 hvcurveto
          -423 296 9 callgsubr
        </CharString>
        <CharString name="R">
          121 -9 77 callsubr
          77 51 68 51 100 51 -20 51 hintmask 0110111110000000
          -71 callgsubr
          hintmask 1010111101000000
          44 callsubr
          hintmask 1010111110000000
          39 callsubr
          hintmask 1011011101000000
          -11 -3 -7 -10 -11 vvcurveto
          1 callsubr
          15 2 3 1 1 2 vhcurveto
          1 25 7 8 48 hvcurveto
          -11 -602 -24 -2 -26 -2 -24 -3 rlinecurve
          -13 -2 -9 -11 -13 vvcurveto
          -13 11 -12 15 vhcurveto
          -90 callgsubr
          12 93 114 0 1 hhcurveto
          14 12 9 16 hvcurveto
          7 253 rlineto
          -4 26 28 -3 29 hhcurveto
          -9 -1 -12 -12 vvcurveto
          -118 40 -128 142 -4 vhcurveto
          1 hlineto
          103 66 77 106 hvcurveto
          10 -1 6 1 vvcurveto
          endchar
        </CharString>
        <CharString name="Racute">
          121 388 184 82 194 endchar
        </CharString>
        <CharString name="Rcaron">
          121 199 186 82 207 endchar
        </CharString>
        <CharString name="Rcommaaccent">
          121 -20 callsubr
          41 77 callsubr
          2 153 -78 51 68 51 100 51 -20 51 hintmask 1110110110111000
          -71 callgsubr
          hintmask 1111010111010100
          44 callsubr
          hintmask 1111010111011000
          39 callsubr
          hintmask 1111011010110100
          -11 -3 -7 -10 -11 vvcurveto
          1 callsubr
          15 2 3 1 1 2 vhcurveto
          1 25 7 8 48 hvcurveto
          -11 -602 -24 -2 -26 -2 -24 -3 rlinecurve
          -13 -2 -9 -11 -13 vvcurveto
          -13 11 -12 15 vhcurveto
          -90 callgsubr
          12 93 114 0 1 hhcurveto
          14 12 9 16 hvcurveto
          7 253 rlineto
          -4 26 28 -3 29 hhcurveto
          -9 -1 -12 -12 vvcurveto
          -118 40 -128 142 -4 vhcurveto
          1 hlineto
          103 66 77 106 hvcurveto
          10 -1 6 1 vvcurveto
          -328 -315 -104 callgsubr
          hintmask 1111010111011000
          55 -23 rmoveto
          hintmask 1111010110111000
          52 -25 45 -53 vhcurveto
          hintmask 1111010111011000
          -55 callgsubr
          hvcurveto
          hintmask 1111010110111000
          -56 callsubr
          5 4 0 1 5 vhcurveto
          -11 -19 -17 -17 -29 -11 rrcurveto
          -10 -4 -7 -10 -10 vvcurveto
          -94 callsubr
          hintmask 1111010111011000
          74 29 29 61 56 vvcurveto
          endchar
        </CharString>
        <CharString name="S">
          50 -34 74 callgsubr
          375 105 -51 51 hintmask 1010010010000000
          -35 callgsubr
          hintmask 1010001100000000
          -25 callsubr
          hintmask 1001100100000000
          12 callsubr
          hintmask 1010010100000000
          -81 callsubr
          hintmask 0110100100000000
          35 callgsubr
          71 callsubr
          vvcurveto
          -1 20 -1 20 21 4 0 4 4 vvcurveto
          hintmask 1010100100000000
          75 callsubr
          endchar
        </CharString>
        <CharString name="Sacute">
          50 343 193 83 194 endchar
        </CharString>
        <CharString name="Scaron">
          50 167 174 83 207 endchar
        </CharString>
        <CharString name="Scedilla">
          50 -317 83 101 57 42 74 callgsubr
          167 51 41 51 65 105 -51 51 hintmask 1110100011110000
          492 -197 55 callgsubr
          19 44 rlineto
          -1 14 13 -1 14 hhcurveto
          122 144 82 142 149 -115 38 -132 31 hvcurveto
          -77 19 -147 18 -9 108 rrcurveto
          84 2 73 33 79 hhcurveto
          79 130 -49 -36 12 hvcurveto
          -10 -34 -7 -34 -4 -34 rrcurveto
          -3 vlineto
          -11 11 -14 15 -4 callgsubr
          1 vhcurveto
          9 72 22 71 34 70 rrcurveto
          2 4 1 3 4 vvcurveto
          hintmask 1110011001110000
          12 callsubr
          hintmask 1110100101110000
          -81 callsubr
          hintmask 1101101001101000
          35 callgsubr
          vvcurveto
          2 vlineto
          -1 20 -1 20 21 vvcurveto
          12 vlineto
          54 -58 66 -38 75 -17 -31 -74 rcurveline
          -1 -3 -1 -4 -3 vvcurveto
          85 callgsubr
          vhcurveto
          3 3 1 6 hhcurveto
          26 16 -28 -26 -32 -13 -15 -35 -19 -19 6 3 -9 hvcurveto
          1 -3 -3 1 -3 hhcurveto
          -12 -14 -12 -14 -7 3 -7 6 -5 hvcurveto
          -32 37 48 -17 46 hhcurveto
          72 61 40 80 hvcurveto
          -89 555 rmoveto
          79 -19 129 -35 -114 vvcurveto
          -15 -2 -14 -5 -14 vhcurveto
          -19 95 -135 39 -89 20 rrcurveto
          hintmask 1110100101110000
          -207 43 -31 66 63 vvcurveto
          20 2 22 6 21 vhcurveto
          11 -120 142 -30 119 -28 rrcurveto
          -18 -488 -64 callsubr
          endchar
        </CharString>
        <CharString name="Scircumflex">
          50 -34 51 -7 -21 681 50 0 28 271 -20 hstemhm
          57 53 -37 50 -50 109 375 105 -51 51 hintmask 1010101001000000
          -35 callgsubr
          hintmask 1010100110000000
          -25 callsubr
          12 callsubr
          -81 callsubr
          hintmask 0110110010000000
          35 callgsubr
          71 callsubr
          vvcurveto
          -1 20 -1 20 21 4 0 4 4 vvcurveto
          hintmask 1001110010000000
          75 callsubr
          -250 609 -63 callsubr
          -107 callsubr
        </CharString>
        <CharString name="T">
          -4 -4 102 callgsubr
          68 51 hintmask 10101100
          -70 callgsubr
          hintmask 01011100
          -83 callsubr
          71 callgsubr
          vhcurveto
          -90 callgsubr
          hintmask 10101100
          106 callsubr
          hintmask 01101100
          -77 callgsubr
          endchar
        </CharString>
        <CharString name="Tbar">
          -4 -4 52 -39 -21 660 51 14 -20 hstemhm
          179 112 -48 48 68 55 hintmask 10100110
          351 47 rmoveto
          1 -11 -11 0 -10 hhcurveto
          -11 -11 0 -1 -11 hvcurveto
          11 602 rlineto
          23 24 -1 23 hhcurveto
          112 -303 3 callsubr
          -13 -5 -14 -3 -13 -2 8 288 rcurveline
          54 49 1 2 37 hvcurveto
          6 -34 14 -67 17 -50 rrcurveto
          -11 4 10 -7 10 68 callgsubr
          hvcurveto
          3 -1 3 2 vvcurveto
          -23 65 -17 101 1 vvcurveto
          12 -2 -11 9 -12 hhcurveto
          -2 hlineto
          -3 -40 -63 -2 -70 hhcurveto
          hintmask 10010110
          -116 -133 5 9 -68 hvcurveto
          -4 hlineto
          -12 -10 -8 -12 -3 hvcurveto
          -1 -23 -108 -19 -69 vhcurveto
          -1 -2 126 callgsubr
          -26 callgsubr
          11 10 8 11 3 vhcurveto
          15 52 15 71 8 35 38 -3 50 -3 55 -2 -5 -286 rcurveline
          -33 5 rlineto
          -1 -1 1 -1 hhcurveto
          hintmask 01101010
          119 callgsubr
          13 -4 13 -2 13 -3 -5 -266 27 callgsubr
          71 callgsubr
          vhcurveto
          3 hlineto
          hintmask 10100110
          106 callsubr
          hintmask 01100110
          51 52 -2 -6 52 hvcurveto
          3 hlineto
          104 callgsubr
          -26 2 -26 1 7 265 rcurveline
          17 2 17 4 14 4 rrcurveto
          13 4 9 8 13 vvcurveto
          endchar
        </CharString>
        <CharString name="Tcaron">
          -4 -4 52 -39 -21 661 50 311 -20 hstemhm
          240 51 68 51 hintmask 10111100
          -70 callgsubr
          -83 callsubr
          hintmask 01111100
          71 callgsubr
          vhcurveto
          -90 callgsubr
          hintmask 10111100
          106 callsubr
          hintmask 01111100
          -77 callgsubr
          -180 443 rmoveto
          -126 -152 -27 40 97 112 rlineto
          110 51 rmoveto
          -122 hlineto
          -7 -7 -3 -6 -5 hvcurveto
          -96 -111 -74 109 rlineto
          34 callsubr
          -15 -11 -13 -13 -5 1 -5 3 -4 hvcurveto
          151 -220 rlineto
          -7 4 125 callsubr
          9 7 3 6 5 hvcurveto
          182 220 rlineto
          4 68 callsubr
          15 1 callsubr
          vhcurveto
          endchar
        </CharString>
        <CharString name="Tcommaaccent">
          -4 -20 callsubr
          46 102 callgsubr
          -39 158 -51 51 hintmask 1111010101000000
          -70 callgsubr
          hintmask 1110101101000000
          -83 callsubr
          71 callgsubr
          vhcurveto
          -90 callgsubr
          hintmask 1111010101000000
          106 callsubr
          hintmask 1110110101000000
          -77 callgsubr
          -294 -640 -104 callgsubr
          -76 callsubr
          vhcurveto
          hintmask 1111010010000000
          91 callsubr
          hvcurveto
          -31 callgsubr
        </CharString>
        <CharString name="Thorn">
          64 -1 51 -38 -21 134 51 371 51 60 51 8 -20 hstemhm
          58 152 -50 50 68 52 321 51 hintmask 1011100111000000
          270 101 callgsubr
          608 rlineto
          8 7 0 7 hhcurveto
          16 16 0 1 17 hvcurveto
          361 -335 rmoveto
          -105 -16 -124 -43 -131 hhcurveto
          -17 -18 1 1 -17 hvcurveto
          10 369 rlineto
          0 0 0 1 154 161 -41 -148 -11 -1 -11 -2 -12 vhcurveto
          51 -8 rmoveto
          2 15 1 14 14 vvcurveto
          183 -181 54 -185 2 vhcurveto
          2 63 20 1 21 2 20 2 rlinecurve
          107 callgsubr
          hintmask 1011010111000000
          15 -11 10 -15 1 vhcurveto
          69 callsubr
          hintmask 1011100111000000
          -5 -52 -52 -3 -52 hhcurveto
          hintmask 1011010111000000
          -51 -51 3 5 -50 hvcurveto
          -1 0 -51 callgsubr
          hintmask 0111101011000000
          -12 -14 -10 -16 -12 10 -12 13 -1 hvcurveto
          28 -3 28 -2 28 -1 -1 -78 rcurveline
          -60 -12 -30 -14 -2 -1 rrcurveto
          -9 -4 -5 -10 -9 vvcurveto
          -26 callgsubr
          3 4 1 2 4 vhcurveto
          0 23 11 45 10 vhcurveto
          -6 -318 -20 7 -20 8 -23 10 rlinecurve
          1 -4 -3 1 -3 hhcurveto
          -13 -13 -11 -15 -10 6 -9 10 -4 hvcurveto
          30 -13 25 -10 27 -9 -2 -110 -3 callsubr
          72 callgsubr
          71 callsubr
          hhcurveto
          hintmask 1011100111000000
          -14 callgsubr
          hintmask 0111100111000000
          23 callsubr
          13 12 9 14 1 hvcurveto
          14 -8 11 -15 3 vhcurveto
          -26 2 -26 2 -25 2 2 79 rcurveline
          -1 19 18 -1 19 hhcurveto
          135 162 49 142 22 hvcurveto
          endchar
        </CharString>
        <CharString name="U">
          92 -33 59 618 86 callsubr
          203 52 hintmask 11010101
          308 25 rmoveto
          -137 40 -20 162 147 vvcurveto
          128 14 103 7 39 vhcurveto
          70 hlineto
          -6 -47 -13 -109 -122 vvcurveto
          -114 4 -132 81 -95 vhcurveto
          421 663 rmoveto
          hintmask 10110101
          -54 callgsubr
          hintmask 11010101
          -214 -17 rlineto
          -13 -2 -45 callsubr
          -13 11 -13 14 vhcurveto
          -90 callgsubr
          82 7 rlineto
          7 -54 15 -137 -127 vvcurveto
          -88 callgsubr
          hintmask 11010011
          -85 callgsubr
          hintmask 11001101
          -97 callgsubr
          endchar
        </CharString>
        <CharString name="Uacute">
          93 99 callsubr
          309 -20 hstemhm
          37 15 callgsubr
          hintmask 11110101
          309 -105 callsubr
          hintmask 11110011
          -85 callgsubr
          hintmask 11101101
          -97 callgsubr
          -204 176 rmoveto
          48 90 rlineto
          52 hlineto
          93 26 rmoveto
          13 -1 callsubr
          vhcurveto
          -134 hlineto
          -10 -8 -5 -8 -5 hvcurveto
          -124 -232 rlineto
          -2 -3 -1 -5 -4 vvcurveto
          -13 11 -12 15 6 6 2 4 5 vhcurveto
          258 231 rlineto
          6 5 3 7 8 vvcurveto
          endchar
        </CharString>
        <CharString name="Ubreve">
          92 275 145 85 198 endchar
        </CharString>
        <CharString name="Ucircumflex">
          93 99 callsubr
          0 35 271 -20 hstemhm
          37 15 callgsubr
          hintmask 1101101010000000
          309 -105 callsubr
          hintmask 1101100110000000
          -85 callgsubr
          hintmask 1011011010000000
          -97 callgsubr
          -275 94 -63 callsubr
          -107 callsubr
        </CharString>
        <CharString name="Udieresis">
          93 99 callsubr
          27 70 callsubr
          37 115 -52 52 50 51 -51 150 -128 51 -51 171 21 51 -51 149 33 52 hintmask 1111100010101000
          309 -105 callsubr
          hintmask 1111100001101000
          -85 callgsubr
          hintmask 1111011000101000
          -97 callgsubr
          -430 110 rmoveto
          -13 -10 -10 -13 -13 -11 10 13 13 11 11 13 13 10 -11 -13 vhcurveto
          214 hmoveto
          -13 -11 -10 -13 -13 -10 10 13 -57 callsubr
          vhcurveto
          hintmask 1111100100011000
          -102 callsubr
        </CharString>
        <CharString name="Ugrave">
          93 99 callsubr
          309 -20 hstemhm
          37 15 callgsubr
          hintmask 11110101
          309 -105 callsubr
          hintmask 11110011
          -85 callgsubr
          hintmask 11101101
          -97 callgsubr
          -500 266 -107 callgsubr
        </CharString>
        <CharString name="Uhungarumlaut">
          92 274 172 85 205 endchar
        </CharString>
        <CharString name="Umacron">
          92 99 callsubr
          36 52 43 51 hstemhm
          36 15 callgsubr
          hintmask 1111101010000000
          308 -105 callsubr
          hintmask 1111100110000000
          -85 callgsubr
          hintmask 1111011010000000
          -97 callgsubr
          -438 96 -84 callsubr
        </CharString>
        <CharString name="Uogonek">
          92 -308 51 15 51 835 86 callsubr
          -140 52 20 52 219 52 hintmask 1101101001100000
          543 -177 -91 callsubr
          37 17 25 31 22 hvcurveto
          165 28 52 149 6 184 -1 128 -15 138 -7 57 80 6 rcurveline
          125 callgsubr
          14 vvcurveto
          13 -11 12 -14 vhcurveto
          -2 hlineto
          hintmask 1110101001100000
          -214 -17 rlineto
          -13 -2 -45 callsubr
          -13 11 -13 14 vhcurveto
          3 hlineto
          82 7 rlineto
          7 -54 15 -137 -127 vvcurveto
          -88 callgsubr
          hintmask 1110100100100000
          -85 callgsubr
          hintmask 1110010011100000
          -8 -45 -13 -100 -123 vvcurveto
          -158 32 -223 198 -25 vhcurveto
          -42 -36 -33 -47 -56 -49 callsubr
          -235 202 rmoveto
          -137 40 -20 162 147 vvcurveto
          128 14 103 7 39 vhcurveto
          70 hlineto
          hintmask 1110101001100000
          -6 -47 -13 -109 -122 vvcurveto
          -114 4 -132 81 -95 vhcurveto
          127 -267 -5 callgsubr
          hintmask 1110100011100000
          -75 callsubr
          endchar
        </CharString>
        <CharString name="Uring">
          92 99 callsubr
          24 77 156 75 hstemhm
          36 115 -52 52 72 51 -8 51 -51 128 29 51 -9 104 -52 52 28 52 hintmask 1111101000101000
          308 25 rmoveto
          -137 40 -20 162 147 vvcurveto
          128 14 103 7 39 vhcurveto
          70 hlineto
          -6 -47 -13 -109 -122 vvcurveto
          -114 4 -132 81 -95 vhcurveto
          421 663 32 callsubr
          -214 -17 rlineto
          -13 -2 -45 callsubr
          -13 11 -13 14 vhcurveto
          -90 callgsubr
          82 7 rlineto
          7 -54 15 -137 -127 vvcurveto
          hintmask 1111101001011000
          -88 callgsubr
          hintmask 1111100011011000
          -85 callgsubr
          hintmask 1111010101011000
          -97 callgsubr
          -306 189 -95 callgsubr
          -83 62 -71 89 91 61 62 92 vhcurveto
          endchar
        </CharString>
        <CharString name="Utilde">
          92 187 159 85 196 endchar
        </CharString>
        <CharString name="V">
          163 -16 -21 676 51 14 -20 21 -20 hstemhm
          hintmask 11000000
          449 92 rmoveto
          -12 -19 -12 -20 -13 -20 -120 162 -86 199 -58 246 rrcurveto
          -1 11 10 0 10 hhcurveto
          14 14 0 1 13 hvcurveto
          7 -28 17 -61 44 -135 55 -170 78 -115 28 -39 rrcurveto
          398 587 rmoveto
          hintmask 10010000
          -52 callsubr
          vhcurveto
          hintmask 10100000
          -2 -2 -1 -2 hhcurveto
          hintmask 11000000
          -9 -39 -33 -5 -34 hhcurveto
          hintmask 10100000
          -34 -35 5 9 -43 hvcurveto
          hintmask 10010000
          -1 -2 1 -2 hhcurveto
          -13 -13 -12 -14 -12 9 -11 12 -2 hvcurveto
          36 -8 31 -4 30 -2 -36 -163 -66 -162 -104 -175 -102 150 -59 176 -45 177 28 3 27 3 27 5 rrcurveto
          12 2 9 11 12 vvcurveto
          -11 callgsubr
          hintmask 10100000
          -2 -1 -1 -2 hhcurveto
          hintmask 11000000
          -9 -54 -55 -5 -57 hhcurveto
          hintmask 10100000
          -56 -58 5 9 -59 hvcurveto
          hintmask 10010000
          -2 -1 1 -1 hhcurveto
          -11 -15 -10 -16 -13 9 -10 13 -2 hvcurveto
          32 -6 33 -3 32 -3 63 -274 97 -219 138 -176 rrcurveto
          -6 5 7 -4 9 hhcurveto
          8 1 8 4 5 7 132 201 114 214 56 250 28 2 29 4 33 8 rrcurveto
          12 3 8 10 12 vvcurveto
          endchar
        </CharString>
        <CharString name="W">
          280 -24 -21 758 -20 hstem
          -106 callgsubr
          endchar
        </CharString>
        <CharString name="Wacute">
          280 503 123 87 194 endchar
        </CharString>
        <CharString name="Wcircumflex">
          280 330 166 87 195 endchar
        </CharString>
        <CharString name="Wdieresis">
          280 -24 -21 692 53 11 70 callsubr
          346 42 callsubr
          hintmask 11111010
          -106 callgsubr
          -529 98 rmoveto
          -13 -10 -10 -13 -13 -11 10 13 13 11 11 13 13 10 -11 -13 vhcurveto
          214 hmoveto
          -13 -11 -10 -13 -13 -10 10 13 -57 callsubr
          vhcurveto
          hintmask 11110101
          -102 callsubr
        </CharString>
        <CharString name="Wgrave">
          280 -24 -21 692 53 268 -20 hstem
          -106 callgsubr
          -658 229 -107 callgsubr
        </CharString>
        <CharString name="X">
          121 0 54 -50 -21 28 -21 22 -21 28 -21 653 51 12 -20 hstemhm
          hintmask 10000100
          608 54 rmoveto
          -26 -26 -2 -2 -26 hvcurveto
          -154 177 -155 310 -48 108 rrcurveto
          23 23 1 2 24 hvcurveto
          31 -70 157 -317 177 -207 rrcurveto
          hintmask 00001100
          143 -56 rmoveto
          13 12 11 15 110 callsubr
          1 hvcurveto
          hintmask 10000100
          -25 3 -25 1 -26 1 -78 82 -76 96 -65 110 79 104 68 109 46 96 34 2 35 4 36 6 rrcurveto
          12 3 8 11 12 vvcurveto
          hintmask 10000010
          13 -10 12 -15 vhcurveto
          67 callsubr
          hintmask 10000100
          -8 -40 -38 -4 -37 hhcurveto
          hintmask 00100010
          -37 -35 4 8 -34 hvcurveto
          -2 -2 0 -2 hhcurveto
          -10 -15 -9 -16 -12 8 -11 12 -2 hvcurveto
          26 -6 27 -4 28 -2 -42 -82 -57 -91 -65 -88 -64 112 -48 102 -22 47 26 3 26 4 27 4 rrcurveto
          12 2 9 11 13 vvcurveto
          13 -1 callsubr
          vhcurveto
          -1 -1 0 -2 hhcurveto
          -12 -70 -69 -6 -69 hhcurveto
          -34 -34 2 3 -34 hvcurveto
          -1 0 -51 callgsubr
          -13 -13 -11 -15 -13 10 -11 14 -1 hvcurveto
          21 -2 21 -1 21 -1 23 -52 78 -154 99 -170 -95 -112 -86 -84 -24 -23 -33 -1 -33 -3 -32 -6 -12 callgsubr
          1 callsubr
          15 vhcurveto
          hintmask 00010100
          1 1 1 2 hhcurveto
          hintmask 10000100
          6 37 37 3 38 hhcurveto
          hintmask 00010100
          38 37 -3 -6 38 hvcurveto
          hintmask 00100100
          1 2 -1 1 hhcurveto
          12 14 12 14 12 -9 11 -13 2 hvcurveto
          -24 4 -24 3 -23 1 38 39 59 61 64 74 40 -64 42 -63 43 -53 -21 -2 -21 -4 -20 -4 49 callgsubr
          hintmask 01000100
          55 callsubr
          1 hhcurveto
          14 73 73 6 75 hhcurveto
          hintmask 00001100
          37 37 -1 -4 37 hvcurveto
          -90 callgsubr
          endchar
        </CharString>
        <CharString name="Y">
          66 callgsubr
          9 -20 hstemhm
          325 51 66 51 hintmask 10010110
          442 -82 callgsubr
          329 378 rmoveto
          hintmask 10001110
          67 callgsubr
          hintmask 10010110
          -6 -37 -37 -3 -38 hhcurveto
          hintmask 01001110
          -38 -38 3 6 -38 hvcurveto
          98 callsubr
          -11 -14 -10 -16 -12 -89 callsubr
          30 -5 31 -2 31 -1 -48 -163 -59 -95 -28 -38 -96 94 -82 138 -34 63 26 2 26 3 25 4 rrcurveto
          83 callgsubr
          13 callsubr
          -9 -54 -55 -4 -55 hhcurveto
          -55 -56 4 9 -57 hvcurveto
          -1 -1 -51 callgsubr
          -11 -15 -9 -17 -12 -89 callsubr
          24 -4 24 -2 24 -2 25 -50 109 -216 135 -128 rrcurveto
          -212 vlineto
          -28 -3 -28 -5 -27 -5 rrcurveto
          -12 -3 -9 -11 -12 vvcurveto
          65 callsubr
          hintmask 10010110
          108 callsubr
          hintmask 00110110
          41 41 -2 -5 40 -28 callsubr
          -29 callsubr
          endchar
        </CharString>
        <CharString name="Yacute">
          106 381 105 89 194 endchar
        </CharString>
        <CharString name="Ycircumflex">
          106 236 166 89 195 endchar
        </CharString>
        <CharString name="Ydieresis">
          66 callgsubr
          42 70 callsubr
          229 51 45 51 66 51 -51 159 hintmask 1001111101000000
          442 -82 callgsubr
          329 378 rmoveto
          67 callgsubr
          -6 -37 -37 -3 -38 hhcurveto
          -38 -38 3 6 -38 hvcurveto
          98 callsubr
          -11 -14 -10 -16 -12 -89 callsubr
          30 -5 31 -2 31 -1 -48 -163 -59 -95 -28 -38 -96 94 -82 138 -34 63 26 2 26 3 25 4 rrcurveto
          83 callgsubr
          13 callsubr
          -9 -54 -55 -4 -55 hhcurveto
          -55 -56 4 9 -57 hvcurveto
          -1 -1 -51 callgsubr
          -11 -15 -9 -17 -12 -89 callsubr
          24 -4 24 -2 24 -2 25 -50 109 -216 135 -128 rrcurveto
          -212 vlineto
          -28 -3 -28 -5 -27 -5 rrcurveto
          -12 -3 -9 -11 -12 vvcurveto
          hintmask 0101111110000000
          65 callsubr
          hintmask 1001111110000000
          108 callsubr
          hintmask 0011111101000000
          41 41 -2 -5 40 -28 callsubr
          hintmask 1001111110000000
          -29 callsubr
          -444 134 rmoveto
          -13 -10 -10 -13 -13 -11 10 13 13 11 11 13 13 10 -11 -13 vhcurveto
          214 hmoveto
          -13 -11 -10 -13 -13 -10 10 13 -57 callsubr
          vhcurveto
          -102 callsubr
        </CharString>
        <CharString name="Ygrave">
          66 callgsubr
          283 -20 hstemhm
          325 51 66 51 hintmask 10011110
          442 -82 callgsubr
          329 378 rmoveto
          67 callgsubr
          -6 -37 -37 -3 -38 hhcurveto
          -38 -38 3 6 -38 hvcurveto
          98 callsubr
          -11 -14 -10 -16 -12 -89 callsubr
          30 -5 31 -2 31 -1 -48 -163 -59 -95 -28 -38 -96 94 -82 138 -34 63 26 2 26 3 25 4 rrcurveto
          83 callgsubr
          13 callsubr
          -9 -54 -55 -4 -55 hhcurveto
          -55 -56 4 9 -57 hvcurveto
          -1 -1 -51 callgsubr
          -11 -15 -9 -17 -12 -89 callsubr
          24 -4 24 -2 24 -2 25 -50 109 -216 135 -128 rrcurveto
          -212 vlineto
          -28 -3 -28 -5 -27 -5 rrcurveto
          -12 -3 -9 -11 -12 vvcurveto
          hintmask 01011110
          65 callsubr
          hintmask 10011110
          108 callsubr
          hintmask 00111110
          41 41 -2 -5 40 -28 callsubr
          -29 callsubr
          -539 249 -107 callgsubr
        </CharString>
        <CharString name="Z">
          122 callgsubr
          8 -20 hstemhm
          554 51 hintmask 01001100
          -61 callsubr
          hintmask 10010100
          -5 -85 -81 -3 -79 hhcurveto
          hintmask 10001100
          0 callsubr
          hintmask 00110100
          17 callsubr
          -13 12 -12 14 -36 callsubr
          0 vhcurveto
          hintmask 01010100
          9 111 112 5 112 hhcurveto
          hintmask 10010100
          20 callsubr
          endchar
        </CharString>
        <CharString name="Zacute">
          8 322 190 90 194 endchar
        </CharString>
        <CharString name="Zcaron">
          8 136 161 90 207 endchar
        </CharString>
        <CharString name="Zdotaccent">
          122 callgsubr
          31 70 callsubr
          270 51 -51 150 134 51 hintmask 0101111010000000
          -61 callsubr
          -5 -85 -81 -3 -79 hhcurveto
          0 callsubr
          17 callsubr
          hintmask 0011111010000000
          -13 12 -12 14 -36 callsubr
          0 vhcurveto
          hintmask 0101111010000000
          9 111 112 5 112 hhcurveto
          hintmask 1001111010000000
          20 callsubr
          -254 579 rmoveto
          -13 -10 -10 -13 -13 -11 10 13 13 11 11 13 13 10 -11 -13 vhcurveto
          hintmask 1001110110000000
          -24 callgsubr
        </CharString>
        <CharString name="a">
          -43 callsubr
          hstemhm
          44 51 268 81 callsubr
          hintmask 1000100111010000
          -103 callsubr
          hintmask 0101010011100000
          14 -10 11 -14 1 vhcurveto
          -92 callgsubr
          hintmask 1000101011100000
          -87 callgsubr
          hintmask 0101101011100000
          97 callsubr
          hintmask 0011101011100000
          3 2 1 2 hhcurveto
          16 56 56 8 61 hhcurveto
          11 12 0 -1 11 hvcurveto
          71 callsubr
          hhcurveto
          endchar
        </CharString>
        <CharString name="aacute">
          -50 182 -48 97 194 endchar
        </CharString>
        <CharString name="abreve">
          -43 callsubr
          30 49 callsubr
          44 51 44 51 173 81 callsubr
          hintmask 1000100110111010
          -103 callsubr
          hintmask 0101010010111100
          14 -10 11 -14 1 vhcurveto
          -92 callgsubr
          hintmask 1000101010111100
          -87 callgsubr
          hintmask 0101101010111100
          97 callsubr
          hintmask 0011101001111100
          3 2 1 2 hhcurveto
          16 56 56 8 61 hhcurveto
          11 12 0 -1 11 hvcurveto
          71 callsubr
          hhcurveto
          -186 706 -100 callgsubr
          hintmask 1000101010111100
          -87 callsubr
          hintmask 1000101001111100
          -94 callgsubr
        </CharString>
        <CharString name="acircumflex">
          -50 104 -41 97 195 endchar
        </CharString>
        <CharString name="acute">
          -352 580 -21 282 -20 hstem
          117 700 rmoveto
          48 90 rlineto
          52 hlineto
          93 26 rmoveto
          13 -1 callsubr
          vhcurveto
          -134 hlineto
          -10 -8 -5 -8 -5 hvcurveto
          -124 -232 rlineto
          -2 -3 -1 -5 -4 vvcurveto
          -13 11 -12 15 6 6 2 4 5 vhcurveto
          258 231 rlineto
          6 5 3 7 8 vvcurveto
          endchar
        </CharString>
        <CharString name="adieresis">
          -43 callsubr
          28 70 callsubr
          44 51 -5 42 callsubr
          -90 81 callsubr
          hintmask 100010011110010101000000
          -103 callsubr
          hintmask 010101001110010110000000
          14 -10 11 -14 1 vhcurveto
          -92 callgsubr
          hintmask 100010101110010110000000
          -87 callgsubr
          hintmask 010110101110010110000000
          97 callsubr
          hintmask 001110101101010110000000
          3 2 1 2 hhcurveto
          16 56 56 8 61 hhcurveto
          11 12 0 -1 11 hvcurveto
          71 callsubr
          hhcurveto
          -417 600 rmoveto
          -13 -10 -10 -13 -13 -11 10 13 13 11 11 13 13 10 -11 -13 vhcurveto
          214 hmoveto
          -13 -11 -10 -13 -13 -10 10 13 -57 callsubr
          vhcurveto
          hintmask 100010101100101010000000
          -102 callsubr
        </CharString>
        <CharString name="ae">
          72 callsubr
          hstemhm
          44 51 257 51 68 52 263 51 hintmask 1010101111000000
          -19 callsubr
          hintmask 1001101111000000
          103 178 32 78 vhcurveto
          0 8 -28 4 -22 vhcurveto
          20 -53 rmoveto
          -70 45 103 -59 97 hhcurveto
          8 callgsubr
          hintmask 1010101111000000
          -25 callgsubr
          hintmask 0101011111000000
          -47 callsubr
          endchar
        </CharString>
        <CharString name="aeacute">
          72 callsubr
          273 -20 hstemhm
          44 51 257 51 68 52 263 51 hintmask 1010101111100000
          -19 callsubr
          hintmask 1001101111100000
          103 178 32 78 vhcurveto
          0 8 -28 4 -22 vhcurveto
          20 -53 rmoveto
          -70 45 103 -59 97 hhcurveto
          8 callgsubr
          hintmask 1010101111100000
          -25 callgsubr
          hintmask 0101011111100000
          -47 callsubr
          11 198 rmoveto
          48 90 rlineto
          52 hlineto
          93 26 rmoveto
          13 -1 callsubr
          vhcurveto
          -134 hlineto
          -10 -8 -5 -8 -5 hvcurveto
          -124 -232 rlineto
          -2 -3 -1 -5 -4 vvcurveto
          -13 11 -12 15 6 6 2 4 5 vhcurveto
          258 231 rlineto
          6 5 3 7 8 vvcurveto
          endchar
        </CharString>
        <CharString name="agrave">
          -43 callsubr
          307 -20 hstemhm
          44 51 268 81 callsubr
          hintmask 1000100111101000
          -103 callsubr
          hintmask 0101010011110000
          14 -10 11 -14 1 vhcurveto
          -92 callgsubr
          hintmask 1000101011110000
          -87 callgsubr
          hintmask 0101101011110000
          97 callsubr
          hintmask 0011101011110000
          3 2 1 2 hhcurveto
          16 56 56 8 61 hhcurveto
          11 12 0 -1 11 hvcurveto
          71 callsubr
          hhcurveto
          -509 753 -107 callgsubr
        </CharString>
        <CharString name="amacron">
          -50 134 -95 97 197 endchar
        </CharString>
        <CharString name="ampersand">
          313 -29 66 103 51 -3 52 -52 83 -8 52 53 106 -52 52 -17 51 72 94 -52 52 hstemhm
          45 51 39 52 -25 51 152 51 72 51 0 51 122 52 72 51 -51 119 hintmask 101010101010111011000000
          241 33 rmoveto
          -91 19 -54 60 98 vvcurveto
          91 51 67 84 17 vhcurveto
          -37 -34 -32 -55 -88 vvcurveto
          -76 27 -60 52 -39 vhcurveto
          572 385 rmoveto
          -13 -1 -13 -4 -13 -6 -31 -14 -23 -22 -27 -25 rrcurveto
          -47 -51 -72 -59 -78 -3 -4 0 -4 hhcurveto
          37 16 41 27 40 46 rrcurveto
          59 51 68 34 60 hhcurveto
          12 12 -1 -3 11 hvcurveto
          -325 126 rmoveto
          hintmask 110010011011011011000000
          -72 callsubr
          348 -317 rmoveto
          -19 -16 -17 -20 -20 -16 17 19 20 16 75 callgsubr
          -16 -20 vhcurveto
          hintmask 100101001010111010100000
          119 60 rmoveto
          96 -69 91 -108 -75 -82 -41 -70 -61 vhcurveto
          -79 -68 -70 -13 -37 hhcurveto
          -17 -11 2 1 -1 hvcurveto
          -2 -2 1 -2 hhcurveto
          -12 -14 -10 -16 -9 5 -9 8 -4 hvcurveto
          -3 4 68 -36 83 hhcurveto
          15 15 1 3 15 hvcurveto
          1 -8 1 -7 -7 vvcurveto
          -84 -66 -49 -78 -101 -81 58 113 164 131 15 6 vhcurveto
          13 2 10 11 13 vvcurveto
          0 0 1 0 vhcurveto
          14 -1 -11 11 -13 hhcurveto
          -1 hlineto
          0 -1 0 0 vhcurveto
          hintmask 110010010111010111000000
          -54 -105 15 76 71 82 21 77 22 19 -2 -4 16 hvcurveto
          -23 -15 -15 -27 -30 vvcurveto
          -48 39 -39 48 48 39 39 48 38 -26 92 -167 -105 -106 -40 -103 -47 25 -36 32 -21 vhcurveto
          -93 -31 -54 -81 -105 vvcurveto
          -181 145 -58 171 112 117 77 122 12 -1 12 -2 12 vhcurveto
          52 22 59 52 30 29 rrcurveto
          hintmask 110011001011011011000000
          29 32 28 30 39 hhcurveto
          45 28 -37 -44 4 hvcurveto
          -22 -6 -21 -11 -16 vhcurveto
          48 -1 -38 39 -48 hhcurveto
          -48 -40 -39 -49 -48 41 -39 51 hvcurveto
          hintmask 110011001011011010100000
          84 67 57 90 hvcurveto
          endchar
        </CharString>
        <CharString name="aogonek">
          -50 -286 51 15 51 138 51 -21 -21 25 51 -33 -21 206 37 callsubr
          hstemhm
          44 51 235 52 -19 60 -21 52 36 52 -52 130 hintmask 1101011010110101
          619 -155 -91 callsubr
          40 21 26 36 23 hvcurveto
          -79 callsubr
          vhcurveto
          hintmask 1101100100110110
          2 18 19 1 19 hhcurveto
          11 12 0 -1 11 hvcurveto
          2 hlineto
          89 callsubr
          14 -10 88 callgsubr
          -92 callgsubr
          hintmask 1110001010101010
          63 61 76 61 83 59 -77 -80 vhcurveto
          -12 111 callgsubr
          79 71 48 63 56 hvcurveto
          -3 -45 -4 -26 -1 vvcurveto
          -4 vlineto
          hintmask 1101101010110110
          97 callsubr
          1 hlineto
          -34 -34 -26 -42 -49 -49 callsubr
          -248 326 rmoveto
          hintmask 1110001001101010
          -72 -41 -73 -79 -93 hhcurveto
          -30 -39 14 37 103 178 32 78 hvcurveto
          18 hlineto
          -12 1 -12 1 -11 vhcurveto
          118 -121 rmoveto
          -24 -3 100 callgsubr
          2 22 2 30 36 vvcurveto
          114 -2 144 -116 63 vhcurveto
          -1 hlineto
          1 1 1 2 hhcurveto
          171 11 -180 -154 -31 0 -20 -1 -13 hvcurveto
          22 -270 -5 callgsubr
          hintmask 1110001010110110
          -75 callsubr
          endchar
        </CharString>
        <CharString name="approxequal">
          -19 42 52 62 52 -11 51 42 52 10 52 62 52 -11 51 42 52 hstemhm
          80 55 -55 77 335 79 -62 62 hintmask 1101101110100000
          514 487 -75 callgsubr
          hintmask 1011101110100000
          31 callgsubr
          -57 -356 -75 callgsubr
          hintmask 1011110110100000
          31 callgsubr
          endchar
        </CharString>
        <CharString name="aring">
          -43 callsubr
          28 77 156 75 hstemhm
          44 51 21 51 106 51 39 81 callsubr
          hintmask 1000100111111101
          -103 callsubr
          hintmask 0101010011111110
          14 -10 11 -14 1 vhcurveto
          -92 callgsubr
          hintmask 1000101011111110
          -87 callgsubr
          hintmask 0101101011111110
          97 callsubr
          hintmask 0011101011111110
          3 2 1 2 hhcurveto
          16 56 56 8 61 hhcurveto
          11 12 0 -1 11 hvcurveto
          71 callsubr
          hhcurveto
          -332 682 -95 callgsubr
          -83 62 -71 89 91 61 62 92 vhcurveto
          endchar
        </CharString>
        <CharString name="asciicircum">
          -236 310 51 360 -20 hstem
          277 361 rmoveto
          -114 205 35 74 158 -279 rlineto
          -137 347 rmoveto
          9 -5 -8 4 -10 hhcurveto
          -10 -9 -6 -9 -4 hvcurveto
          -171 -359 rlineto
          -2 -4 0 -4 -3 vvcurveto
          85 callgsubr
          10 9 5 10 4 vhcurveto
          88 184 103 -186 rlineto
          -8 5 8 -5 10 hhcurveto
          138 hlineto
          12 14 11 15 4 -1 4 -2 4 hvcurveto
          endchar
        </CharString>
        <CharString name="asciitilde">
          -82 181 52 62 52 48 51 42 52 hstem
          46 55 374 62 vstem
          480 316 rmoveto
          -43 -11 -34 -40 -50 hhcurveto
          -60 -32 61 57 -31 hvcurveto
          44 -23 -30 51 -59 hhcurveto
          -15 -12 -3 -5 -10 hvcurveto
          32 17 28 18 35 hhcurveto
          85 24 -51 -55 25 hvcurveto
          -41 18 21 -46 52 hhcurveto
          23 22 8 13 17 hvcurveto
          57 46 rmoveto
          52 -10 61 -33 46 vhcurveto
          7 -5 -8 3 -8 hhcurveto
          -13 -12 -10 -15 -6 1 -5 4 -5 hvcurveto
          14 -19 8 -26 -25 vvcurveto
          -34 -17 -39 -40 -17 -10 17 39 -18 vhcurveto
          55 -24 -37 82 -119 hhcurveto
          -86 -61 -72 -102 -101 41 -64 2 -2 hvcurveto
          -8 5 8 -4 8 68 callgsubr
          5 -2 5 -3 4 hvcurveto
          -16 26 -14 36 34 vvcurveto
          28 13 44 36 34 16 -37 -31 17 vhcurveto
          -64 34 47 -82 86 hhcurveto
          93 60 88 93 hvcurveto
          endchar
        </CharString>
        <CharString name="asterisk">
          -127 288 51 128 51 -51 155 64 51 hstemhm
          39 205 -51 51 -51 148 hintmask 11010100
          217 432 rmoveto
          -10 -35 -11 -35 -10 -13 rrcurveto
          -6 -4 -7 -4 -8 hhcurveto
          -11 -12 10 13 5 2 5 2 4 hvcurveto
          10 13 29 22 30 21 rrcurveto
          -23 86 rmoveto
          -61 1 -21 5 -7 2 rrcurveto
          -9 4 -6 9 9 vvcurveto
          11 10 12 13 3 3 0 -1 2 vhcurveto
          15 -6 30 -22 28 -24 rrcurveto
          197 -142 rmoveto
          2 -4 2 -5 -5 vvcurveto
          -11 -10 -12 -13 -8 -7 4 6 -4 vhcurveto
          -9 13 -12 35 -10 35 30 -21 29 -22 10 -13 rrcurveto
          -101 286 rmoveto
          -16 -11 -35 -12 -35 vhcurveto
          -13 35 -10 35 16 vvcurveto
          13 10 11 13 13 10 -11 -13 vhcurveto
          131 -91 rmoveto
          10 13 -9 -14 -9 -6 -9 -9 -4 hvcurveto
          -6 -2 -21 -5 -62 -1 29 24 29 22 15 6 rrcurveto
          1 3 2 0 3 hhcurveto
          74 -23 rmoveto
          hintmask 10110010
          39 -31 35 -43 -9 -8 -1 -3 -9 vhcurveto
          -20 -8 -30 -22 -27 -22 rrcurveto
          12 35 11 39 22 vvcurveto
          41 -33 34 -41 -41 -33 -34 -41 -22 11 -39 12 -34 vhcurveto
          -27 22 -30 22 -20 7 rrcurveto
          3 -8 -9 1 -9 hhcurveto
          hintmask 11011000
          -38 -36 -32 -42 -30 19 -29 30 -11 hvcurveto
          7 -2 19 -7 64 -2 -29 -20 -30 -24 -12 -18 rrcurveto
          -10 -13 -4 -15 -15 vvcurveto
          -38 33 -36 41 24 23 11 20 14 vhcurveto
          15 22 16 49 11 39 10 -39 16 -49 15 -22 rrcurveto
          -20 14 23 -11 24 hhcurveto
          39 35 33 41 15 -4 15 -10 13 hvcurveto
          -12 18 -30 24 -29 20 61 2 18 7 7 2 rrcurveto
          30 11 18 29 30 vvcurveto
          endchar
        </CharString>
        <CharString name="at">
          100 14 51 83 51 -51 70 212 56 142 51 hstemhm
          52 51 91 52 158 51 34 52 -52 109 75 51 hintmask 1101111110100000
          404 375 rmoveto
          -66 -27 -110 -74 -46 -11 46 46 84 42 55 52 51 11 -45 -10 2 vhcurveto
          121 -182 rmoveto
          -41 -29 27 44 hvcurveto
          170 34 -153 vlineto
          -34 14 -33 22 -21 vhcurveto
          199 198 rmoveto
          139 -92 149 -203 -222 -155 -166 -217 -152 82 -130 150 30 31 5 12 31 vhcurveto
          59 callgsubr
          13 -12 13 -14 -3 -3 -1 -1 -3 vhcurveto
          -10 -26 -25 -4 -24 hhcurveto
          -121 -59 107 124 188 134 144 192 169 75 -119 -118 hvcurveto
          hintmask 1011111110100000
          -46 -20 -127 -67 -29 -16 36 27 vhcurveto
          153 31 vlineto
          hintmask 1101111101100000
          14 12 12 14 14 -12 12 -14 hvcurveto
          -142 hlineto
          -14 -10 -10 -13 -2 hvcurveto
          11 -16 -21 7 -27 hhcurveto
          -72 -74 -67 -122 -76 32 -68 77 51 34 31 38 23 hvcurveto
          -48 18 45 -28 53 hhcurveto
          127 70 124 126 hvcurveto
          endchar
        </CharString>
        <CharString name="atilde">
          -50 77 -41 97 196 endchar
        </CharString>
        <CharString name="b">
          -60 -37 51 -51 80 403 51 143 52 20 -20 hstemhm
          63 54 70 53 270 51 hintmask 10110111
          279 14 rmoveto
          -94 3 -65 73 -3 94 rrcurveto
          -2 39 -1 66 71 110 2 122 50 vvcurveto
          23 2 24 3 25 6 rrcurveto
          -99 -1 -108 -119 vvcurveto
          -42 1 -40 1 -37 vhcurveto
          2 -92 32 -68 56 -34 rrcurveto
          231 248 rmoveto
          hintmask 01101111
          -105 -44 -114 -105 -82 -36 70 96 -3 vhcurveto
          -1 36 -1 39 40 vvcurveto
          30 3 57 92 81 hhcurveto
          97 34 -82 -102 hvcurveto
          51 hmoveto
          131 -55 104 -128 -58 -54 -28 -41 -28 vhcurveto
          135 2 121 1 vvcurveto
          1 0 0 0 vhcurveto
          69 callgsubr
          -3 -1 -1 -2 vhcurveto
          -14 -49 -50 -4 -40 -50 -36 6 -2 hhcurveto
          1 98 callsubr
          -10 -16 -9 -17 -12 9 -11 12 -2 hvcurveto
          hintmask 10110111
          -1 3 37 -7 54 hhcurveto
          -1 -52 -1 -119 -108 vvcurveto
          -72 1 -67 1 -40 vhcurveto
          -127 5 95 -92 125 hhcurveto
          173 98 133 166 hvcurveto
          endchar
        </CharString>
        <CharString name="backslash">
          -60 1 -21 753 -20 hstem
          302 375 rmoveto
          -73 103 -69 101 -64 102 rrcurveto
          54 hlineto
          45 -100 51 -101 56 -105 rrcurveto
          271 -355 rmoveto
          -160 249 -125 228 -98 220 rrcurveto
          10 -4 -9 6 -10 hhcurveto
          -118 hlineto
          -13 -12 -12 -14 -5 1 -4 3 -5 hvcurveto
          144 -232 165 -230 194 -241 rrcurveto
          -6 5 8 -4 7 hhcurveto
          13 13 11 15 5 -1 4 -3 5 hvcurveto
          endchar
        </CharString>
        <CharString name="bar">
          -337 -204 52 1042 51 hstem
          78 51 66 52 vstem
          129 -152 rmoveto
          1042 66 -1042 vlineto
          52 1068 rmoveto
          14 -12 11 -14 vhcurveto
          -117 hlineto
          -15 -11 -11 -14 hvcurveto
          -1094 2 callsubr
          endchar
        </CharString>
        <CharString name="braceleft">
          -305 -245 54 1102 54 hstemhm
          88 51 -51 247 -221 25 -25 51 10 51 6 52 hintmask 11100011
          121 329 rmoveto
          69 -19 42 -46 -78 -98 -57 -86 -99 vvcurveto
          -23 3 -20 7 -18 vhcurveto
          -27 27 -19 47 79 vvcurveto
          hintmask 11000111
          70 26 67 72 vvcurveto
          44 -10 43 -34 38 vhcurveto
          111 205 rmoveto
          -74 -37 -48 -74 -22 vhcurveto
          34 38 10 44 44 vvcurveto
          hintmask 11100011
          70 -26 67 72 vvcurveto
          78 19 47 27 28 vhcurveto
          -7 -18 -3 -21 -23 -96 57 -86 -100 vvcurveto
          hintmask 11010000
          103 -751 rmoveto
          14 -11 11 -15 1 vhcurveto
          hintmask 11100011
          -50 -33 43 51 hvcurveto
          94 58 86 103 vvcurveto
          74 -31 63 -68 37 vhcurveto
          66 33 33 66 75 103 -58 87 92 vvcurveto
          57 48 37 35 1 vhcurveto
          hintmask 11010000
          11 15 9 16 12 -8 11 -12 2 hvcurveto
          1 -2 -14 3 -21 hhcurveto
          -133 -57 -114 -126 hvcurveto
          hintmask 11001011
          -69 26 -67 -73 vvcurveto
          -53 -19 -45 -69 -36 vhcurveto
          -9 -4 -5 -9 -9 vvcurveto
          -10 5 -9 9 -4 vhcurveto
          69 -36 19 -44 -53 vvcurveto
          hintmask 11010000
          -70 -26 -67 -72 vvcurveto
          -120 51 -120 139 vhcurveto
          21 14 3 2 hhcurveto
          12 3 8 10 12 vvcurveto
          endchar
        </CharString>
        <CharString name="braceright">
          -305 -245 54 1102 54 hstemhm
          22 247 -196 51 7 51 10 51 -26 26 hintmask 11011100
          236 329 rmoveto
          -34 -38 -10 -43 -44 vvcurveto
          hintmask 11011010
          -69 25 -66 -74 vvcurveto
          -79 -19 -47 -27 -27 vhcurveto
          7 18 4 20 23 97 -58 85 101 vvcurveto
          73 38 49 74 21 vhcurveto
          61 vmoveto
          -68 19 -44 48 77 97 58 86 99 vvcurveto
          23 -4 21 -7 18 vhcurveto
          27 -28 19 -47 -78 vvcurveto
          hintmask 11011100
          -69 -25 -66 -74 vvcurveto
          -44 10 -44 34 -38 vhcurveto
          109 -30 rmoveto
          9 -6 9 -8 4 vhcurveto
          -69 36 -19 45 53 vvcurveto
          hintmask 11100000
          70 26 66 73 vvcurveto
          118 -52 122 -138 -21 -14 -3 -1 -2 vhcurveto
          -12 -2 -8 -11 -12 vvcurveto
          -13 10 -12 15 vhcurveto
          hintmask 11011100
          51 33 -44 -51 hvcurveto
          -89 -58 -87 -106 vvcurveto
          -72 30 -68 69 -34 vhcurveto
          -66 -34 -33 -64 -76 -102 58 -100 -81 vvcurveto
          -48 -31 -46 -53 vhcurveto
          hintmask 11100000
          -12 -13 -10 -16 -12 8 -10 12 -3 hvcurveto
          2 14 -3 21 hhcurveto
          133 57 113 127 hvcurveto
          hintmask 11011100
          69 -26 67 73 vvcurveto
          53 19 44 69 36 vhcurveto
          8 4 6 9 10 vvcurveto
          endchar
        </CharString>
        <CharString name="bracketleft">
          -290 -232 50 -40 -21 1147 50 8 -20 hstemhm
          77 51 68 52 hintmask 10011100
          196 -181 rmoveto
          -22 -23 -2 -3 -23 hvcurveto
          1093 vlineto
          22 -2 23 -1 23 -1 rrcurveto
          167 33 rmoveto
          -55 callsubr
          -1 -1 0 -1 -1 vhcurveto
          hintmask 10101100
          -4 -44 -40 -3 -37 hhcurveto
          -38 -35 3 4 -34 hvcurveto
          hintmask 01011100
          1 -1 -1 -51 callgsubr
          -13 -13 -12 -14 hvcurveto
          -1153 vlineto
          1 callsubr
          15 57 callsubr
          hintmask 10101100
          7 35 34 3 33 hhcurveto
          hintmask 01101100
          44 41 -5 -6 38 hvcurveto
          2 1 0 1 hhcurveto
          11 15 9 17 12 -9 11 -13 2 hvcurveto
          hintmask 10101100
          -28 4 -31 4 -34 2 rrcurveto
          1086 vlineto
          29 1 30 2 33 4 117 callgsubr
          endchar
        </CharString>
        <CharString name="bracketright">
          -290 -232 50 -40 -21 1146 51 8 -20 hstemhm
          124 51 69 51 hintmask 10101100
          244 -186 rmoveto
          3 -23 -23 2 -23 hhcurveto
          1084 vlineto
          24 1 23 1 22 2 rrcurveto
          51 29 rmoveto
          hintmask 10011100
          12 -12 14 -14 -1 -1 0 -1 -1 vhcurveto
          hintmask 10101100
          -4 -34 -35 -3 -38 hhcurveto
          -37 -41 3 4 -44 hvcurveto
          hintmask 10011100
          1 -1 0 -15 callgsubr
          10 -11 13 -1 hvcurveto
          32 -4 31 -2 29 -1 rrcurveto
          -1086 vlineto
          -34 -2 -31 -4 -28 -4 -12 callgsubr
          hintmask 01101100
          54 callsubr
          2 hhcurveto
          hintmask 10101100
          6 38 41 5 44 hhcurveto
          33 34 -3 -7 34 hvcurveto
          hintmask 01101100
          -1 2 2 0 2 hhcurveto
          14 12 11 15 hvcurveto
          endchar
        </CharString>
        <CharString name="breve">
          -328 573 49 callsubr
          0 51 hintmask 01100000
          280 752 -100 callgsubr
          hintmask 10100000
          -87 callsubr
          hintmask 01100000
          -94 callgsubr
        </CharString>
        <CharString name="brokenbar">
          -337 -204 52 442 51 55 52 442 51 hstem
          78 51 66 52 vstem
          129 -152 -2 callsubr
          -118 626 -2 callsubr
          endchar
        </CharString>
        <CharString name="bullet">
          -264 227 52 145 52 hstem
          75 51 146 51 vstem
          272 351 rmoveto
          -40 -33 -32 -40 -40 -33 32 40 41 33 32 40 40 33 -32 -41 vhcurveto
          51 hmoveto
          69 -55 56 -69 -68 -56 -56 -69 -68 56 -56 68 69 55 56 68 vhcurveto
          endchar
        </CharString>
        <CharString name="c">
          -88 -26 33 callgsubr
          32 -20 hstemhm
          39 51 0 73 0 51 0 248 hintmask 1001101010000000
          245 463 rmoveto
          -41 -28 -41 -102 -107 vvcurveto
          -78 23 -69 42 -44 vhcurveto
          -89 26 -49 73 98 vvcurveto
          120 48 85 107 26 vhcurveto
          299 60 rmoveto
          1 0 1 2 vvcurveto
          -45 callgsubr
          -12 -2 vhcurveto
          -16 -100 rlineto
          59 -41 -67 30 -74 hhcurveto
          hintmask 0110110100000000
          -165 -91 -124 -164 -153 108 -105 150 142 74 107 65 13 hvcurveto
          -42 callgsubr
          1 2 -56 callgsubr
          -12 -10 -9 -12 -3 vhcurveto
          hintmask 1001110010000000
          -55 -14 -53 -67 -66 hhcurveto
          -90 -39 100 91 80 29 151 110 58 51 -73 -57 hvcurveto
          hintmask 1010110100000000
          -14 1 11 -10 13 24 callsubr
          endchar
        </CharString>
        <CharString name="cacute">
          -88 280 -9 99 194 endchar
        </CharString>
        <CharString name="caron">
          -278 590 -21 271 -20 hstem
          304 789 rmoveto
          -126 -152 -27 40 97 112 rlineto
          110 51 rmoveto
          -122 hlineto
          -7 -7 -3 -6 -5 hvcurveto
          -96 -111 -74 109 rlineto
          34 callsubr
          -15 -11 -13 -13 -5 1 -5 3 -4 hvcurveto
          151 -220 rlineto
          -7 4 125 callsubr
          9 7 3 6 5 hvcurveto
          182 220 rlineto
          4 68 callsubr
          15 1 callsubr
          vhcurveto
          endchar
        </CharString>
        <CharString name="ccaron">
          -88 -26 33 callgsubr
          302 -20 hstemhm
          39 51 0 73 0 51 0 248 hintmask 1001101010000000
          245 463 rmoveto
          -41 -28 -41 -102 -107 vvcurveto
          -78 23 -69 42 -44 vhcurveto
          -89 26 -49 73 98 vvcurveto
          120 48 85 107 26 vhcurveto
          299 60 rmoveto
          1 0 1 2 vvcurveto
          -45 callgsubr
          -12 -2 vhcurveto
          -16 -100 rlineto
          59 -41 -67 30 -74 hhcurveto
          hintmask 0110110100000000
          -165 -91 -124 -164 -153 108 -105 150 142 74 107 65 13 hvcurveto
          -42 callgsubr
          1 2 -56 callgsubr
          -12 -10 -9 -12 -3 vhcurveto
          hintmask 1001110010000000
          -55 -14 -53 -67 -66 hhcurveto
          -90 -39 100 91 80 29 151 110 58 51 -73 -57 hvcurveto
          hintmask 1010110100000000
          -14 1 11 -10 13 24 callsubr
          -81 447 rmoveto
          -126 -152 -27 40 97 112 rlineto
          110 51 rmoveto
          -122 hlineto
          -7 -7 -3 -6 -5 hvcurveto
          -96 -111 -74 109 rlineto
          34 callsubr
          -15 -11 -13 -13 -5 1 -5 3 -4 hvcurveto
          151 -220 rlineto
          -7 4 125 callsubr
          9 7 3 6 5 hvcurveto
          182 220 rlineto
          4 68 callsubr
          15 1 callsubr
          vhcurveto
          endchar
        </CharString>
        <CharString name="ccedilla">
          -86 -300 83 101 57 33 33 callgsubr
          32 -20 hstemhm
          41 51 73 51 0 248 -177 51 41 51 hintmask 1110101110110000
          430 -180 55 callgsubr
          14 33 rlineto
          11 hlineto
          142 74 107 65 13 hvcurveto
          -42 callgsubr
          1 2 vvcurveto
          hintmask 1101101110110000
          -52 callsubr
          -12 -10 -9 -12 -3 vhcurveto
          hintmask 1110011101000000
          -55 -14 -53 -67 -66 hhcurveto
          -90 -39 100 91 80 29 151 110 58 51 -73 -57 hvcurveto
          hintmask 1110101110110000
          -14 1 11 -10 13 24 callsubr
          31 199 rlineto
          4 vlineto
          -45 callgsubr
          -12 -2 vhcurveto
          -16 -100 rlineto
          59 -41 -67 30 -74 hhcurveto
          -165 -91 -124 -164 -131 78 -96 117 -24 hvcurveto
          -26 -62 rlineto
          -1 -3 -1 -4 -3 vvcurveto
          85 callgsubr
          vhcurveto
          3 3 1 6 hhcurveto
          26 16 -28 -26 -32 -13 -15 -35 -19 -19 6 3 -9 hvcurveto
          1 -3 -3 1 -3 hhcurveto
          -12 -14 -12 -14 -7 3 -7 6 -5 hvcurveto
          -32 37 48 -17 46 hhcurveto
          72 61 40 80 hvcurveto
          -183 643 rmoveto
          -41 -28 -41 -102 -107 vvcurveto
          -78 23 -69 42 -44 vhcurveto
          -89 26 -49 73 98 vvcurveto
          120 48 85 107 26 vhcurveto
          76 -576 -64 callsubr
          endchar
        </CharString>
        <CharString name="ccircumflex">
          -88 -26 33 callgsubr
          302 -20 hstemhm
          39 51 0 73 0 51 0 248 hintmask 1001101010000000
          245 463 rmoveto
          -41 -28 -41 -102 -107 vvcurveto
          -78 23 -69 42 -44 vhcurveto
          -89 26 -49 73 98 vvcurveto
          120 48 85 107 26 vhcurveto
          299 60 rmoveto
          1 0 1 2 vvcurveto
          -45 callgsubr
          -12 -2 vhcurveto
          -16 -100 rlineto
          59 -41 -67 30 -74 hhcurveto
          hintmask 0110110100000000
          -165 -91 -124 -164 -153 108 -105 150 142 74 107 65 13 hvcurveto
          -42 callgsubr
          1 2 -56 callgsubr
          -12 -10 -9 -12 -3 vhcurveto
          hintmask 1001110010000000
          -55 -14 -53 -67 -66 hhcurveto
          -90 -39 100 91 80 29 151 110 58 51 -73 -57 hvcurveto
          hintmask 1010110100000000
          -14 1 11 -10 13 24 callsubr
          -170 278 -63 callsubr
          -107 callsubr
        </CharString>
        <CharString name="cdotaccent">
          -88 216 -75 99 199 endchar
        </CharString>
        <CharString name="cedilla">
          -389 -300 83 101 57 94 -20 hstem
          130 51 41 51 vstem
          166 -113 -64 callsubr
          107 -67 rmoveto
          74 -60 47 -77 vhcurveto
          -7 -6 0 -6 hhcurveto
          26 59 rlineto
          1 3 1 3 4 vvcurveto
          12 -3 callgsubr
          -10 -10 -6 -10 -4 vhcurveto
          -42 -100 rlineto
          -1 -3 -1 -4 -3 vvcurveto
          85 callgsubr
          vhcurveto
          3 3 1 6 hhcurveto
          26 16 -28 -26 -32 -13 -15 -35 -19 -19 6 3 -9 hvcurveto
          1 -3 -3 1 -3 hhcurveto
          -12 -14 -12 -14 -7 3 -7 6 -5 hvcurveto
          -32 37 48 -17 46 hhcurveto
          72 61 40 80 hvcurveto
          endchar
        </CharString>
        <CharString name="cent">
          -80 -25 -21 572 224 hstemhm
          40 51 0 192 -119 51 55 50 0 143 hintmask 11101010
          307 -46 rmoveto
          14 12 11 14 hvcurveto
          1 -1 2 1 vvcurveto
          -4 31 -2 31 -2 30 125 12 66 98 12 61 rrcurveto
          -42 callgsubr
          1 2 -56 callgsubr
          -12 -10 -9 -12 -3 vhcurveto
          -55 -14 -53 -67 -66 hhcurveto
          -9 -8 1 1 -7 hvcurveto
          -6 110 2 83 0 vvcurveto
          0 -1 89 3 103 vhcurveto
          3 11 12 2 13 hhcurveto
          46 63 -63 -57 hvcurveto
          -14 1 11 -10 13 24 callsubr
          31 189 rlineto
          4 vlineto
          -45 callgsubr
          -12 -2 vhcurveto
          -16 -100 -37 52 -56 29 -64 6 rlinecurve
          2 47 4 46 6 40 122 callsubr
          vhcurveto
          hintmask 11010010
          -13 -11 -9 -13 -1 hvcurveto
          -4 -50 -3 -47 -2 -42 rrcurveto
          hintmask 11101100
          -151 -8 -83 -93 -156 vvcurveto
          -145 97 -102 138 -10 vhcurveto
          2 -36 2 -34 3 -29 rrcurveto
          -13 1 11 -9 13 hhcurveto
          -61 579 rmoveto
          -41 -28 -41 -72 -107 vvcurveto
          -78 23 -69 42 -44 vhcurveto
          -89 26 -49 73 98 vvcurveto
          120 48 55 107 26 vhcurveto
          -31 -208 rmoveto
          54 13 72 42 42 vhcurveto
          -3 -100 0 -62 0 vvcurveto
          0 0 -78 4 -91 vhcurveto
          -39 37 -17 65 61 vvcurveto
          endchar
        </CharString>
        <CharString name="circumflex">
          -278 590 -21 271 -20 hstem
          248 620 -63 callsubr
          -107 callsubr
        </CharString>
        <CharString name="colon">
          -387 -22 0 callgsubr
          121 0 callgsubr
          hstem
          62 52 47 51 vstem
          161 53 rmoveto
          -104 callsubr
          -51 270 rmoveto
          -104 callsubr
          endchar
        </CharString>
        <CharString name="comma">
          -418 -107 107 callsubr
          46 153 vstem
          144 43 rmoveto
          -13 -10 -11 -13 -13 -11 11 13 12 11 11 13 13 10 -11 -12 vhcurveto
          -106 callsubr
          -102 callgsubr
          endchar
        </CharString>
        <CharString name="copyright">
          145 32 57 76 57 -57 145 57 174 -80 60 -60 80 68 62 hstemhm
          50 51 70 51 64 51 25 51 293 51 hintmask 1100011111110000
          392 454 rmoveto
          -20 -34 -10 -43 -47 vvcurveto
          -35 7 -32 14 -26 vhcurveto
          -31 21 -15 36 40 vvcurveto
          44 13 51 42 25 vhcurveto
          224 57 rmoveto
          2 85 callsubr
          12 -11 14 -15 -12 124 callgsubr
          vhcurveto
          -6 -39 rlineto
          hintmask 1010101111110000
          28 -27 -39 13 -40 hhcurveto
          -103 -64 -84 -103 -94 69 -75 99 67 70 42 72 14 hvcurveto
          2 0 1 2 vvcurveto
          -7 callsubr
          -12 -11 -9 -12 -2 vhcurveto
          hintmask 1100101111110000
          -31 -1 -38 -36 -34 hhcurveto
          -50 -19 65 43 42 13 89 62 35 18 -41 -29 5 hvcurveto
          hintmask 1101001111110000
          -13 1 11 -11 13 24 callsubr
          -328 203 -29 callgsubr
          118 121 -133 -125 vhcurveto
          51 hmoveto
          184 -173 136 -181 21 callsubr
        </CharString>
        <CharString name="currency">
          -287 207 -21 42 72 118 71 60 -20 hstem
          62 51 89 51 32 51 vstem
          202 361 -10 callsubr
          39 191 rmoveto
          -10 -2 -4 -8 -8 hvcurveto
          -15 -22 -13 -20 -14 -19 rrcurveto
          8 -18 -22 5 -23 hhcurveto
          -29 -27 -9 -15 -23 hvcurveto
          -16 22 -16 24 -17 26 rrcurveto
          8 -8 -2 4 -10 hhcurveto
          -13 -14 -10 -15 -5 2 -6 3 -4 hvcurveto
          17 -27 19 -26 19 -25 rrcurveto
          -14 -21 -8 -24 -28 vvcurveto
          -30 9 -27 17 -22 vhcurveto
          -55 -48 rlineto
          -1 -9 -11 -7 vvcurveto
          -14 13 -12 14 5 6 2 4 4 vhcurveto
          20 17 20 19 20 18 rrcurveto
          -12 21 25 -6 27 hhcurveto
          21 20 4 6 17 hvcurveto
          17 -16 17 -15 18 -15 rrcurveto
          -4 4 6 -2 5 hhcurveto
          14 13 12 14 hvcurveto
          7 -9 11 1 vvcurveto
          -15 12 -13 12 -13 11 rrcurveto
          22 23 13 31 38 vvcurveto
          36 -12 31 -21 22 vhcurveto
          15 20 14 21 14 21 rrcurveto
          3 4 2 6 5 vvcurveto
          15 -14 10 -13 vhcurveto
          endchar
        </CharString>
        <CharString name="d">
          14 36 callgsubr
          149 124 callsubr
          41 51 316 52 71 51 -51 136 hintmask 1000011011100000
          -32 callsubr
          hintmask 0010011011100000
          -17 callgsubr
          110 -654 rmoveto
          hintmask 1000011011010000
          16 callsubr
          hintmask 1000010111100000
          -3 -4 0 -3 hhcurveto
          631 vlineto
          13 -10 12 -15 vhcurveto
          -2 -2 0 -2 hhcurveto
          hintmask 1000011011100000
          -6 -25 -31 -2 -30 hhcurveto
          hintmask 1000010111100000
          -63 -61 8 -1 -1 -1 -51 callgsubr
          -16 callsubr
          hintmask 1000011011100000
          3 31 -4 -2 40 hvcurveto
          -197 -33 callgsubr
          hintmask 0001011011100000
          -26 callgsubr
          vhcurveto
          hintmask 0000111011100000
          2 3 0 1 2 hvcurveto
          hintmask 0100011011100000
          47 callsubr
          43 callsubr
          endchar
        </CharString>
        <CharString name="dagger">
          -165 -183 -21 764 51 330 -20 hstemhm
          33 176 -52 52 66 51 -51 192 hintmask 11110100
          209 103 callgsubr
          51 652 rmoveto
          39 2 39 2 40 3 rrcurveto
          hintmask 11110010
          76 callsubr
          hintmask 11101100
          -18 callgsubr
          hintmask 11110100
          40 callgsubr
          hintmask 11101100
          -90 callgsubr
          -732 40 callsubr
          endchar
        </CharString>
        <CharString name="daggerdbl">
          -160 -183 -21 347 51 366 51 330 -20 hstemhm
          35 176 -52 52 66 51 -51 192 hintmask 11111010
          211 103 callgsubr
          167 242 rmoveto
          hintmask 11111001
          14 11 11 14 14 -10 11 -13 1 hvcurveto
          hintmask 11111010
          -40 3 -39 3 -39 1 rrcurveto
          352 vlineto
          39 2 39 2 40 3 rrcurveto
          hintmask 11111001
          76 callsubr
          hintmask 11110110
          -18 callgsubr
          hintmask 11111010
          40 callgsubr
          hintmask 11110110
          -90 callgsubr
          -354 vlineto
          -1 -1 -51 callgsubr
          -1 0 0 0 hvcurveto
          -33 -1 -32 -2 -32 -3 rrcurveto
          hintmask 11111010
          -13 -1 -10 -12 -13 vvcurveto
          -14 12 -10 14 -1 vhcurveto
          43 callsubr
          31 3 32 2 31 1 rrcurveto
          hintmask 11110110
          -36 callsubr
          0 hvcurveto
          -327 40 callsubr
          264 vlineto
          37 -2 38 -2 39 -3 rrcurveto
          43 callsubr
          endchar
        </CharString>
        <CharString name="dcaron">
          181 36 callgsubr
          74 51 24 49 -26 51 hstemhm
          41 51 316 52 71 51 -51 136 -15 153 hintmask 1000011101110100
          -32 callsubr
          hintmask 0010011101110100
          -17 callgsubr
          110 -654 rmoveto
          hintmask 1000011101101000
          16 callsubr
          hintmask 1000011101110100
          -3 -4 0 -3 hhcurveto
          631 vlineto
          13 -10 12 -15 vhcurveto
          -2 -2 0 -2 hhcurveto
          -6 -25 -31 -2 -30 -63 -61 8 -1 -1 -1 -51 callgsubr
          -16 callsubr
          3 31 -4 -2 40 hvcurveto
          -197 -33 callgsubr
          hintmask 0001011101110100
          -26 callgsubr
          vhcurveto
          hintmask 0000111101110100
          2 3 0 1 2 hvcurveto
          hintmask 0100011101110100
          47 callsubr
          43 callsubr
          109 652 rmoveto
          -13 -42 callsubr
          -13 -11 11 13 vhcurveto
          hintmask 1000011011110100
          12 11 11 13 vhcurveto
          hintmask 1000011101110100
          13 10 -11 -12 hvcurveto
          55 -23 rmoveto
          hintmask 1000011011110100
          52 -25 45 -53 vhcurveto
          hintmask 1000011101110100
          91 callsubr
          hvcurveto
          -11 -19 -17 -17 -29 -11 rrcurveto
          hintmask 1000011101101000
          -10 -4 -7 -10 -10 vvcurveto
          -94 callsubr
          hintmask 1000011101110100
          74 29 29 61 56 vvcurveto
          endchar
        </CharString>
        <CharString name="dcroat">
          14 36 callgsubr
          44 154 -151 62 40 124 callsubr
          41 51 144 224 -52 52 71 51 -51 136 hintmask 1000011000101100
          -32 callsubr
          hintmask 0010010101110100
          -17 callgsubr
          172 -68 3 callsubr
          -34 -5 -30 -3 -28 -3 rrcurveto
          84 vlineto
          13 -10 12 -15 vhcurveto
          -6 hlineto
          hintmask 1000010110110100
          -6 -25 -31 -2 -30 hhcurveto
          hintmask 1000010101110100
          -63 -61 8 -1 hhcurveto
          -3 hlineto
          -16 callsubr
          hintmask 1000010110101100
          3 31 -4 -2 40 hvcurveto
          -56 vlineto
          -42 2 -46 6 -55 7 rrcurveto
          -1 -1 1 -1 hhcurveto
          hintmask 1000011000110100
          -15 -11 -12 -14 -13 9 -11 13 -1 hvcurveto
          hintmask 1000011000101100
          50 -7 50 -5 50 -2 rrcurveto
          -92 -33 callgsubr
          hintmask 0001011000110100
          -26 callgsubr
          vhcurveto
          hintmask 0000111000110100
          2 3 0 1 2 hvcurveto
          hintmask 0100011000110010
          47 callsubr
          2 hlineto
          16 callsubr
          hintmask 1000010110110100
          -10 497 hlineto
          33 2 33 4 33 5 rrcurveto
          -15 callsubr
          endchar
        </CharString>
        <CharString name="degree">
          -312 461 72 118 71 hstem
          37 51 89 51 32 51 vstem
          177 594 -10 callsubr
          51 hmoveto
          77 -56 54 -81 -72 -65 -53 -78 -75 60 -55 77 82 55 52 78 vhcurveto
          endchar
        </CharString>
        <CharString name="dieresis">
          -299 624 70 callsubr
          0 42 callsubr
          hintmask 11101000
          98 699 rmoveto
          -13 -10 -10 -13 -13 -11 10 13 13 11 11 13 13 10 -11 -13 vhcurveto
          214 hmoveto
          -13 -11 -10 -13 -13 -10 10 13 -57 callsubr
          vhcurveto
          hintmask 11010100
          -102 callsubr
        </CharString>
        <CharString name="divide">
          -121 131 0 callgsubr
          46 48 47 0 callgsubr
          hstem
          196 52 47 51 vstem
          504 366 92 callgsubr
          -61 -6 -63 hhcurveto
          -60 -62 6 11 -84 hvcurveto
          -71 callsubr
          -10 71 70 -5 70 hhcurveto
          71 70 5 -19 callgsubr
          -209 -160 rmoveto
          -104 callsubr
          -51 290 rmoveto
          -104 callsubr
          endchar
        </CharString>
        <CharString name="dollar">
          -93 -53 -21 824 -20 hstemhm
          52 51 -51 112 86 49 133 100 -51 51 hintmask 11101010
          532 253 rmoveto
          105 -112 37 -91 18 vhcurveto
          -23 4 rlineto
          -10 76 3 42 0 vvcurveto
          5 vlineto
          42 -5 41 -14 36 -28 rrcurveto
          -3 -5 -13 -3 -20 vhcurveto
          -4 vlineto
          -13 11 -13 14 13 11 10 12 2 vhcurveto
          4 24 13 43 25 44 rrcurveto
          3 4 1 4 5 vvcurveto
          13 -1 callsubr
          -8 -9 -4 -8 -5 vhcurveto
          -8 -14 -8 -15 -6 -14 -40 27 -47 16 -51 5 1 37 2 49 6 44 122 callsubr
          -13 -11 -9 -13 -1 vhcurveto
          -6 -42 -2 -51 -41 vvcurveto
          -101 -3 -97 -54 -112 vvcurveto
          -105 104 -51 104 -16 vhcurveto
          10 -72 -3 -40 0 vvcurveto
          -1 vlineto
          -63 9 -56 28 -47 51 3 23 rcurveline
          3 vlineto
          12 -10 13 -16 -13 -11 -10 109 callsubr
          -3 -4 -41 -48 vvcurveto
          -14 0 -13 1 -13 vhcurveto
          48 callsubr
          10 12 13 hvcurveto
          2 vlineto
          -1 10 0 11 11 vvcurveto
          47 -41 58 -24 63 -8 -1 -37 -2 -50 -6 -45 rrcurveto
          -1 -1 -1 -1 vvcurveto
          -15 12 -11 14 -4 callgsubr
          1 vhcurveto
          6 44 1 51 1 42 rrcurveto
          91 125 57 111 hvcurveto
          -213 109 -89 callgsubr
          hintmask 11011100
          113 -174 rmoveto
          -42 -85 -9 -31 vhcurveto
          2 vlineto
          0 2 48 -6 59 vhcurveto
          46 -8 74 -17 -33 vvcurveto
          -268 310 rmoveto
          29 48 14 38 2 vhcurveto
          -6 vlineto
          0 -3 -49 7 -60 vhcurveto
          -45 13 -45 21 36 vvcurveto
          endchar
        </CharString>
        <CharString name="dotaccent">
          -512 624 70 callsubr
          0 51 -51 150 hintmask 11100000
          98 699 rmoveto
          -13 -10 -10 -13 -13 -11 10 13 13 11 11 13 13 10 -11 -13 vhcurveto
          hintmask 11010000
          -24 callgsubr
        </CharString>
        <CharString name="dotlessi">
          -275 9 34 callgsubr
          8 114 callsubr
          hintmask 10011100
          -11 callsubr
          4 callsubr
          1 406 rcurveline
          13 -1 callsubr
          vhcurveto
          84 callsubr
          hintmask 10101100
          -30 callgsubr
          hhcurveto
          hintmask 10011100
          -62 -61 8 -1 -98 callgsubr
          hintmask 10101100
          21 callgsubr
          hintmask 01101100
          -72 callgsubr
          hintmask 10101100
          50 callsubr
          endchar
        </CharString>
        <CharString name="dotlessj">
          -315 -245 60 -60 192 487 124 callsubr
          -135 105 callsubr
          hintmask 10011110
          -10 callgsubr
          50 31 rmoveto
          12 -11 54 callgsubr
          hintmask 10101110
          -30 callgsubr
          hhcurveto
          hintmask 10011110
          -62 -61 8 -1 -1 -1 -51 callgsubr
          -16 callsubr
          hintmask 10101110
          2 31 -4 -2 41 hvcurveto
          -382 vlineto
          -63 4 -174 -104 -52 -32 68 38 -1 vhcurveto
          hintmask 01101110
          -63 callgsubr
          endchar
        </CharString>
        <CharString name="e">
          82 callgsubr
          275 -20 hstem
          40 51 68 52 263 51 vstem
          -105 callgsubr
          endchar
        </CharString>
        <CharString name="eacute">
          -102 244 -29 101 194 endchar
        </CharString>
        <CharString name="ebreve">
          82 callgsubr
          303 49 callsubr
          40 51 41 51 -24 52 263 51 hintmask 11011011
          -105 callgsubr
          -112 471 -100 callgsubr
          hintmask 11101101
          -87 callsubr
          hintmask 11011101
          -94 callgsubr
        </CharString>
        <CharString name="ecaron">
          82 callgsubr
          576 -20 hstem
          40 51 68 52 263 51 vstem
          -105 callgsubr
          -97 514 rmoveto
          -126 -152 -27 40 97 112 rlineto
          110 51 rmoveto
          -122 hlineto
          -7 -7 -3 -6 -5 hvcurveto
          -96 -111 -74 109 rlineto
          34 callsubr
          -15 -11 -13 -13 -5 1 -5 3 -4 hvcurveto
          151 -220 rlineto
          -7 4 125 callsubr
          9 7 3 6 5 hvcurveto
          182 220 rlineto
          4 68 callsubr
          15 1 callsubr
          vhcurveto
          endchar
        </CharString>
        <CharString name="ecircumflex">
          -102 101 -39 101 195 endchar
        </CharString>
        <CharString name="edieresis">
          82 callgsubr
          297 70 callsubr
          40 51 10 51 -51 150 -92 52 104 51 -51 149 10 51 hintmask 1111110110100000
          -105 callgsubr
          -325 361 rmoveto
          -13 -10 -10 -13 -13 -11 10 13 13 11 11 13 13 10 -11 -13 vhcurveto
          214 hmoveto
          -13 -11 -10 -13 -13 -10 10 13 -57 callsubr
          vhcurveto
          hintmask 1111101001100000
          -102 callsubr
        </CharString>
        <CharString name="edotaccent">
          -102 215 -89 101 199 endchar
        </CharString>
        <CharString name="egrave">
          82 callgsubr
          584 -20 hstem
          40 51 68 52 263 51 vstem
          -105 callgsubr
          -393 522 -107 callgsubr
        </CharString>
        <CharString name="eight">
          -88 -21 65 623 51 hstemhm
          49 51 -22 51 21 51 162 51 14 51 -1 52 hintmask 11101101
          363 165 rmoveto
          -58 -31 -63 -89 -84 -59 77 83 58 33 47 59 15 vhcurveto
          27 -18 31 -17 36 -18 rrcurveto
          57 -27 20 -20 -59 vvcurveto
          115 39 rmoveto
          -71 -39 -56 -64 -28 vhcurveto
          25 30 14 39 47 vvcurveto
          78 -31 39 -75 35 vhcurveto
          hintmask 11011101
          -145 70 -34 57 70 vvcurveto
          28 5 29 17 27 vhcurveto
          -1 -5 0 -6 -6 vvcurveto
          -97 89 -59 86 -43 vhcurveto
          84 -42 69 -33 -103 vvcurveto
          hintmask 11101110
          -50 338 rmoveto
          -51 -35 -42 -36 -26 vhcurveto
          -68 34 -88 45 79 vvcurveto
          56 41 30 58 69 59 -57 -68 vhcurveto
          hintmask 11101101
          102 -338 rmoveto
          107 -62 48 -62 37 vhcurveto
          hintmask 11011110
          46 40 27 53 53 vvcurveto
          95 -82 81 -97 -103 -119 -70 -133 -60 20 -49 47 -44 vhcurveto
          hintmask 11101101
          -46 -23 -50 -39 -96 vvcurveto
          -115 72 -110 157 146 106 94 131 vhcurveto
          endchar
        </CharString>
        <CharString name="ellipsis">
          70 -22 0 callgsubr
          hstem
          47 150 94 150 94 150 cntrmask 00111000
          146 53 rmoveto
          -104 callsubr
          193 hmoveto
          -104 callsubr
          193 hmoveto
          -104 callsubr
          endchar
        </CharString>
        <CharString name="emacron">
          -102 108 -93 101 197 endchar
        </CharString>
        <CharString name="emdash">
          76 326 48 17 57 callgsubr
          669 11 callgsubr
          -11 -79 -127 -6 -63 hhcurveto
          hintmask 01000000
          -60 -129 6 11 -84 hvcurveto
          hintmask 00100000
          -71 callsubr
          hintmask 10000000
          -10 71 137 -5 70 hhcurveto
          71 136 18 callgsubr
        </CharString>
        <CharString name="endash">
          -60 callsubr
        </CharString>
        <CharString name="eng">
          -1 -254 52 -52 191 62 51 -44 -21 25 -21 428 52 -35 51 hstemhm
          110 51 7 52 12 51 246 51 hintmask 1010010111100000
          232 49 rmoveto
          1 -14 -16 0 -15 -9 -8 0 -9 hhcurveto
          367 -90 callsubr
          3 21 hvcurveto
          348 -205 rmoveto
          hintmask 1010001111100000
          95 0 174 -139 -66 -53 -29 -55 -38 vhcurveto
          50 vlineto
          -55 callsubr
          vhcurveto
          -2 5 callsubr
          hintmask 1001010111100000
          -6 -25 -31 -1 -31 -62 -61 7 -1 hhcurveto
          1 -1 -1 -15 callgsubr
          9 -11 13 -1 hvcurveto
          3 -1 31 -4 41 -2 rrcurveto
          -373 -16 callgsubr
          57 callsubr
          hintmask 1010010111100000
          15 callsubr
          hintmask 1000101111100000
          -1 1 1 0 1 68 callgsubr
          110 callsubr
          1 hvcurveto
          -11 2 -11 1 -12 1 1 215 rcurveline
          1 vlineto
          75 67 99 90 81 7 -103 -115 -216 -29 -202 -159 -64 -57 48 66 vhcurveto
          hintmask 0110010111100000
          14 -12 11 -14 -14 -12 -11 -14 vhcurveto
          -94 2 74 -72 97 hhcurveto
          213 26 300 170 hvcurveto
          endchar
        </CharString>
        <CharString name="eogonek">
          -102 -297 51 15 51 154 53 149 52 275 -20 hstem
          40 51 68 52 24 52 20 52 115 51 vstem
          524 -166 -91 callsubr
          43 25 26 37 25 hvcurveto
          28 11 26 15 14 22 rrcurveto
          4 4 2 6 6 -56 callgsubr
          -7 -8 -4 -6 -5 vhcurveto
          -28 -19 -54 -18 -33 hhcurveto
          -88 -36 84 80 -7 hvcurveto
          26 callsubr
          -162 -102 -95 -166 -146 113 -115 149 -7 hvcurveto
          -38 -35 -29 -45 -52 -49 callsubr
          -50 424 rmoveto
          -19 -42 -49 -11 -55 hhcurveto
          -52 -44 11 6 -21 hvcurveto
          3 76 18 117 103 12 rrcurveto
          99 -14 40 -72 -98 vvcurveto
          -255 171 rmoveto
          -40 -51 -20 -58 -104 vvcurveto
          -72 14 -57 28 -42 vhcurveto
          -68 36 -42 71 82 vvcurveto
          89 35 72 93 34 vhcurveto
          197 -668 -5 callgsubr
          -75 callsubr
          endchar
        </CharString>
        <CharString name="equal">
          -24 204 51 139 51 15 -20 hstemhm
          hintmask 10100000
          553 434 rmoveto
          14 -11 12 -14 vhcurveto
          98 callsubr
          hintmask 11000000
          -10 -67 -69 -5 -68 hhcurveto
          hintmask 10100000
          -68 -69 5 37 callgsubr
          -15 -11 -12 -14 -12 -89 callsubr
          hintmask 11000000
          -10 70 71 -5 71 hhcurveto
          71 70 5 10 70 hvcurveto
          83 callgsubr
          -190 vmoveto
          14 -11 12 -14 vhcurveto
          98 callsubr
          -10 -68 -69 -5 -68 hhcurveto
          -68 -68 5 37 callgsubr
          -15 -11 -12 -14 -12 -89 callsubr
          -10 70 70 -5 71 hhcurveto
          71 71 5 10 70 hvcurveto
          83 callgsubr
          endchar
        </CharString>
        <CharString name="eth">
          -57 -18 60 389 52 76 53 118 -20 hstem
          41 51 302 51 66 52 vstem
          394 -51 callsubr
          60 348 rmoveto
          -52 callsubr
          -1 -2 88 callsubr
          -29 -6 -28 -3 -35 -4 -14 17 -14 14 -13 12 rrcurveto
          68 -79 -78 11 73 callgsubr
          -1 31 -22 34 -49 vhcurveto
          -52 4 -36 5 0 vvcurveto
          1 98 callsubr
          -12 -14 -12 -14 -12 -89 callsubr
          2 -1 54 -8 72 -3 12 -24 12 -27 10 -31 19 callsubr
          100 -27 99 -54 91 hvcurveto
          24 2 23 4 21 4 rrcurveto
          12 3 9 10 12 vvcurveto
          endchar
        </CharString>
        <CharString name="exclam">
          -380 -22 0 callgsubr
          534 51 hstem
          67 41 68 41 vstem
          166 53 rmoveto
          -13 -11 -11 -13 -13 -10 11 13 12 -76 callgsubr
          -12 vhcurveto
          10 574 rmoveto
          -68 -16 -112 -18 -108 vhcurveto
          -17 107 -17 112 69 vvcurveto
          19 16 15 18 19 15 -15 -19 vhcurveto
          41 -574 rmoveto
          41 -33 33 -42 -55 callgsubr
          -56 callsubr
          42 33 33 42 vhcurveto
          11 574 rmoveto
          47 -39 38 -47 -47 -38 -38 -47 -83 21 -131 21 -127 vhcurveto
          6 -40 7 -38 5 -35 rrcurveto
          -13 2 11 -9 12 24 callsubr
          5 34 6 36 6 38 rrcurveto
          21 129 22 134 83 vvcurveto
          endchar
        </CharString>
        <CharString name="exclamdown">
          -395 -192 51 534 0 callgsubr
          hstem
          60 41 68 41 vstem
          111 467 rmoveto
          13 11 11 13 13 10 -11 -13 -12 -42 callsubr
          -13 -11 11 12 vhcurveto
          -10 -574 rmoveto
          68 16 112 18 108 vhcurveto
          17 -107 17 -112 -69 vvcurveto
          -19 -16 -15 -18 -19 -15 15 19 vhcurveto
          -41 574 rmoveto
          -41 33 -33 42 41 34 33 41 42 -34 33 -41 -42 -33 -33 -42 vhcurveto
          -11 -574 rmoveto
          -47 39 -38 47 47 38 38 47 83 -21 131 -21 127 vhcurveto
          -6 40 -7 38 -5 35 rrcurveto
          13 -2 -11 9 -12 hhcurveto
          -13 124 callgsubr
          hvcurveto
          -5 -34 -6 -36 -6 -38 rrcurveto
          -21 -129 -22 -134 -83 vvcurveto
          endchar
        </CharString>
        <CharString name="f">
          -228 14 51 -46 -21 22 -21 439 48 57 205 -68 68 56 callsubr
          -52 152 92 52 hintmask 1001011010100000
          311 693 10 callsubr
          235 -124 rmoveto
          89 3 -74 90 -121 hhcurveto
          hintmask 1001100110100000
          -140 -84 -101 -143 hvcurveto
          32 callgsubr
          0 0 0 hvcurveto
          hintmask 1001101010100000
          41 callsubr
          hintmask 0101100110100000
          -21 callsubr
          hintmask 0011101010100000
          1 2 1 2 hhcurveto
          hintmask 1001101010100000
          10 51 51 5 51 hhcurveto
          hintmask 0011101010100000
          52 52 -5 -10 51 hvcurveto
          hintmask 0101101001100000
          22 callsubr
          hintmask 1001011010100000
          20 callgsubr
          0 0 0 -1 vhcurveto
          121 callgsubr
          11 128 91 58 28 -60 -52 4 vhcurveto
          hintmask 1001101010100000
          -14 1 11 -11 14 hhcurveto
          14 12 11 14 1 0 0 0 hvcurveto
          endchar
        </CharString>
        <CharString name="fi">
          118 -2 62 -51 -21 22 -21 25 46 -40 -21 425 49 -35 48 33 51 72 106 -45 45 56 callsubr
          197 51 -37 51 57 52 -38 51 hintmask 010101011010110010000000
          751 -12 rmoveto
          12 14 11 -13 callsubr
          4 callsubr
          1 406 rcurveline
          13 -1 callsubr
          vhcurveto
          -6 -30 -31 -2 -31 hhcurveto
          hintmask 100000110101110100000000
          -74 -166 14 -1 -27 hvcurveto
          3 vlineto
          63 1 151 132 43 38 -8 -12 30 vhcurveto
          -28 -14 -19 -30 -33 vvcurveto
          -48 39 -39 48 46 38 36 50 3 vhcurveto
          91 -1 -123 52 -116 hhcurveto
          -192 -111 -101 -143 hvcurveto
          32 callgsubr
          hlineto
          hintmask 100000111010110100000000
          41 callsubr
          hintmask 100001011001110100000000
          -21 callsubr
          hintmask 000011011010110100000000
          1 2 1 2 hhcurveto
          hintmask 010101011010110100000000
          10 51 51 5 51 hhcurveto
          hintmask 000011011010110100000000
          52 52 -5 -10 51 hvcurveto
          hintmask 100001011010101100000000
          22 callsubr
          -27 5 -27 4 -26 3 rrcurveto
          374 vlineto
          25 136 -11 47 hhcurveto
          3 -374 hlineto
          -22 -3 -23 -3 -23 -5 rrcurveto
          hintmask 010101011010110100000000
          -48 callgsubr
          vhcurveto
          hintmask 001101011010110100000000
          -72 callgsubr
          hintmask 010101011010101010000000
          50 callsubr
          -440 705 10 callsubr
          324 -639 -74 callsubr
          368 vlineto
          27 23 1 3 21 hvcurveto
          hintmask 100001011010110100000000
          -14 179 rmoveto
          -22 -17 -13 -18 96 callgsubr
          23 12 -18 -19 vhcurveto
          endchar
        </CharString>
        <CharString name="five">
          -67 -18 56 398 77 137 52 8 -20 hstemhm
          38 51 296 52 67 52 hintmask 11101110
          504 249 rmoveto
          -83 -26 -87 -112 -34 vhcurveto
          36 38 35 54 112 vvcurveto
          107 -36 62 -72 43 vhcurveto
          110 -10 65 -71 -131 vvcurveto
          52 hmoveto
          153 -96 111 -155 -72 -56 -19 -21 -40 vhcurveto
          17 50 21 60 18 73 rrcurveto
          -4 34 39 -2 37 89 82 8 6 hhcurveto
          13 2 10 11 13 vvcurveto
          hintmask 11011110
          -52 callsubr
          vhcurveto
          -1 0 -51 callgsubr
          hintmask 11101110
          -1 -2 -83 -7 -88 hhcurveto
          -43 -45 2 5 -37 hvcurveto
          hintmask 11011110
          1 -1 -1 0 -2 hhcurveto
          -11 -11 -8 -12 -3 hvcurveto
          -33 -145 -52 -129 -1 -1 rrcurveto
          -1 -3 0 -3 -3 vvcurveto
          -13 11 -13 14 7 7 3 5 5 vhcurveto
          23 12 62 25 41 hhcurveto
          106 59 -71 -116 -115 -50 -96 -105 -83 -58 87 64 8 1 8 1 4 hvcurveto
          1 0 1 2 vvcurveto
          11 -11 14 -15 -13 -11 -9 109 callsubr
          -10 -1 -10 -9 vvcurveto
          -127 111 -78 122 171 114 96 171 vhcurveto
          endchar
        </CharString>
        <CharString name="fl">
          118 -2 62 -49 -21 24 46 -45 -21 26 -21 439 48 215 47 56 callsubr
          -52 152 83 callsubr
          hintmask 0001011101011000
          732 -6 rmoveto
          hintmask 0000111011011000
          13 13 11 15 12 -9 10 -12 3 hvcurveto
          -23 4 -1 -1 -22 3 rrcurveto
          1 569 -1 100 2 vvcurveto
          17 -12 9 -18 vhcurveto
          0 -156 0 -69 -201 -105 -101 -143 vhcurveto
          32 callgsubr
          hlineto
          hintmask 1000011101011000
          41 callsubr
          hintmask 1000011011011000
          -21 callsubr
          hintmask 0000111101011000
          1 2 1 2 hhcurveto
          hintmask 0110011101011000
          10 51 51 5 51 hhcurveto
          hintmask 0000111101011000
          52 52 -5 -10 51 hvcurveto
          hintmask 1000011100111000
          22 callsubr
          hintmask 0110011101011000
          20 callgsubr
          -1 hlineto
          121 callgsubr
          17 149 121 28 50 0 0 vhcurveto
          -650 vlineto
          -22 -2 -22 -4 87 callsubr
          5 hlineto
          10 52 45 5 46 hhcurveto
          hintmask 0001011101011000
          46 26 -1 -10 52 hvcurveto
          -416 690 rmoveto
          -40 -40 -21 -68 -96 vvcurveto
          -416 vlineto
          1 -11 -11 0 -11 hhcurveto
          -12 -12 0 -1 -12 hvcurveto
          431 vlineto
          86 38 81 92 22 vhcurveto
          329 -628 rmoveto
          -12 -12 0 -12 84 callgsubr
          645 71 vlineto
          endchar
        </CharString>
        <CharString name="four">
          -55 5 51 -46 -21 224 52 455 -20 hstemhm
          130 51 127 51 71 51 hintmask 10111110
          430 55 rmoveto
          -12 -11 1 -12 -12 -12 -1 -12 hhcurveto
          565 vlineto
          17 5 25 9 29 15 rrcurveto
          hintmask 01111110
          116 -660 rmoveto
          12 14 11 -13 callsubr
          4 callsubr
          rrcurveto
          172 vlineto
          16 1 15 2 16 2 rrcurveto
          -15 callsubr
          -11 callgsubr
          0 -27 -3 -17 -2 vhcurveto
          420 vlineto
          -7 callsubr
          -5 -6 -2 -3 -4 vhcurveto
          -38 -56 -56 -12 -1 hhcurveto
          -4 -2 -16 -5 -18 vvcurveto
          -375 vlineto
          -9 -8 0 -8 hhcurveto
          -66 -66 3 6 -66 hvcurveto
          79 122 17 115 78 vvcurveto
          60 -10 39 -1 3 vhcurveto
          12 -3 -10 7 -11 hhcurveto
          -14 -12 -11 -15 -2 0 -2 1 -3 hvcurveto
          0 9 -33 -54 vvcurveto
          -77 -19 -120 -92 -125 vhcurveto
          -3 -4 -2 -6 -5 vvcurveto
          -13 10 -10 13 -2 vhcurveto
          -10 82 82 -5 82 8 9 1 8 hhcurveto
          -164 vlineto
          -22 -2 -23 -4 -23 -4 49 callgsubr
          71 callgsubr
          57 callsubr
          hintmask 10111110
          10 52 46 5 47 hhcurveto
          47 47 61 callgsubr
          hintmask 01111110
          -1 2 2 0 1 hhcurveto
          endchar
        </CharString>
        <CharString name="fraction">
          -248 1 -21 753 -20 hstem
          424 707 rmoveto
          -55 callsubr
          vhcurveto
          -3 hlineto
          -10 -9 -6 -10 -5 hvcurveto
          -97 -220 -125 -228 -160 -249 rrcurveto
          -3 -5 -1 -4 -5 vvcurveto
          -26 callgsubr
          7 7 4 6 6 vhcurveto
          -57 callgsubr
          endchar
        </CharString>
        <CharString name="g">
          28 callgsubr
          hstemhm
          41 51 11 51 253 54 68 43 hintmask 1010111110000000
          -46 callgsubr
          hintmask 1011011110000000
          -93 callsubr
          hintmask 1010111110000000
          -58 callgsubr
          hintmask 0111011110000000
          -70 callsubr
          endchar
        </CharString>
        <CharString name="gbreve">
          28 callgsubr
          31 49 callsubr
          41 51 11 51 253 54 68 43 hintmask 1010110111100000
          -46 callgsubr
          hintmask 1011010111100000
          -93 callsubr
          hintmask 1010110111100000
          -58 callgsubr
          hintmask 0111001111100000
          -70 callsubr
          -249 246 -100 callgsubr
          hintmask 1011010111100000
          -87 callsubr
          hintmask 1011001111100000
          -94 callgsubr
        </CharString>
        <CharString name="gcircumflex">
          -1 138 -39 103 195 endchar
        </CharString>
        <CharString name="gcommaaccent">
          28 callgsubr
          28 0 callgsubr
          96 -20 hstemhm
          41 51 11 51 36 153 64 54 68 43 hintmask 1010111111111000
          -46 callgsubr
          hintmask 1011011111111000
          -93 callsubr
          hintmask 1010111111111000
          -58 callgsubr
          hintmask 0111011111111000
          -70 callsubr
          -397 138 -81 callgsubr
        </CharString>
        <CharString name="gdotaccent">
          -1 201 -85 103 199 endchar
        </CharString>
        <CharString name="germandbls">
          199 -22 51 -31 182 -166 -21 23 49 -45 -21 439 48 194 68 56 callsubr
          63 51 -51 116 13 52 199 100 -51 51 hintmask 0011011101101010
          311 693 rmoveto
          -40 -40 -21 -68 -96 vvcurveto
          -422 vlineto
          -17 -24 -1 -1 -28 hvcurveto
          439 vlineto
          86 38 81 92 22 vhcurveto
          321 -438 rmoveto
          57 -11 105 -18 -81 vvcurveto
          -10 -2 -11 -4 -10 vhcurveto
          -2 3 -1 3 -2 3 -25 37 -60 23 -98 11 rrcurveto
          -68 7 -116 26 91 vvcurveto
          18 4 22 12 16 vhcurveto
          -3 1 -4 1 -3 vhcurveto
          24 -79 98 -15 76 -15 rrcurveto
          213 -110 rmoveto
          108 -114 33 -88 19 vhcurveto
          hintmask 1000011011011100
          -46 10 -116 11 69 vvcurveto
          14 5 14 9 13 vhcurveto
          26 27 25 38 68 vvcurveto
          93 -81 86 -111 -140 -84 -101 -143 vhcurveto
          32 callgsubr
          0 0 0 hvcurveto
          hintmask 1000011101101100
          41 callsubr
          hintmask 0100011011101100
          -2 29 28 -1 28 hhcurveto
          -375 vlineto
          -25 -2 -26 -4 -25 -5 rrcurveto
          -13 -2 -8 -11 116 callgsubr
          hintmask 0000111101101100
          1 2 1 2 hhcurveto
          hintmask 0011011101101100
          15 77 81 2 35 6 12 0 1 hhcurveto
          13 13 10 15 hvcurveto
          448 vlineto
          63 11 128 91 55 35 -60 -52 -67 -28 -24 -32 -27 vhcurveto
          -39 -35 -30 -40 -57 vvcurveto
          -114 118 -49 112 -12 vhcurveto
          28 -3 122 -15 -45 vvcurveto
          hintmask 1000011101101100
          -32 -70 -19 -47 -70 -128 47 45 -15 vhcurveto
          1 18 1 12 1 0 85 callsubr
          hintmask 0100011101101100
          13 -11 13 -14 -14 -11 -10 -14 -1 vhcurveto
          -2 -5 -49 -49 vvcurveto
          -13 0 -14 1 -12 vhcurveto
          hintmask 0011011101101100
          -14 1 12 -10 13 hhcurveto
          14 11 11 15 1 hvcurveto
          0 85 callsubr
          -1 9 -1 11 11 vvcurveto
          hintmask 1000011101101100
          -48 43 101 -26 72 hhcurveto
          104 113 63 104 hvcurveto
          endchar
        </CharString>
        <CharString name="grave">
          -352 580 -21 282 -20 hstem
          93 790 -107 callgsubr
        </CharString>
        <CharString name="greater">
          -256 108 -21 575 -20 hstem
          190 51 vstem
          300 358 rmoveto
          -9 callgsubr
          57 -24 rmoveto
          6 5 6 8 9 vvcurveto
          8 -4 8 -7 4 vhcurveto
          -119 89 -129 184 -1 2 rrcurveto
          34 callsubr
          -13 -13 -11 -15 -5 2 -5 3 -4 hvcurveto
          3 -5 52 -73 68 -77 rrcurveto
          -204 vlineto
          -69 -67 -50 -64 -3 -4 rrcurveto
          -4 -5 -2 -5 -6 vvcurveto
          -13 11 -12 15 8 7 3 7 5 vhcurveto
          1 1 126 160 122 76 rrcurveto
          endchar
        </CharString>
        <CharString name="guillemotleft">
          -72 109 callgsubr
          158 52 188 52 vstem
          398 181 -64 callgsubr
          -377 -259 -64 callgsubr
          endchar
        </CharString>
        <CharString name="guillemotright">
          -72 109 callgsubr
          140 51 189 51 vstem
          250 228 rmoveto
          -9 callgsubr
          240 hmoveto
          -9 callgsubr
          -183 -24 rmoveto
          -85 callsubr
          240 hmoveto
          -85 callsubr
          endchar
        </CharString>
        <CharString name="guilsinglleft">
          -312 109 callgsubr
          158 52 vstem
          158 181 rmoveto
          -19 16 -19 16 -20 15 20 16 19 19 19 19 rrcurveto
          137 158 rmoveto
          3 5 2 5 6 -56 callgsubr
          -7 -8 -4 -7 -5 vhcurveto
          -44 -57 -87 -106 -82 -62 rrcurveto
          -6 -4 -4 -16 -1 vvcurveto
          -9 5 -7 7 -5 vhcurveto
          83 -52 85 -92 44 -50 rrcurveto
          -6 5 7 -3 7 68 callgsubr
          6 -2 6 -4 5 hvcurveto
          -21 23 -29 33 -34 33 rrcurveto
          204 vlineto
          34 39 30 37 21 27 rrcurveto
          endchar
        </CharString>
        <CharString name="guilsinglright">
          -312 109 callgsubr
          140 51 vstem
          250 228 rmoveto
          -9 callgsubr
          57 -24 rmoveto
          -85 callsubr
          endchar
        </CharString>
        <CharString name="h">
          95 callsubr
          130 124 callsubr
          97 51 71 52 281 51 hintmask 10101111
          219 61 -74 callsubr
          576 -90 callsubr
          3 21 hvcurveto
          414 -633 rmoveto
          -4 callsubr
          110 callsubr
          1 hvcurveto
          3 -19 -20 2 -20 hhcurveto
          17 81 9 70 58 vvcurveto
          131 -45 105 -135 -63 -52 -29 -57 -37 vhcurveto
          248 vlineto
          13 -1 callsubr
          vhcurveto
          84 callsubr
          hintmask 10110111
          -30 callgsubr
          hhcurveto
          hintmask 10101111
          -62 -61 8 -1 -98 callgsubr
          hintmask 01110111
          3 31 -4 -2 41 hvcurveto
          -582 -74 callgsubr
          -12 15 vhcurveto
          39 callgsubr
          hintmask 10110111
          10 52 47 5 46 hhcurveto
          hintmask 01110111
          47 47 61 callgsubr
          2 2 0 1 hhcurveto
          13 13 10 -13 callsubr
          -24 5 -23 4 -23 2 1 218 rcurveline
          76 64 107 88 104 25 -83 -101 -58 -9 -70 -18 -83 vhcurveto
          -24 -1 -23 -3 -23 -5 49 callgsubr
          -26 callgsubr
          -42 callgsubr
          1 1 vhcurveto
          6 33 33 3 33 hhcurveto
          22 22 -1 -3 23 hvcurveto
          -1 -90 callgsubr
          endchar
        </CharString>
        <CharString name="hbar">
          95 callsubr
          -51 123 58 124 callsubr
          0 148 -51 51 71 51 -51 135 198 51 hintmask 1010101001100000
          219 61 -74 callsubr
          576 -90 callsubr
          3 21 hvcurveto
          414 -633 rmoveto
          -4 callsubr
          110 callsubr
          1 hvcurveto
          3 -19 -20 2 -20 hhcurveto
          17 81 9 70 58 vvcurveto
          131 -45 105 -135 -63 -52 -29 -57 -37 vhcurveto
          96 vlineto
          23 2 22 4 16 5 rrcurveto
          13 4 9 8 13 vvcurveto
          hintmask 1001011010100000
          -38 callsubr
          -16 -5 -19 -4 -19 -2 rrcurveto
          102 vlineto
          13 -1 callsubr
          vhcurveto
          -5 hlineto
          hintmask 1010101010100000
          -30 callgsubr
          hhcurveto
          hintmask 1010011010100000
          -62 -61 8 -1 hhcurveto
          -3 hlineto
          -11 -15 -9 -16 -13 -89 callsubr
          hintmask 0101100110100000
          3 31 -4 -2 41 hvcurveto
          -67 vlineto
          -28 3 -25 3 -11 2 rrcurveto
          -62 callgsubr
          -9 13 -3 hvcurveto
          20 -5 25 -4 26 -3 rrcurveto
          -461 -74 callgsubr
          -12 15 vhcurveto
          5 hlineto
          hintmask 1010101010100000
          10 52 47 5 46 hhcurveto
          hintmask 0110101010100000
          47 47 61 callgsubr
          5 hlineto
          13 13 10 -13 callsubr
          -24 5 -23 4 -23 2 1 218 rcurveline
          76 64 107 88 104 25 -83 -101 -58 -9 -70 -18 -83 vhcurveto
          -24 -1 -23 -3 -23 -5 49 callgsubr
          -26 callgsubr
          -42 callgsubr
          1 1 vhcurveto
          6 33 33 3 33 hhcurveto
          22 22 -1 -3 23 hvcurveto
          -1 -90 callgsubr
          endchar
        </CharString>
        <CharString name="hcircumflex">
          95 callsubr
          130 49 92 -20 hstemhm
          97 51 71 52 281 51 hintmask 10111111
          219 61 -74 callsubr
          576 -90 callsubr
          3 21 hvcurveto
          414 -633 rmoveto
          -4 callsubr
          110 callsubr
          1 hvcurveto
          3 -19 -20 2 -20 hhcurveto
          17 81 9 70 58 vvcurveto
          131 -45 105 -135 -63 -52 -29 -57 -37 vhcurveto
          248 vlineto
          13 -1 callsubr
          vhcurveto
          84 callsubr
          -6 -25 -31 -2 -31 -62 -61 8 11 callsubr
          31 -4 -2 41 hvcurveto
          -582 -80 callsubr
          hintmask 01111111
          -8 callsubr
          2 hhcurveto
          hintmask 10111111
          10 52 47 5 46 hhcurveto
          hintmask 01111111
          47 47 61 callgsubr
          2 2 0 1 hhcurveto
          13 13 10 -13 callsubr
          -24 5 -23 4 -23 2 1 218 rcurveline
          76 64 107 88 104 25 -83 -101 -58 -9 -70 -18 -83 vhcurveto
          -24 -1 -23 -3 -23 -5 49 callgsubr
          -26 callgsubr
          -42 callgsubr
          1 1 vhcurveto
          6 33 33 3 33 hhcurveto
          22 22 -1 -3 23 hvcurveto
          -1 -90 callgsubr
          -131 579 rmoveto
          -85 98 23 35 111 -133 rlineto
          47 -45 rmoveto
          11 12 9 14 5 -2 4 -3 5 hvcurveto
          -160 193 rlineto
          5 -4 -7 3 -7 hhcurveto
          -7 -7 -4 -6 -4 hvcurveto
          -132 -193 rlineto
          -3 -4 -1 -4 -4 vvcurveto
          -12 10 -11 13 7 7 3 6 4 vhcurveto
          65 96 84 -97 rlineto
          -6 5 6 -2 6 hhcurveto
          endchar
        </CharString>
        <CharString name="hungarumlaut">
          -122 580 -21 231 51 hstem
          117 700 rmoveto
          48 90 rlineto
          52 hlineto
          93 26 rmoveto
          13 -1 callsubr
          vhcurveto
          -134 hlineto
          -10 -8 -5 -8 -5 hvcurveto
          -124 -232 rlineto
          -2 -3 -1 -5 -4 vvcurveto
          -13 11 -12 15 6 6 2 4 5 vhcurveto
          258 231 rlineto
          6 5 3 7 8 vvcurveto
          37 -116 rmoveto
          48 90 rlineto
          52 hlineto
          93 26 rmoveto
          13 -1 callsubr
          vhcurveto
          -134 hlineto
          -10 -8 -5 -8 -5 hvcurveto
          -124 -232 rlineto
          -2 -3 -1 -5 -4 vvcurveto
          -13 11 -12 15 6 6 2 4 5 vhcurveto
          258 231 rlineto
          6 5 3 7 8 vvcurveto
          endchar
        </CharString>
        <CharString name="hyphen">
          -59 326 48 17 57 callgsubr
          535 11 callgsubr
          -11 -79 -61 -6 -63 hhcurveto
          hintmask 01000000
          -60 -62 6 11 -84 hvcurveto
          hintmask 00100000
          -71 callsubr
          hintmask 10000000
          -10 71 70 -5 70 hhcurveto
          71 70 18 callgsubr
        </CharString>
        <CharString name="i">
          -275 9 119 callsubr
          81 callgsubr
          hintmask 10111110
          -91 callgsubr
          -6 204 rmoveto
          -72 callsubr
          122 -642 rmoveto
          12 14 11 -13 callsubr
          4 callsubr
          1 406 rcurveline
          13 -1 callsubr
          vhcurveto
          84 callsubr
          -6 -25 -31 -2 -31 -62 -61 8 -1 -1 -1 0 -1 hhcurveto
          -11 -15 -9 -16 -13 9 -11 13 -2 hvcurveto
          21 callgsubr
          hintmask 01111110
          -72 callgsubr
          hintmask 10111110
          50 callsubr
          -71 642 9 callsubr
          endchar
        </CharString>
        <CharString name="iacute">
          -275 182 -57 245 194 endchar
        </CharString>
        <CharString name="ibreve">
          -275 26 -69 245 198 endchar
        </CharString>
        <CharString name="icircumflex">
          -266 9 34 callgsubr
          0 43 271 114 callsubr
          hintmask 10101110
          -11 callsubr
          4 callsubr
          1 406 rcurveline
          13 -1 callsubr
          vhcurveto
          84 callsubr
          -6 -25 -31 -2 -31 -62 -61 8 -1 -1 -1 0 -1 hhcurveto
          -11 -15 -9 -16 -13 9 -11 13 -2 hvcurveto
          21 callgsubr
          hintmask 01101110
          -72 callgsubr
          hintmask 10011110
          50 callsubr
          -98 579 -63 callsubr
          -107 callsubr
        </CharString>
        <CharString name="idieresis">
          -275 9 34 callgsubr
          48 70 callsubr
          19 50 47 51 71 51 -51 142 hintmask 1011111010000000
          -11 callsubr
          hintmask 1011111100000000
          4 callsubr
          1 406 rcurveline
          13 -1 callsubr
          vhcurveto
          84 callsubr
          -6 -25 -31 -2 -31 -62 -61 8 -1 -1 -1 0 -1 hhcurveto
          -11 -15 -9 -16 -13 9 -11 13 -2 hvcurveto
          21 callgsubr
          hintmask 0111111100000000
          -72 callgsubr
          hintmask 1011111100000000
          50 callsubr
          -238 608 rmoveto
          -13 -10 -10 -13 -13 -11 10 13 13 11 11 13 13 10 -11 -13 vhcurveto
          214 hmoveto
          -13 -11 -10 -13 -13 -10 10 13 -57 callsubr
          vhcurveto
          -102 callsubr
        </CharString>
        <CharString name="igrave">
          -275 9 34 callgsubr
          310 114 callsubr
          hintmask 10111100
          -11 callsubr
          4 callsubr
          1 406 rcurveline
          13 -1 callsubr
          vhcurveto
          84 callsubr
          -6 -25 -31 -2 -31 -62 -61 8 -1 -1 -1 0 -1 hhcurveto
          -11 -15 -9 -16 -13 9 -11 13 -2 hvcurveto
          21 callgsubr
          hintmask 01111100
          -72 callgsubr
          hintmask 10111100
          50 callsubr
          -352 744 -107 callgsubr
        </CharString>
</ttFont>
